<?xml version="1.0" standalone="no"?>
<!DOCTYPE svg PUBLIC "-//W3C//DTD SVG 20010904//EN"
 "http://www.w3.org/TR/2001/REC-SVG-20010904/DTD/svg10.dtd">
<svg version="1.0" xmlns="http://www.w3.org/2000/svg"
 width="1149.000000pt" height="645.000000pt" viewBox="0 0 1149.000000 645.000000"
 preserveAspectRatio="xMidYMid meet">

<g transform="translate(0.000000,645.000000) scale(0.100000,-0.100000)"
fill="#000000" stroke="none">
<path d="M0 3225 l0 -3225 2887 0 2886 0 -19 22 c-44 52 -45 52 -54 37 -5 -7
-13 -10 -17 -5 -4 5 -2 11 5 13 6 3 12 18 12 34 0 28 -2 29 -47 29 -42 0 -45
1 -28 13 17 13 16 15 -14 30 -30 15 -33 14 -59 -7 -15 -12 -37 -20 -49 -18
-29 4 -59 47 -66 92 -3 19 -19 71 -35 115 -41 111 -44 118 -59 133 -18 18 -16
42 2 42 21 0 19 16 -5 40 -11 11 -20 31 -20 44 0 14 -8 31 -18 38 -24 17 -38
84 -21 104 6 8 8 14 3 14 -4 0 1 6 11 14 16 11 17 17 7 29 -7 8 -11 21 -10 28
2 9 -7 13 -27 12 -20 -1 -23 0 -7 4 24 5 29 18 10 26 -10 4 -9 8 2 16 27 19 1
24 -35 7 -20 -10 -43 -15 -50 -12 -8 3 -16 2 -18 -2 -2 -4 -1 0 2 8 3 8 4 43
2 78 -2 55 1 67 23 93 l26 31 0 -48 c0 -37 3 -45 12 -36 9 9 9 46 -3 163 l-15
151 53 79 c48 71 57 80 97 90 75 19 112 70 127 178 7 47 4 62 -16 105 -21 46
-22 57 -13 109 l10 58 475 -3 c463 -3 475 -3 491 -23 26 -32 64 -55 91 -55 23
0 24 -1 19 -69 -3 -38 -1 -76 4 -85 5 -9 4 -41 -3 -80 -8 -49 -15 -65 -30 -69
-10 -3 -19 -12 -19 -21 0 -9 -7 -16 -16 -16 -12 0 -14 -7 -9 -33 10 -43 23
-67 38 -67 8 0 9 3 1 8 -18 12 -24 40 -9 46 14 5 38 -16 30 -28 -3 -3 1 -2 7
4 7 5 21 10 33 10 19 0 22 -9 32 -87 6 -49 9 -90 7 -93 -3 -2 -19 2 -37 8 -18
7 -36 14 -42 15 -6 1 -10 -30 -11 -73 -9 -396 -15 -455 -47 -483 -16 -13 -18
-20 -9 -29 17 -17 15 -38 -9 -83 -18 -36 -20 -55 -17 -175 1 -74 -1 -141 -6
-149 -7 -10 -1 -21 17 -36 26 -20 37 -55 17 -55 -5 0 -10 -22 -10 -50 0 -27
-4 -50 -8 -50 -5 0 -17 -19 -26 -42 -10 -27 -19 -39 -24 -31 -11 17 -62 34
-83 28 -23 -8 -29 -37 -9 -52 13 -10 12 -13 -10 -22 -17 -6 824 -10 2583 -10
l2607 -1 0 3225 0 3225 -5745 0 -5745 0 0 -3225z m9290 3164 c151 -6 283 -12
292 -12 9 -1 14 -5 12 -9 -3 -4 3 -8 13 -9 10 0 13 -3 6 -6 -22 -8 -14 -23 13
-23 30 0 22 -20 -9 -21 -20 -1 -20 -2 3 -8 22 -6 23 -8 7 -14 -11 -4 -24 -4
-29 0 -7 3 -8 1 -4 -5 4 -7 31 -13 59 -14 44 -1 47 -2 17 -6 l-35 -5 35 -8
c56 -11 -213 -8 -610 7 -356 14 -454 20 -357 23 26 0 47 6 47 11 0 6 9 10 21
10 12 0 23 8 26 18 2 10 14 22 26 27 12 6 26 20 32 33 12 27 26 27 435 11z
m-375 -284 c202 -5 460 -24 463 -34 2 -6 14 -11 27 -11 28 0 41 -15 20 -24
-19 -7 -20 -26 -1 -26 26 0 28 -20 4 -29 -23 -10 -22 -10 5 -10 25 -1 27 -4
27 -40 0 -22 -5 -42 -12 -44 -8 -3 -5 -6 6 -6 15 -1 13 -6 -14 -31 -38 -35
-51 -37 -68 -10 -7 11 -20 20 -30 20 -16 -1 -16 -1 1 -11 9 -5 17 -14 17 -18
0 -10 -137 -7 -165 3 -16 6 -17 6 -5 -3 11 -7 -32 -9 -150 -5 -218 6 -292 13
-284 26 5 7 -6 8 -32 2 -55 -11 -410 -7 -432 5 -15 9 -15 10 6 11 12 0 22 5
22 10 0 6 6 10 14 10 8 0 18 9 21 20 3 11 15 25 26 30 10 6 19 20 19 30 0 11
4 20 9 20 5 0 16 16 25 35 11 22 24 35 36 35 11 0 20 6 20 14 0 13 28 26 85
39 11 3 72 3 135 0 63 -3 156 -7 205 -8z m805 -225 c0 -21 5 -42 10 -45 6 -3
11 -30 12 -58 l1 -52 7 45 7 45 1 -57 c1 -32 6 -58 11 -58 17 0 23 -35 21
-122 -1 -81 1 -88 18 -88 20 0 32 -38 32 -107 0 -43 -13 -48 -47 -20 -15 13
-34 26 -41 28 -9 3 -15 24 -18 54 -4 60 -30 230 -45 301 -6 28 -10 71 -8 97 2
26 1 48 -3 49 -4 2 -5 13 -2 25 5 19 10 21 25 12 14 -7 19 -21 19 -49z m-4797
-446 c34 -6 38 -10 48 -49 8 -31 15 -42 27 -40 17 2 32 -12 32 -30 0 -5 -5 -3
-11 5 -9 12 -10 12 -5 -3 3 -10 6 -24 6 -30 0 -7 4 -6 10 3 7 11 10 6 10 -22
0 -20 6 -38 12 -40 8 -3 13 -26 15 -58 1 -35 7 -56 16 -62 11 -6 14 -23 10
-78 -3 -49 -1 -70 8 -70 6 0 9 -6 6 -14 -4 -11 12 -15 76 -20 138 -11 203 -19
189 -23 -6 -3 -10 -9 -6 -14 3 -5 -2 -9 -11 -9 -25 0 -208 -20 -232 -25 -20
-5 -21 -9 -12 -31 5 -15 7 -36 3 -47 -4 -12 -2 -17 4 -13 6 4 8 -2 5 -15 -4
-16 -8 -17 -14 -7 -7 10 -12 11 -28 1 -14 -9 -22 -9 -27 -2 -5 8 -8 8 -13 0
-4 -6 -11 -3 -19 9 -11 19 -9 20 28 18 22 -1 43 2 47 5 3 4 -28 7 -71 7 -73 0
-77 1 -86 26 -15 38 -13 42 23 46 17 2 -8 4 -56 5 -171 2 -327 15 -320 26 4 6
-3 8 -21 3 -14 -3 -26 -2 -26 3 0 5 -10 12 -22 16 -27 10 115 22 267 24 64 1
95 5 86 10 -8 5 -15 25 -15 44 -1 22 -5 33 -13 30 -13 -5 -36 64 -26 80 3 6 1
7 -5 3 -9 -6 -33 50 -37 89 -2 14 -18 136 -20 155 -2 8 -6 34 -10 58 l-8 42
74 0 c41 0 91 -3 112 -6z m1772 -38 c27 -1 30 -4 28 -31 -2 -17 -4 -69 -7
-116 -2 -48 -6 -91 -9 -96 -4 -6 -9 -29 -13 -51 -4 -23 -10 -42 -14 -42 -4 0
-15 -21 -25 -47 -10 -27 -22 -53 -27 -60 -5 -7 -6 -18 -2 -24 4 -7 3 -9 -4 -5
-6 3 -13 2 -16 -2 -3 -5 41 -12 97 -16 129 -8 167 -15 164 -29 -4 -19 -88 -36
-185 -37 -105 0 -127 -8 -137 -47 -9 -39 -19 -43 -107 -43 -74 0 -77 1 -74 23
2 12 7 30 11 40 4 10 5 21 1 24 -3 4 -52 10 -109 14 -122 9 -187 19 -187 29 0
15 82 30 171 30 100 0 149 8 129 20 -9 5 -9 22 -1 66 20 118 46 219 58 232 7
7 13 21 13 30 0 10 11 34 25 54 14 21 28 52 32 69 l6 31 76 -8 c42 -4 90 -8
106 -8z m-4581 -409 c25 -20 27 -25 12 -30 -10 -4 -19 -1 -22 8 -4 8 -13 15
-21 15 -9 0 -13 6 -10 14 4 11 1 13 -10 9 -12 -5 -14 -3 -8 7 6 10 4 12 -7 7
-9 -3 -24 1 -35 9 -17 14 -17 14 1 7 13 -4 17 -3 12 5 -9 15 48 -18 88 -51z
m3516 -32 c0 -8 -9 -15 -20 -15 -11 0 -20 7 -20 15 0 8 9 15 20 15 11 0 20 -7
20 -15z m-3425 -43 c-3 -3 -14 3 -26 14 -12 10 -23 18 -25 17 -2 -2 -10 -3
-16 -3 -9 0 -9 3 1 9 10 6 24 2 43 -12 15 -11 26 -23 23 -25z m2802 -158 c7
-20 -26 -24 -36 -5 -9 15 -7 18 11 17 12 0 23 -6 25 -12z m1403 -24 c-8 -5
-22 -9 -30 -9 -10 0 -8 3 5 9 27 12 43 12 25 0z m-1122 -37 c-2 -11 8 -22 25
-31 15 -7 27 -17 27 -23 0 -5 9 -9 20 -9 26 0 63 37 56 56 -7 19 33 19 76 0
25 -11 116 -17 386 -24 194 -5 354 -11 356 -13 3 -3 8 -52 12 -109 4 -58 12
-108 18 -112 19 -13 133 -9 143 5 5 6 25 58 43 115 l34 103 236 -7 c187 -5
440 -15 653 -24 9 -1 17 -2 18 -3 0 -1 8 -51 17 -112 l17 -110 69 -3 c45 -2
79 2 100 12 17 8 49 18 71 22 22 4 79 22 127 40 95 36 165 53 155 37 -6 -9 26
-43 41 -43 4 0 13 -13 20 -29 8 -17 25 -34 42 -40 17 -5 30 -17 30 -25 0 -18
32 -21 61 -6 16 9 19 7 19 -12 1 -26 22 -58 38 -58 5 0 12 -6 15 -13 3 -8 32
-27 65 -43 49 -24 64 -37 81 -72 16 -33 26 -42 40 -37 14 4 22 -4 36 -35 13
-29 24 -40 40 -40 16 0 27 -11 40 -40 13 -29 24 -40 40 -40 16 0 27 -11 40
-40 15 -32 23 -40 45 -40 15 0 33 -7 40 -15 7 -8 27 -15 45 -15 20 0 35 6 39
15 9 24 36 18 36 -7 1 -13 13 -32 27 -43 14 -11 34 -28 44 -37 11 -10 23 -18
27 -18 5 0 14 -11 20 -25 6 -14 18 -25 27 -25 8 0 15 -6 15 -14 0 -8 21 -25
46 -38 40 -19 50 -32 72 -80 13 -32 29 -58 33 -58 5 0 9 -9 9 -20 0 -15 7 -20
26 -20 28 0 42 -11 63 -52 8 -16 18 -28 22 -28 5 0 17 19 28 43 19 41 19 41
20 12 1 -19 4 -25 9 -18 7 11 26 -105 38 -232 3 -22 9 -87 15 -145 7 -58 13
-169 15 -248 2 -79 10 -191 18 -250 8 -59 17 -154 21 -212 3 -58 8 -125 11
-150 3 -33 2 -41 -5 -30 -6 8 -11 38 -12 65 -1 35 -4 42 -8 25 -3 -14 -8 13
-11 65 l-5 90 -22 -22 c-17 -17 -23 -35 -23 -65 0 -25 -8 -57 -20 -76 -11 -18
-20 -46 -20 -62 0 -17 -4 -30 -9 -30 -5 0 -13 -9 -16 -20 -4 -11 -16 -20 -28
-21 -20 -1 -20 -2 3 -8 l25 -7 -25 -9 -25 -9 25 -6 25 -7 -27 -8 c-38 -10 -35
-33 5 -38 17 -2 -26 -4 -98 -3 l-130 1 -5 110 c-6 122 3 100 -120 305 -63 104
-92 145 -203 278 l-57 69 15 43 c18 50 19 76 8 149 l-8 54 -70 29 c-38 16 -84
35 -102 43 -17 8 -35 15 -41 15 -13 0 -69 30 -57 30 13 1 -56 39 -70 39 -5 0
6 -8 25 -19 19 -11 31 -19 25 -19 -17 0 -81 38 -65 39 13 0 13 1 0 10 -8 5
-12 10 -9 10 5 0 82 -26 134 -45 17 -7 18 -6 7 6 -7 8 -34 22 -60 31 -32 11
-40 17 -24 17 13 1 36 -6 52 -14 35 -18 39 -10 8 16 -12 11 -29 17 -40 13 -10
-3 -18 -2 -18 3 0 5 -12 10 -27 11 -14 1 -29 5 -32 8 -3 4 29 4 73 0 66 -5 77
-4 67 8 -6 7 -10 20 -8 27 2 8 2 11 0 7 -7 -12 -33 -10 -33 2 0 6 -9 10 -20
10 -11 0 -20 5 -20 11 0 6 -7 9 -15 5 -12 -4 -13 -2 -2 15 10 16 9 21 -3 29
-8 5 -23 7 -32 4 -20 -6 -25 12 -5 19 11 5 -18 11 -36 8 -5 -1 -6 3 -2 9 3 5
1 10 -4 10 -6 0 -11 7 -11 15 0 8 -7 15 -16 15 -12 0 -15 6 -10 24 5 22 4 24
-32 19 -20 -3 -40 -10 -44 -16 -6 -10 -20 14 -41 76 -7 18 -27 24 -27 8 0 -5
-21 -33 -46 -63 -25 -29 -51 -66 -58 -83 -72 -165 -70 -155 -52 -191 18 -39
25 -41 48 -15 12 14 13 21 5 24 -9 3 -8 8 2 20 7 9 16 15 20 12 9 -5 41 31 41
45 0 6 -4 10 -10 10 -5 0 -10 5 -10 11 0 5 5 7 10 4 6 -3 14 4 18 16 6 15 11
19 16 10 4 -6 3 -18 -4 -26 -7 -8 -10 -39 -8 -75 l3 -61 25 28 c14 16 33 39
42 53 l17 25 17 -42 c9 -24 20 -43 23 -43 3 0 12 -4 20 -9 15 -9 12 -14 -62
-101 -7 -8 -20 -27 -30 -42 -16 -26 -16 -26 13 -36 20 -8 31 -20 36 -39 3 -15
7 -32 8 -38 3 -12 -24 -34 -41 -35 -6 0 -9 8 -6 20 4 14 0 20 -11 20 -22 0
-101 47 -99 59 2 5 -6 8 -17 6 -19 -4 -19 -2 -5 25 19 38 19 46 -2 29 -15 -12
-16 -12 -10 3 11 29 -18 42 -50 22 l-28 -18 19 22 c18 21 18 22 1 22 -13 0
-16 6 -12 21 4 15 -1 23 -18 31 -14 6 -22 15 -19 19 3 5 0 9 -5 9 -6 0 -11 -4
-11 -10 0 -5 -5 -10 -11 -10 -5 0 -8 4 -4 9 3 5 -5 17 -17 25 -12 9 -18 16
-13 16 5 0 1 6 -9 13 -10 7 -19 25 -19 39 -1 14 -5 24 -9 21 -5 -2 -8 1 -8 6
0 6 -7 11 -15 11 -23 0 -54 36 -49 57 3 12 -6 29 -25 47 -29 28 -43 54 -21 41
5 -3 7 0 4 9 -3 9 -12 12 -22 9 -14 -5 -14 -3 2 15 22 25 16 41 -7 18 -8 -8
-17 -12 -21 -9 -3 3 3 14 14 23 13 11 18 24 14 35 -4 9 -8 24 -9 33 -5 33 -17
62 -27 62 -6 0 -7 12 -4 28 5 20 4 23 -4 12 -8 -13 -10 -13 -10 1 0 9 -6 19
-14 22 -10 4 -15 -11 -20 -61 -11 -122 -10 -127 56 -235 69 -113 123 -191 177
-254 20 -23 45 -54 57 -70 70 -95 68 -91 53 -110 -13 -16 -12 -17 3 -5 15 12
24 7 77 -38 l59 -53 -4 -191 c-2 -105 -6 -204 -10 -219 -6 -27 -6 -27 -96 58
-50 48 -133 120 -184 162 -52 41 -94 80 -94 86 0 6 3 7 6 4 10 -9 46 12 39 24
-4 5 -1 9 5 9 6 0 8 5 5 10 -3 6 4 10 17 11 l23 0 -22 9 c-13 5 -23 12 -23 16
0 3 7 3 16 0 8 -3 12 -2 9 4 -3 5 4 14 15 20 12 6 26 23 31 38 8 21 12 24 20
12 7 -11 8 -6 3 14 -5 21 -4 27 5 21 8 -4 14 1 18 14 3 12 11 21 19 21 10 0
11 6 4 25 -5 14 -7 32 -4 40 10 25 -20 17 -36 -9 -41 -66 -134 -200 -151 -217
-10 -10 -19 -28 -19 -39 0 -11 -2 -20 -5 -20 -10 0 -85 53 -85 60 0 4 -15 24
-34 44 l-33 37 1 124 1 123 -40 12 c-67 20 -226 101 -290 148 -19 13 -18 14
10 7 16 -3 32 -10 35 -13 3 -4 14 -7 25 -8 11 0 30 -4 43 -8 45 -15 21 12 -30
33 -98 41 -96 40 -72 40 11 1 24 -3 30 -8 5 -4 24 -11 43 -15 28 -5 32 -4 22
8 -10 12 -8 14 11 9 17 -3 19 -2 9 5 -7 5 -11 14 -7 20 3 6 2 14 -4 17 -6 4
-8 16 -4 27 4 15 3 18 -6 13 -9 -5 -10 -1 -5 15 5 16 4 20 -5 15 -9 -5 -10 -2
-5 14 4 14 2 21 -7 21 -22 0 -41 39 -27 56 8 10 8 14 0 14 -6 0 -17 11 -23 25
-7 16 -14 21 -18 14 -4 -6 -10 5 -14 24 -4 22 -13 37 -24 39 -13 3 -10 7 12
20 l30 16 -59 17 c-33 9 -72 28 -88 41 -16 13 -26 24 -23 24 3 0 -6 11 -19 25
-14 13 -25 29 -25 35 0 13 -37 13 -45 0 -3 -6 -3 -20 0 -31 6 -16 10 -18 18
-9 9 10 9 14 -1 17 -6 3 -9 9 -6 14 8 13 34 -9 34 -27 0 -8 -7 -14 -16 -14 -8
0 -12 -4 -9 -10 3 -5 0 -7 -8 -4 -8 3 -20 16 -27 30 l-14 24 -36 -35 c-28 -28
-43 -56 -64 -123 -15 -48 -36 -110 -47 -137 -25 -66 -25 -68 13 -123 18 -26
34 -57 36 -70 5 -41 41 -72 84 -72 21 0 38 -2 38 -5 0 -3 -12 -17 -27 -29
l-27 -24 64 -78 c36 -44 70 -85 77 -92 21 -22 35 -52 48 -106 7 -28 16 -59 20
-68 5 -13 3 -18 -8 -18 -17 0 -51 65 -42 80 3 6 1 10 -5 10 -6 0 -23 12 -37
26 -17 18 -29 22 -36 15 -14 -14 6 -37 38 -45 29 -7 31 -22 9 -54 -21 -30 -34
-24 -48 18 -9 27 -17 34 -33 33 -18 -2 -21 2 -18 28 3 21 -4 43 -22 71 -26 39
-27 41 -11 69 10 17 13 29 6 29 -5 0 -8 7 -5 15 4 8 2 17 -3 20 -4 3 -11 -1
-13 -7 -3 -7 -6 -3 -6 10 -1 12 -5 22 -10 22 -5 0 -13 9 -16 20 -4 11 -17 31
-29 43 -12 12 -21 28 -18 35 2 7 -3 12 -12 12 -9 0 -16 6 -16 14 0 8 -3 16 -7
18 -19 8 -70 85 -67 101 1 9 -2 15 -6 12 -5 -3 -11 4 -15 14 -4 12 -12 18 -21
14 -17 -6 -19 8 -3 24 9 9 7 11 -7 7 -27 -7 -70 57 -55 83 8 15 5 25 -14 45
-17 19 -21 28 -12 37 8 8 5 11 -11 11 -16 0 -22 6 -22 23 0 13 -5 28 -11 34
-7 7 -8 17 -3 25 12 19 11 40 -3 63 -7 11 -13 28 -13 38 0 11 -4 15 -12 11 -8
-5 -9 -2 -5 9 3 10 3 17 -1 17 -8 0 -42 57 -42 71 0 6 5 7 12 3 7 -4 8 -3 4 5
-4 6 -11 9 -16 6 -4 -3 -11 1 -14 7 -3 7 -4 -43 -1 -112 3 -69 6 -144 5 -167
-1 -29 7 -55 25 -82 14 -22 25 -47 25 -55 0 -8 4 -18 10 -21 5 -3 18 -25 28
-48 11 -23 42 -73 71 -111 28 -38 51 -76 51 -85 0 -30 -30 -62 -51 -56 -15 5
-19 1 -19 -17 0 -18 2 -20 10 -8 8 13 10 13 10 -2 0 -9 -4 -19 -9 -23 -13 -8
-24 32 -17 60 7 27 -12 45 -25 24 -5 -8 -4 -15 1 -17 6 -2 9 -25 8 -50 l-1
-47 -8 45 -7 45 0 -50 c1 -99 -6 -88 -12 20 l-6 110 -2 -157 c-2 -154 -3 -158
-34 -227 -35 -76 -60 -90 -66 -36 -2 17 -8 35 -12 40 -16 20 -31 186 -26 296
5 109 4 110 -20 121 -27 13 -33 30 -6 22 14 -5 14 -3 -3 11 -16 13 -17 17 -6
24 9 6 14 28 15 60 0 28 4 51 7 51 4 0 9 7 12 14 4 9 1 13 -6 10 -7 -2 -13 4
-14 16 -1 11 2 18 8 15 21 -14 7 15 -17 34 -20 15 -22 21 -10 21 25 0 13 73
-13 76 -24 3 -26 5 -11 14 8 5 12 12 8 15 -3 4 -19 -1 -35 -11 l-28 -17 27 28
c27 28 28 29 42 10 13 -18 14 -18 20 3 4 12 4 26 1 32 -3 6 1 13 9 16 9 3 16
12 16 20 0 8 4 14 9 14 15 0 18 44 5 75 -8 19 -9 38 -3 53 8 20 4 29 -22 53
-22 20 -30 35 -26 49 3 11 -1 27 -10 35 -17 18 -33 19 -33 4 0 -6 -7 -8 -16
-5 -8 3 -23 -1 -32 -10 -12 -12 -17 -13 -20 -4 -3 7 2 17 9 22 10 7 8 8 -9 5
-12 -3 -19 -1 -16 4 3 6 1 16 -5 23 -8 10 -6 19 8 37 10 13 21 35 24 49 6 22
5 22 -5 -2 -19 -44 -26 -33 -15 23 7 33 13 46 18 37 6 -9 9 -6 9 10 0 12 -4
22 -10 22 -5 0 -10 9 -10 19 0 33 -35 35 -85 6 -25 -15 -52 -25 -59 -22 -8 3
-17 -1 -20 -10 -5 -12 -1 -14 19 -11 14 3 24 3 21 1 -3 -3 9 -17 25 -31 25
-21 30 -31 27 -59 -2 -18 -1 -33 3 -33 12 0 24 24 21 43 -2 9 1 17 7 17 5 0
12 14 16 31 4 17 9 28 12 25 8 -8 -19 -116 -30 -116 -5 0 -7 -10 -4 -23 8 -28
-2 -42 -30 -43 -18 0 -20 2 -11 13 21 25 -2 26 -39 1 -51 -33 -159 -68 -212
-68 -47 0 -34 -25 13 -26 24 -1 33 2 24 7 -9 6 -8 9 7 9 11 -1 29 -7 39 -15
19 -14 19 -15 -7 -15 -15 0 -30 -7 -33 -15 -7 -18 -25 -20 -21 -2 1 6 -5 12
-13 12 -8 0 -14 -5 -13 -12 1 -6 -4 -14 -13 -17 -9 -3 -14 -1 -12 7 1 6 -2 22
-6 35 -8 25 -35 28 -101 11 -22 -5 -51 -12 -64 -15 -13 -3 -33 -10 -43 -15
-14 -7 -23 -7 -33 1 -11 9 -19 8 -37 -4 -12 -9 -33 -16 -46 -16 -24 0 -44 -31
-24 -38 12 -4 5 -32 -9 -32 -4 0 -6 7 -3 15 11 27 -12 16 -25 -12 -21 -47 -24
-170 -6 -273 12 -71 15 -122 10 -202 -4 -60 -11 -108 -16 -108 -6 0 -5 -9 1
-20 8 -14 8 -26 0 -40 -6 -10 -12 -32 -14 -48 -5 -49 -86 -155 -101 -132 -3 5
-2 10 3 10 5 0 12 14 16 31 5 25 9 29 26 24 16 -5 19 -3 13 11 -4 12 -3 15 5
10 9 -6 9 -1 0 18 -11 26 -28 35 -28 15 0 -5 -12 -36 -27 -67 -15 -31 -26 -65
-26 -75 1 -9 -2 -15 -6 -12 -10 6 -22 -35 -14 -48 3 -5 14 -7 24 -4 10 3 21 2
24 -3 2 -4 -9 -45 -25 -91 -16 -46 -34 -118 -40 -159 -20 -143 -33 -225 -37
-232 -2 -4 -16 0 -31 10 -147 99 -144 96 -166 157 -9 25 -15 32 -15 20 -1 -17
-3 -17 -11 -5 -9 13 -10 13 -10 0 0 -9 9 -23 20 -33 33 -28 23 -40 -12 -15
-18 13 -35 26 -38 29 -9 10 -73 39 -87 39 -25 0 -115 51 -138 78 -24 28 -39
95 -38 175 0 44 -2 47 -26 48 -23 0 -24 1 -6 9 13 6 15 9 5 9 -12 1 -13 3 -1
10 11 7 11 10 -1 17 -20 12 -4 74 20 75 16 1 16 2 0 6 -19 5 -25 23 -8 23 7 0
7 7 0 20 -6 11 -10 27 -8 34 2 8 -10 25 -26 39 l-28 25 -20 -20 c-17 -17 -18
-22 -7 -29 9 -5 9 -9 3 -9 -7 0 -15 -11 -18 -25 -4 -14 -11 -25 -16 -25 -6 0
-10 -8 -11 -17 0 -13 -2 -14 -6 -4 -4 9 -7 10 -13 2 -9 -16 -40 -3 -40 16 0
13 3 13 15 3 11 -9 15 -9 15 -1 0 7 5 9 10 6 6 -4 10 5 8 24 -2 24 -7 30 -22
28 -13 -1 -25 6 -31 21 -11 26 -24 29 -21 6 1 -9 13 -24 27 -34 13 -10 20 -22
16 -27 -5 -4 -12 -2 -16 5 -11 19 -60 -4 -61 -28 0 -3 14 -11 30 -17 28 -11
42 -33 20 -33 -5 0 -7 -6 -4 -14 3 -8 0 -17 -7 -22 -9 -5 -10 -2 -6 9 3 10 2
17 -4 17 -5 0 -12 -7 -15 -15 -4 -8 -13 -15 -21 -15 -20 0 -84 45 -76 54 4 4
0 4 -10 0 -11 -4 -19 0 -23 10 -3 9 -11 13 -16 10 -6 -4 -13 -2 -17 3 -10 15
-77 53 -94 53 -9 0 -21 -9 -27 -21 -6 -11 -31 -29 -56 -39 -54 -24 -183 -145
-233 -220 -44 -65 -76 -149 -95 -245 -14 -69 -41 -175 -52 -205 -9 -23 -73
112 -90 189 -24 106 -23 167 3 269 31 119 29 135 -19 143 -21 3 -49 0 -65 -7
l-28 -12 28 -1 c15 -1 27 4 27 10 0 5 5 7 10 4 9 -6 -35 -42 -71 -59 -8 -3 -2
-4 13 -1 15 3 30 1 33 -5 3 -5 -2 -10 -12 -11 -10 0 -13 -3 -5 -6 19 -7 14
-23 -8 -23 -13 0 -18 -5 -14 -15 4 -9 0 -15 -9 -15 -8 0 -17 -7 -21 -15 -10
-26 -24 -16 -28 18 -3 30 -1 34 17 30 15 -3 14 -1 -5 9 -35 17 -36 18 -20 28
13 8 12 10 -2 10 -21 0 -32 -16 -22 -32 4 -7 9 -23 10 -36 2 -14 13 -35 25
-48 18 -19 19 -24 7 -24 -9 0 -19 -6 -21 -12 -4 -10 -8 -9 -16 2 -6 9 -11 10
-11 3 0 -6 -6 -13 -12 -16 -7 -2 -5 -3 5 -2 9 2 17 -1 17 -6 0 -5 8 -9 17 -9
9 0 14 -2 11 -5 -9 -9 -139 22 -191 45 -32 14 -47 26 -43 35 3 8 0 17 -5 21
-25 15 -155 -160 -185 -248 -30 -93 -1 -355 51 -458 25 -50 23 -126 -4 -135
-23 -7 -54 -51 -55 -79 -1 -21 -5 -21 -241 -18 -343 4 -1135 21 -1302 28 -79
3 -143 10 -143 15 0 5 12 10 28 10 25 2 25 2 3 6 -21 4 -23 8 -16 50 4 26 13
53 22 61 8 9 10 17 5 21 -6 3 -11 24 -13 46 -4 54 11 195 21 195 4 0 6 -9 3
-20 -4 -16 -2 -19 12 -14 14 6 16 15 11 45 -5 30 -3 37 7 33 9 -3 12 -14 9
-30 -4 -24 13 -35 20 -12 4 10 10 10 32 0 15 -6 42 -12 61 -12 22 0 35 -5 35
-13 0 -8 27 -18 78 -27 42 -7 80 -13 84 -12 3 1 12 -5 18 -13 22 -26 30 -16
30 35 0 28 -5 50 -11 50 -5 0 -15 13 -20 30 -6 17 -14 30 -18 30 -4 0 -17 18
-29 39 -12 21 -29 41 -37 45 -8 3 -15 16 -15 30 0 14 -7 32 -16 40 -10 11 -16
37 -17 79 -2 54 0 62 15 59 20 -3 25 24 6 31 -10 4 -10 7 0 18 6 7 12 21 12
31 0 10 8 19 18 19 16 1 16 2 -1 6 -33 9 -19 33 18 33 40 0 89 35 68 48 -9 6
-5 22 14 60 14 29 29 52 34 52 5 0 9 11 9 25 0 18 5 25 20 25 24 0 60 34 60
55 0 9 6 18 14 21 12 5 34 48 50 97 3 9 17 22 31 27 14 5 25 16 25 25 0 8 9
15 20 15 13 0 20 7 20 20 0 11 4 20 9 20 5 0 13 9 16 20 3 11 13 20 21 20 9 0
23 18 31 40 9 22 22 40 30 40 7 0 19 11 25 25 6 14 15 25 20 25 4 0 8 7 8 15
0 21 12 19 33 -5 9 -11 23 -20 30 -20 8 0 22 -9 32 -20 16 -18 16 -20 2 -20
-27 0 -19 -24 13 -42 30 -17 30 -18 30 -108 0 -82 2 -90 19 -90 10 0 33 -13
51 -30 23 -22 30 -35 26 -52 -3 -13 -3 -17 0 -10 12 25 24 11 24 -28 0 -22 -5
-40 -11 -40 -21 0 2 -19 31 -25 38 -8 38 -22 0 -30 -32 -7 -51 -25 -26 -25 12
0 16 -10 16 -39 0 -22 6 -42 13 -44 6 -3 -3 -3 -20 0 -33 5 -33 5 -33 -36 0
-48 14 -53 53 -17 15 14 34 26 44 28 11 2 19 14 21 30 4 30 39 49 52 28 5 -8
10 -9 14 -2 3 6 0 12 -6 15 -7 3 0 10 17 17 16 6 37 17 45 24 17 15 212 68
248 68 12 0 22 4 22 10 0 5 9 6 20 3 15 -5 20 -2 20 12 0 10 7 27 15 37 8 11
15 29 15 41 0 12 5 26 11 32 18 18 1 50 -51 89 -28 21 -50 41 -50 45 0 4 -24
15 -52 24 -74 24 -108 39 -108 47 0 12 -158 9 -165 -2 -3 -6 -27 -9 -51 -8
-35 1 -53 8 -76 30 -19 17 -28 34 -24 44 3 8 2 12 -4 9 -6 -3 -10 -3 -10 2 0
17 17 33 52 47 28 12 38 13 42 3 3 -9 9 -7 19 6 8 9 24 17 36 17 16 0 21 6 21
25 0 35 49 83 103 99 26 8 59 28 80 50 19 20 40 36 46 36 6 0 11 7 11 15 0 11
11 15 40 15 22 0 40 5 40 11 0 22 62 70 84 64 11 -2 15 -2 9 1 -7 3 -13 19
-13 36 0 30 1 31 19 14 19 -17 20 -17 32 5 8 16 9 24 1 27 -14 4 6 52 22 52 6
1 21 9 33 19 19 16 21 23 13 52 -11 38 -8 44 17 35 24 -10 29 -8 25 10 -2 10
3 14 15 12 12 -2 19 4 21 20 2 12 10 22 20 22 18 0 82 41 82 53 0 13 27 37 42
37 7 0 25 11 40 25 15 14 31 25 37 25 5 0 18 11 29 25 11 14 24 25 29 25 18 0
73 31 73 42 0 14 122 -13 195 -43 55 -23 135 -45 135 -37 0 4 -5 8 -12 8 -6 0
-8 3 -5 7 4 3 20 -5 35 -19 22 -21 41 -27 105 -32 90 -8 81 -18 106 121 l17
98 456 0 c251 0 454 -3 452 -7 -6 -10 65 -226 77 -233 5 -4 9 -20 9 -36 0 -41
-94 -140 -154 -163 -49 -19 -59 -44 -14 -38 31 5 36 -8 13 -32 -8 -8 -12 -21
-10 -29 4 -8 -11 -29 -36 -51 -24 -22 -56 -68 -77 -110 -19 -39 -36 -72 -38
-74 -1 -2 -15 4 -31 14 -16 10 -23 12 -15 4 15 -18 16 -34 0 -24 -8 5 -9 2 -4
-11 8 -23 -21 -128 -34 -120 -6 4 -11 25 -12 48 l-1 42 -6 -45 c-6 -42 -21
-58 -29 -28 -2 9 0 8 7 -2 6 -8 11 -10 11 -5 -1 16 -26 45 -33 38 -4 -3 -7
-17 -7 -29 0 -13 -4 -25 -9 -29 -6 -3 -8 -22 -6 -43 2 -20 4 -43 4 -49 1 -14
37 -18 44 -5 2 4 3 2 1 -4 -1 -6 2 -17 7 -25 6 -10 9 -10 9 -1 0 6 7 12 16 12
8 0 12 -5 8 -11 -3 -6 -1 -14 5 -18 8 -5 9 -15 2 -33 -6 -16 -6 -30 1 -39 8
-12 9 -12 5 1 -2 8 0 24 6 35 8 16 15 5 39 -70 15 -49 28 -98 28 -109 0 -12 7
-30 15 -40 17 -22 20 -96 5 -96 -6 0 -21 6 -33 14 -12 7 -34 16 -48 20 -23 5
-27 1 -36 -29 -6 -19 -7 -37 -3 -40 5 -3 11 8 15 25 7 34 19 39 29 13 5 -11 1
-22 -10 -30 -10 -7 -15 -16 -11 -19 4 -4 13 -1 22 6 12 10 15 10 15 -4 0 -9
-5 -16 -11 -16 -5 0 -7 -4 -4 -10 3 -6 -4 -10 -17 -11 -22 0 -22 -1 -3 -9 11
-5 14 -9 7 -9 -7 -1 -10 -6 -7 -11 4 -6 9 -8 13 -6 4 2 13 -2 19 -10 11 -11 6
-14 -25 -19 -67 -11 -68 -13 -7 -14 88 -2 101 10 109 106 12 138 22 193 38
209 13 14 17 14 30 1 13 -13 16 -13 26 4 7 11 8 20 2 24 -6 3 -10 1 -10 -6 0
-7 -3 -9 -7 -5 -5 4 0 14 11 21 15 11 17 21 12 49 -6 33 -3 40 37 83 44 47
132 204 176 314 27 68 53 256 45 322 l-7 48 34 -20 c91 -53 272 -66 315 -24
15 15 18 15 28 1 7 -10 18 -13 31 -8 11 4 25 5 32 3 17 -7 55 16 47 28 -4 7
-27 8 -58 5 -46 -6 -55 -4 -75 18 l-23 24 38 11 c22 6 46 11 55 11 8 0 26 11
39 25 l24 25 -32 -6 c-31 -6 -46 9 -19 19 6 3 -8 4 -33 3 -32 -2 -53 3 -73 17
-40 27 -111 34 -132 13 -9 -9 -21 -16 -26 -16 -12 0 -2 39 16 60 21 26 26 66
10 80 -8 7 -15 20 -15 30 0 11 -10 20 -25 23 -39 7 -65 -33 -65 -98 0 -39 -5
-56 -20 -70 -16 -14 -23 -16 -32 -7 -7 7 -24 12 -38 12 -21 0 -30 8 -44 41
-17 39 -17 43 0 105 21 74 49 98 126 113 24 5 44 9 46 10 2 1 2 -7 0 -16z m52
10 c0 -14 -19 -38 -25 -32 -8 8 5 39 16 39 5 0 9 -3 9 -7z m-45 -160 c-8 -46
-25 -68 -25 -32 0 36 11 69 22 69 6 0 8 -15 3 -37z m-1479 -10 c-7 -7 -26 7
-26 19 0 6 6 6 15 -2 9 -7 13 -15 11 -17z m2262 -137 c12 -1 22 -6 22 -13 0
-7 -7 -10 -17 -6 -15 5 -16 3 -5 -8 19 -21 14 -31 -6 -11 -10 9 -17 19 -15 21
2 3 -7 11 -19 19 -18 10 -18 12 -3 6 11 -4 30 -8 43 -8z m-608 -91 c0 -8 -4
-15 -10 -15 -5 0 -10 -7 -10 -15 0 -8 -8 -15 -17 -15 -16 0 -16 2 -3 11 11 8
12 12 3 16 -18 7 -16 21 5 26 30 8 32 7 32 -8z m-2423 -87 c-3 -8 -6 -5 -6 6
-1 11 2 17 5 13 3 -3 4 -12 1 -19z m2860 -74 c-3 -3 -12 -4 -19 -1 -8 3 -5 6
6 6 11 1 17 -2 13 -5z m-163 -30 c9 -24 0 -29 -19 -11 -19 19 -19 27 -1 27 8
0 17 -7 20 -16z m-234 -18 c0 -3 -4 -8 -10 -11 -5 -3 -10 -1 -10 4 0 6 5 11
10 11 6 0 10 -2 10 -4z m380 -16 c0 -5 -4 -10 -9 -10 -6 0 -13 5 -16 10 -3 6
1 10 9 10 9 0 16 -4 16 -10z m-986 -167 c-18 -40 -27 -77 -29 -121 -1 -34 -5
-66 -9 -69 -16 -16 -76 88 -76 131 0 20 83 119 92 110 3 -2 13 5 24 17 30 34
30 0 -2 -68z m22 -84 c-9 -19 -15 -29 -16 -22 0 18 20 66 25 61 3 -3 -1 -20
-9 -39z m464 -3 c0 -3 -4 -8 -10 -11 -5 -3 -10 -1 -10 4 0 6 5 11 10 11 6 0
10 -2 10 -4z m730 -16 c-8 -5 -18 -6 -24 -3 -5 4 -1 10 10 13 24 9 34 2 14
-10z m80 -30 c9 13 11 13 20 0 15 -23 12 -34 -5 -20 -12 10 -15 10 -15 0 0
-10 -3 -10 -15 0 -8 7 -15 18 -15 24 0 6 5 4 10 -4 9 -13 11 -13 20 0z m-575
-115 c-4 -24 -14 -50 -23 -57 -13 -12 -15 -8 -10 29 3 23 2 58 -2 77 -10 45
-2 52 22 21 15 -20 18 -34 13 -70z m-905 70 c11 -13 10 -14 -4 -9 -9 3 -16 10
-16 15 0 13 6 11 20 -6z m1380 -20 c0 -11 -29 -11 -33 -1 -4 10 1 12 14 9 10
-3 19 -7 19 -8z m85 -73 c-3 -3 -11 0 -18 7 -9 10 -8 11 6 5 10 -3 15 -9 12
-12z m-42 -27 c-3 -9 -8 -14 -10 -11 -3 3 -2 9 2 15 9 16 15 13 8 -4z m783
-23 c12 -10 25 -28 28 -40 4 -12 12 -22 17 -22 5 0 9 -24 9 -54 0 -50 -3 -56
-42 -92 -43 -39 -43 -39 -46 -14 -5 35 -11 39 -64 41 -27 2 -48 6 -48 11 0 4
18 38 41 75 79 130 71 123 105 95z m-4912 -7 c3 -8 1 -15 -4 -15 -6 0 -10 7
-10 15 0 8 2 15 4 15 2 0 6 -7 10 -15z m960 -172 c4 -9 2 -21 -4 -27 -5 -5
-11 -21 -11 -35 -2 -25 -2 -25 -6 -3 -3 13 1 30 9 39 10 13 10 17 1 20 -15 5
-18 23 -4 23 5 0 12 -8 15 -17z m5016 -102 c0 -6 -4 -13 -10 -16 -5 -3 -10 1
-10 9 0 9 5 16 10 16 6 0 10 -4 10 -9z m-3580 -21 c0 -5 -5 -10 -11 -10 -5 0
-7 5 -4 10 3 6 8 10 11 10 2 0 4 -4 4 -10z m890 0 c0 -5 -5 -10 -11 -10 -5 0
-7 5 -4 10 3 6 8 10 11 10 2 0 4 -4 4 -10z m-555 -18 c-3 -3 -11 0 -18 7 -9
10 -8 11 6 5 10 -3 15 -9 12 -12z m-159 -7 c-3 -8 0 -15 6 -15 6 0 9 -2 6 -5
-3 -3 -13 -3 -22 1 -13 5 -14 9 -5 20 15 18 23 18 15 -1z m1879 -62 c-9 -26
-19 -54 -21 -62 -3 -8 -7 -12 -9 -9 -3 2 5 33 16 67 12 34 23 60 26 57 3 -3
-3 -26 -12 -53z m-1705 37 c0 -5 -2 -10 -4 -10 -3 0 -8 5 -11 10 -3 6 -1 10 4
10 6 0 11 -4 11 -10z m1905 -132 c-5 -68 -7 -192 -6 -275 1 -84 -1 -153 -6
-153 -5 0 -31 23 -58 51 -28 28 -78 73 -112 101 -35 29 -63 57 -63 63 0 6 11
27 25 46 32 44 47 64 87 121 72 102 123 167 132 167 5 1 5 -52 1 -121z m-2208
80 c-3 -8 -6 -5 -6 6 -1 11 2 17 5 13 3 -3 4 -12 1 -19z m-19 -18 c8 0 13 -2
10 -5 -3 -3 -20 -2 -38 2 -28 5 -31 8 -15 13 11 4 22 3 23 -1 2 -5 11 -9 20
-9z m809 -42 c-3 -7 -5 -2 -5 12 0 14 2 19 5 13 2 -7 2 -19 0 -25z m2613 12
c0 -17 -2 -19 -14 -8 -14 13 -12 28 5 28 5 0 9 -9 9 -20z m2750 -21 c0 -5 -4
-9 -10 -9 -5 0 -10 7 -10 16 0 8 5 12 10 9 6 -3 10 -10 10 -16z m-7160 -99 c0
-5 -5 -10 -11 -10 -5 0 -7 5 -4 10 3 6 8 10 11 10 2 0 4 -4 4 -10z m-30 -50
c0 -5 -5 -10 -11 -10 -5 0 -7 5 -4 10 3 6 8 10 11 10 2 0 4 -4 4 -10z m5957
-62 c-3 -8 -6 -5 -6 6 -1 11 2 17 5 13 3 -3 4 -12 1 -19z m-2220 -311 c60 -56
147 -135 194 -174 81 -69 145 -139 229 -250 22 -29 53 -59 70 -68 28 -15 50
-42 50 -64 0 -8 -103 -11 -331 -11 l-330 0 7 23 c14 41 5 166 -15 205 -16 32
-18 58 -16 212 2 170 9 230 25 230 5 0 57 -46 117 -103z m-1012 -268 c24 -31
61 -85 81 -120 41 -70 92 -139 112 -152 43 -28 4 -30 -420 -23 -238 4 -434 9
-436 11 -2 2 8 41 21 87 14 46 28 99 32 118 11 52 110 257 143 294 15 18 39
50 52 72 14 21 34 47 45 56 19 16 24 13 173 -135 85 -84 173 -177 197 -208z
m-1887 281 c137 -71 295 -178 388 -262 48 -43 74 -59 104 -64 22 -4 43 -11 46
-16 4 -5 8 -55 11 -110 l4 -101 -403 8 c-222 4 -414 9 -428 10 -14 1 -35 3
-47 4 -32 2 -29 19 4 23 37 4 46 26 76 175 15 75 33 133 46 152 12 16 21 36
21 45 0 26 98 166 116 166 3 0 30 -13 62 -30z m6402 20 c0 -5 -2 -10 -4 -10
-3 0 -8 5 -11 10 -3 6 -1 10 4 10 6 0 11 -4 11 -10z m-7303 -212 c33 -51 66
-107 73 -125 7 -18 20 -35 29 -38 18 -6 86 -148 78 -162 -3 -4 -66 -7 -141 -5
l-135 3 21 37 c36 64 38 85 17 199 -20 113 -24 183 -11 183 5 0 36 -42 69 -92z
m5108 -208 c42 -80 81 -149 86 -155 20 -21 4 -25 -106 -25 l-115 0 0 53 c0 30
9 96 20 148 11 52 20 105 20 119 0 35 9 22 95 -140z m2261 -1 c10 -17 -13 -36
-27 -22 -12 12 -4 33 11 33 5 0 12 -5 16 -11z m-5936 -187 c0 -4 -15 -14 -32
-21 l-33 -13 37 -17 c36 -16 37 -17 40 -76 l3 -60 83 -1 c45 0 82 3 82 6 0 4
9 10 19 13 23 6 31 -16 31 -93 0 -30 5 -84 10 -120 l9 -65 -79 -79 c-54 -55
-81 -75 -84 -65 -3 7 -10 32 -15 55 -8 31 -19 45 -50 62 -57 32 -62 41 -49 90
12 48 18 50 56 22 36 -26 121 -38 133 -19 10 17 12 68 1 54 -4 -5 -12 -11 -18
-12 -6 -1 -24 -4 -38 -7 -31 -6 -95 23 -96 42 0 20 -59 -46 -66 -74 -4 -14 -2
-49 5 -78 6 -28 14 -62 17 -76 3 -14 8 -54 11 -90 3 -36 10 -67 14 -70 5 -3
-18 -35 -51 -70 -33 -36 -60 -71 -60 -77 0 -7 19 -26 42 -43 22 -16 35 -30 27
-30 -8 0 -15 -12 -16 -28 -1 -15 -9 -49 -18 -75 -8 -25 -17 -70 -19 -98 -4
-51 -19 -73 -43 -64 -9 3 -13 -7 -13 -32 0 -25 -11 -50 -35 -84 -19 -27 -35
-55 -35 -63 0 -7 -13 -16 -30 -19 -18 -4 -30 -13 -30 -22 0 -8 -6 -15 -12 -15
-7 0 -22 -7 -32 -15 -16 -12 -17 -17 -6 -30 13 -16 5 -20 -30 -15 -24 3 -25 9
-4 25 17 14 16 14 -22 9 -45 -7 -154 12 -154 27 0 5 -6 9 -14 9 -7 0 -25 9
-40 21 -14 11 -26 16 -26 10 0 -6 -4 -11 -10 -11 -15 0 -12 14 8 36 9 10 23
32 31 47 8 15 42 57 75 92 96 101 116 126 116 143 0 11 -9 6 -31 -16 -17 -18
-38 -32 -45 -32 -8 0 -14 -8 -14 -19 0 -20 -85 -103 -130 -126 -17 -9 -30 -22
-30 -30 0 -8 -7 -15 -15 -15 -8 0 -20 -9 -27 -20 -7 -11 -17 -20 -23 -20 -13
0 -36 50 -29 61 7 13 44 11 44 -2 0 -5 5 -7 10 -4 22 14 -20 35 -68 35 -49 0
-51 1 -76 44 -14 25 -26 52 -26 60 0 9 -7 16 -15 16 -8 0 -15 4 -15 10 0 5
-14 22 -31 37 -23 21 -30 34 -27 54 3 19 0 25 -9 22 -11 -4 -12 4 -7 36 4 28
3 41 -5 41 -6 0 -11 -7 -11 -16 0 -9 -5 -12 -11 -8 -8 5 -9 40 -5 118 4 61 7
125 7 141 -1 17 -1 43 -1 58 -1 32 41 129 65 153 31 31 15 40 -62 35 -18 -2
-33 2 -33 8 0 17 32 29 72 27 37 -3 44 16 12 28 -9 3 -13 10 -9 15 3 6 -2 14
-12 19 -14 9 -15 13 -4 26 11 14 11 16 -4 16 -13 0 -16 6 -11 25 5 19 2 25 -9
25 -12 0 -14 7 -9 28 10 48 45 125 72 158 l25 32 141 0 c484 1 649 4 608 14
-36 8 -41 12 -31 24 8 10 35 14 100 14 49 0 89 -4 89 -8z m-1255 -52 c-3 -5
-1 -10 4 -10 15 0 14 -69 -1 -83 -39 -37 -96 -75 -103 -69 -5 4 -5 1 -1 -6 5
-8 1 -19 -10 -27 -27 -20 -36 -18 -29 5 4 12 2 20 -5 20 -6 0 -8 5 -5 10 3 6
1 10 -5 10 -6 0 -18 7 -26 15 -20 19 2 55 33 55 13 0 22 3 21 8 -5 12 41 52
60 52 9 0 28 7 42 14 32 18 32 18 25 6z m7215 -10 c0 -5 -4 -10 -10 -10 -5 0
-10 5 -10 10 0 6 5 10 10 10 6 0 10 -4 10 -10z m-7493 -42 c-3 -7 -5 -2 -5 12
0 14 2 19 5 13 2 -7 2 -19 0 -25z m3836 19 c4 3 7 2 7 -3 0 -5 33 -9 73 -9
212 -1 564 -8 579 -12 38 -9 104 -323 67 -323 -5 0 -17 -17 -26 -37 -13 -33
-14 -53 -4 -155 12 -117 8 -188 -11 -188 -6 0 -8 13 -4 30 3 19 2 29 -4 25
-17 -10 -11 -67 8 -81 10 -8 12 -13 5 -14 -8 0 -13 -13 -13 -31 0 -16 -4 -28
-8 -25 -4 2 -13 -4 -20 -15 -10 -15 -10 -19 2 -19 16 0 25 -39 18 -75 -5 -27
-22 -35 -22 -10 0 8 -9 15 -20 15 -11 0 -20 -4 -20 -10 0 -5 -22 -10 -50 -10
-27 0 -50 -4 -50 -9 0 -7 -28 -14 -150 -37 -19 -3 -53 -6 -75 -6 l-40 -1 4
-43 3 -44 -77 0 c-42 0 -85 -5 -96 -10 -13 -8 -25 -7 -40 1 -15 8 -19 8 -15 0
4 -6 2 -11 -4 -11 -7 0 -14 10 -18 22 -5 21 -5 21 -15 -3 l-10 -24 -5 23 c-3
17 -9 23 -22 19 -14 -4 -19 2 -23 27 -3 17 -19 76 -36 130 -17 55 -31 112 -31
127 0 15 -4 31 -10 34 -5 3 -10 21 -11 38 l-1 32 -9 -32 c-16 -55 -33 -41 -24
20 4 28 8 62 9 73 1 21 5 22 91 19 50 -2 110 -8 135 -14 72 -17 181 -14 210 6
34 23 40 33 38 68 -2 20 -16 42 -46 70 -26 24 -61 75 -89 130 -25 50 -76 147
-114 216 -70 127 -80 150 -56 130 8 -6 17 -8 20 -4z m-4187 -93 c18 -14 18
-14 -6 -3 -31 14 -36 19 -24 19 6 0 19 -7 30 -16z m5405 -85 l-11 -34 5 34 c3
18 6 45 6 60 l2 26 4 -26 c2 -15 -1 -42 -6 -60z m-306 -85 c-2 -86 -6 -158 -9
-161 -2 -3 -14 0 -25 7 -14 7 -21 21 -21 41 0 33 -17 112 -30 144 -5 11 -12
34 -15 52 -7 35 0 42 60 60 22 6 41 11 42 12 1 1 0 -69 -2 -155z m-4648 130
c-3 -3 -12 -4 -19 -1 -8 3 -5 6 6 6 11 1 17 -2 13 -5z m-487 -19 c0 -8 -4 -15
-9 -15 -13 0 -22 16 -14 24 11 11 23 6 23 -9z m423 -18 c-4 -7 -7 -21 -5 -32
2 -20 2 -20 -7 0 -9 23 -3 57 10 49 5 -3 6 -11 2 -17z m67 -15 c-20 -7 -40 7
-34 23 6 14 9 14 26 -2 12 -10 15 -19 8 -21z m20 34 c0 -3 -4 -8 -10 -11 -5
-3 -10 -1 -10 4 0 6 5 11 10 11 6 0 10 -2 10 -4z m-123 -28 c-3 -8 -6 -5 -6 6
-1 11 2 17 5 13 3 -3 4 -12 1 -19z m-397 -17 c0 -4 -3 -11 -7 -14 -8 -9 -34
13 -28 24 6 9 35 1 35 -10z m390 -5 c0 -9 -32 -36 -42 -36 -6 0 0 9 13 20 25
21 29 23 29 16z m-367 -21 c-3 -9 -8 -14 -10 -11 -3 3 -2 9 2 15 9 16 15 13 8
-4z m-33 -30 c0 -3 -11 -5 -25 -5 -17 0 -23 4 -19 15 5 11 11 12 25 4 10 -5
19 -12 19 -14z m-20 -29 c0 -2 -7 -6 -15 -10 -8 -3 -15 -1 -15 4 0 6 7 10 15
10 8 0 15 -2 15 -4z m490 -60 c0 -12 -5 -7 -19 24 -11 24 -11 24 3 6 9 -11 16
-24 16 -30z m-406 12 c-3 -5 -17 -8 -30 -5 -13 2 -24 1 -24 -4 0 -4 -9 -7 -20
-6 -32 2 -17 22 17 22 17 0 35 3 39 7 10 11 26 -1 18 -14z m711 6 c6 -9 24
-16 40 -16 23 0 26 -3 14 -12 -8 -6 -15 -33 -17 -65 l-3 -55 21 26 c11 14 20
40 20 56 0 31 23 86 32 77 8 -8 -3 -55 -12 -50 -4 3 -7 -1 -7 -8 1 -6 -3 -40
-7 -73 -7 -52 -11 -61 -26 -57 -23 6 -60 -14 -60 -32 0 -8 -7 -15 -15 -15 -8
0 -15 7 -15 15 0 8 -5 15 -11 15 -5 0 -7 -5 -4 -11 12 -19 -79 1 -97 21 -9 11
-21 20 -26 20 -5 0 -15 7 -23 16 -10 13 -10 17 0 24 8 4 11 12 7 18 -7 11 9
25 32 28 46 7 18 45 -44 60 -45 11 -47 12 -14 12 19 1 64 5 100 10 96 14 102
13 115 -4z m182 10 c-3 -3 -12 -4 -19 -1 -8 3 -5 6 6 6 11 1 17 -2 13 -5z
m-426 -42 c-7 -2 -18 1 -23 6 -8 8 -4 9 13 5 13 -4 18 -8 10 -11z m3352 -211
c1 -13 -4 -26 -10 -28 -7 -3 -13 2 -13 10 0 20 -26 41 -35 27 -3 -5 -1 -10 4
-10 6 0 11 -16 11 -35 0 -78 -37 -18 -47 76 -5 51 -3 59 11 59 25 0 19 30 -6
32 -44 2 -48 3 -48 11 0 37 1 39 20 34 11 -3 20 -1 20 4 0 5 -4 9 -9 9 -8 0
-8 14 -1 40 3 12 102 -207 103 -229z m1567 193 c0 -8 4 -14 10 -14 5 0 7 -7 3
-16 -5 -13 -7 -13 -14 -2 -5 7 -9 9 -9 4 0 -6 -5 -5 -11 1 -13 13 -2 56 12 48
5 -4 9 -13 9 -21z m-266 -80 c10 -25 -1 -29 -14 -5 -6 12 -7 21 -1 21 5 0 12
-7 15 -16z m-22 -31 c26 -43 58 -111 58 -124 0 -5 -11 -9 -25 -9 -27 0 -58 38
-61 74 -1 12 -6 34 -13 49 -15 37 -14 47 3 47 8 0 25 -17 38 -37z m148 22 c8
-2 17 -4 20 -4 3 -1 -2 -6 -10 -11 -12 -7 -8 -11 17 -16 18 -4 30 -10 28 -15
-3 -4 -1 -10 4 -13 5 -4 12 2 14 11 4 16 5 17 6 1 3 -46 -79 -43 -96 3 -6 16
-17 28 -23 27 -7 -2 -14 5 -15 15 -3 15 1 18 18 12 12 -3 29 -8 37 -10z
m-3300 -67 c0 -10 -4 -18 -10 -18 -5 0 -10 13 -10 29 0 16 -2 38 -5 48 -3 10
1 5 9 -12 8 -16 15 -38 16 -47z m3410 62 c0 -5 -5 -10 -11 -10 -5 0 -7 5 -4
10 3 6 8 10 11 10 2 0 4 -4 4 -10z m-37 -17 c-7 -2 -19 -2 -25 0 -7 3 -2 5 12
5 14 0 19 -2 13 -5z m32 -33 c3 -5 1 -10 -4 -10 -6 0 -11 5 -11 10 0 6 2 10 4
10 3 0 8 -4 11 -10z m-4775 -30 c0 -11 -4 -20 -9 -20 -5 0 -11 9 -14 20 -3 13
0 20 9 20 8 0 14 -9 14 -20z m4435 -62 c4 -10 -1 -28 -9 -40 -11 -15 -16 -18
-16 -8 0 13 -2 13 -10 0 -7 -11 -10 4 -10 50 l0 65 20 -25 c11 -14 22 -33 25
-42z m-4280 17 c0 -18 -8 -20 -62 -23 -49 -2 -63 0 -63 11 0 20 37 34 85 33
33 -1 40 -4 40 -21z m4545 -20 c0 -1 -8 -5 -18 -7 -11 -3 -19 0 -19 7 0 7 8
10 19 7 10 -2 18 -6 18 -7z m-403 -197 c-3 -8 -6 -5 -6 6 -1 11 2 17 5 13 3
-3 4 -12 1 -19z m-2772 -8 c3 -5 1 -10 -4 -10 -6 0 -11 5 -11 10 0 6 2 10 4
10 3 0 8 -4 11 -10z m-5 -29 c0 -5 -7 -14 -15 -21 -10 -9 -15 -9 -15 -1 0 6 5
11 11 11 5 0 7 5 4 10 -3 6 -1 10 4 10 6 0 11 -4 11 -9z m1762 -144 c8 -15 7
-18 -3 -11 -8 4 -4 -5 9 -20 12 -16 22 -34 22 -40 0 -6 -7 0 -16 12 -8 12 -23
22 -33 22 -13 0 -18 10 -20 42 -2 37 0 40 14 28 9 -7 21 -22 27 -33z m-1811
-20 c-18 -18 -25 1 -11 30 l14 28 4 -24 c2 -13 -1 -28 -7 -34z m196 -11 c7 -6
-11 -46 -21 -46 -14 0 -46 36 -46 51 0 8 56 4 67 -5z m1646 -73 c-4 -11 -3
-14 5 -9 8 4 12 0 12 -11 0 -16 -1 -16 -16 -1 -9 9 -13 21 -10 27 11 17 16 13
9 -6z m-1858 -3 c3 -5 12 -7 20 -3 17 6 19 -5 5 -27 -8 -12 -12 -12 -18 -2 -5
7 -16 10 -25 6 -19 -7 -20 -4 -11 20 7 18 20 21 29 6z m1810 -10 c3 -5 1 -10
-4 -10 -6 0 -11 5 -11 10 0 6 2 10 4 10 3 0 8 -4 11 -10z m369 -22 c12 3 17
-1 13 -10 -2 -7 -9 -12 -15 -11 -10 2 -42 -55 -42 -75 0 -5 -7 -15 -15 -22
-10 -9 -15 -9 -15 -1 0 6 -6 10 -12 9 -7 -2 -12 2 -11 8 1 5 -12 9 -30 8 -33
-2 -49 10 -40 32 4 10 10 11 23 4 22 -12 40 -13 39 -2 -3 20 3 30 26 40 20 9
27 8 41 -6 17 -16 17 -16 12 3 -3 11 -9 29 -13 40 -6 19 -6 19 7 0 8 -12 21
-19 32 -17z m-2084 11 c0 -6 -7 -17 -15 -25 -9 -9 -15 -11 -15 -4 0 6 -4 8
-10 5 -11 -7 -12 -3 -5 17 6 16 45 22 45 7z m-385 -19 c3 -5 1 -10 -4 -10 -6
0 -11 5 -11 10 0 6 2 10 4 10 3 0 8 -4 11 -10z m465 -5 c7 -9 10 -18 6 -22 -3
-3 -6 -1 -6 5 0 6 -9 10 -20 9 -11 -1 -20 -4 -20 -7 0 -4 -7 -7 -15 -7 -18 0
-19 9 -3 25 17 17 43 15 58 -3z m1697 -27 c-3 -8 -6 -5 -6 6 -1 11 2 17 5 13
3 -3 4 -12 1 -19z m328 -87 c3 -5 1 -12 -5 -16 -5 -3 -10 1 -10 9 0 18 6 21
15 7z m50 0 c3 -5 1 -12 -5 -16 -5 -3 -10 1 -10 9 0 18 6 21 15 7z m-2878
-127 c-3 -3 -16 -4 -29 -2 l-23 5 25 10 c23 10 41 1 27 -13z"/>
<path d="M8938 5843 c7 -3 16 -2 19 1 4 3 -2 6 -13 5 -11 0 -14 -3 -6 -6z"/>
<path d="M9227 5839 c8 -8 16 -8 30 0 16 9 14 10 -11 11 -22 0 -27 -3 -19 -11z"/>
<path d="M9806 5371 c10 -10 21 -17 23 -15 6 6 -20 34 -32 34 -6 0 -2 -8 9
-19z"/>
<path d="M5038 4853 c12 -2 30 -2 40 0 9 3 -1 5 -23 4 -22 0 -30 -2 -17 -4z"/>
<path d="M5481 4631 c-9 -6 -11 -16 -7 -27 7 -18 8 -18 17 -1 14 23 8 39 -10
28z"/>
<path d="M5533 4618 c-29 -14 -36 -35 -22 -75 13 -40 21 -41 48 -7 38 48 20
103 -26 82z m-16 -50 c-3 -8 -6 -5 -6 6 -1 11 2 17 5 13 3 -3 4 -12 1 -19z"/>
<path d="M5435 4590 c5 -14 2 -20 -9 -20 -9 0 -16 -4 -16 -9 0 -4 12 -8 27 -7
31 1 45 32 21 47 -22 14 -30 10 -23 -11z"/>
<path d="M5611 4583 c0 -6 -4 -20 -7 -30 -5 -14 -4 -15 5 -7 7 7 11 20 8 30
-3 11 -5 14 -6 7z"/>
<path d="M7845 4460 c28 -12 37 -12 30 0 -3 6 -16 10 -28 9 -21 0 -21 -1 -2
-9z"/>
<path d="M7915 4460 c-3 -6 1 -7 9 -4 18 7 21 14 7 14 -6 0 -13 -4 -16 -10z"/>
<path d="M5710 4388 c0 -7 5 -20 10 -28 8 -12 10 -9 10 13 0 15 -4 27 -10 27
-5 0 -10 -6 -10 -12z"/>
<path d="M6748 4380 c-20 -11 -46 -33 -58 -50 -11 -16 -24 -29 -28 -27 -4 1
-23 -8 -43 -19 -25 -15 -38 -31 -42 -54 -4 -17 -29 -78 -56 -133 -80 -168 -79
-159 -34 -251 24 -50 45 -80 56 -82 9 -1 17 2 17 8 0 23 34 0 47 -32 13 -35
13 -34 7 20 -3 30 -10 71 -16 90 -5 19 -8 51 -6 70 4 35 4 35 15 10 l12 -25 0
23 c1 13 5 20 11 17 6 -3 10 1 10 9 0 24 19 19 45 -11 13 -16 35 -41 49 -58
l27 -30 -7 40 c-10 57 -58 168 -95 220 -26 35 -30 49 -24 72 l8 28 7 -34 c11
-48 38 -80 99 -114 42 -24 66 -30 122 -32 64 -2 69 0 70 19 0 15 2 17 6 6 4
-8 13 -20 22 -27 14 -10 14 -15 -4 -48 -11 -21 -25 -40 -33 -42 -9 -4 -7 -10
8 -20 16 -11 18 -18 10 -28 -8 -9 -4 -17 16 -30 25 -16 26 -16 20 3 -7 21 14
35 38 26 19 -7 30 14 17 30 -13 15 -5 26 20 26 34 0 29 18 -16 51 -48 37 -61
57 -46 72 13 13 -22 82 -44 91 -9 3 -29 4 -43 1 l-27 -5 28 12 c18 8 27 19 27
34 0 33 -18 39 -26 9 -3 -14 -11 -25 -16 -25 -10 0 -8 17 8 54 7 18 5 17 -14
-2 -25 -25 -69 -39 -83 -25 -17 17 -13 100 8 142 l20 41 -26 0 c-14 -1 -43
-10 -63 -20z"/>
<path d="M6168 4339 c3 -37 2 -50 -7 -45 -6 4 -11 2 -11 -3 0 -18 18 -13 29 8
9 16 -2 91 -13 91 -2 0 -1 -23 2 -51z"/>
<path d="M6960 4351 c0 -11 5 -23 10 -26 6 -4 10 5 10 19 0 14 -4 26 -10 26
-5 0 -10 -9 -10 -19z"/>
<path d="M4035 4289 c-11 -17 1 -21 15 -4 8 9 8 15 2 15 -6 0 -14 -5 -17 -11z"/>
<path d="M4074 4279 c-11 -18 6 -29 27 -18 12 6 18 13 15 17 -11 10 -36 11
-42 1z"/>
<path d="M6173 4266 c-9 -11 -8 -18 3 -32 15 -18 15 -18 11 4 -3 12 -1 22 4
22 5 0 9 -5 9 -12 0 -6 2 -9 5 -6 7 6 -5 38 -14 38 -3 -1 -11 -7 -18 -14z"/>
<path d="M6946 4264 c-8 -21 2 -33 14 -15 6 11 11 9 21 -8 16 -25 34 -27 43
-6 10 26 -3 41 -38 43 -24 2 -36 -3 -40 -14z"/>
<path d="M6132 4241 c16 -25 31 -27 26 -4 -2 10 -11 19 -21 21 -16 3 -17 1 -5
-17z"/>
<path d="M3896 4225 c-3 -9 -6 -26 -5 -38 1 -14 4 -9 9 13 9 37 7 52 -4 25z"/>
<path d="M6065 4230 c-3 -5 -1 -10 4 -10 6 0 11 5 11 10 0 6 -2 10 -4 10 -3 0
-8 -4 -11 -10z"/>
<path d="M7041 4224 c0 -11 3 -14 6 -6 3 7 2 16 -1 19 -3 4 -6 -2 -5 -13z"/>
<path d="M7080 4210 c-6 -12 -9 -24 -7 -27 3 -2 11 5 17 17 6 12 9 24 7 27 -3
2 -11 -5 -17 -17z"/>
<path d="M4081 4204 c-20 -23 -9 -25 18 -3 13 11 17 19 10 19 -8 -1 -20 -8
-28 -16z"/>
<path d="M3977 4203 c-4 -3 -7 -11 -7 -17 0 -6 5 -5 12 2 6 6 9 14 7 17 -3 3
-9 2 -12 -2z"/>
<path d="M4126 4184 c-9 -23 -7 -54 2 -54 7 0 32 42 32 54 0 13 -29 12 -34 0z"/>
<path d="M6260 4193 c0 -5 9 -18 20 -28 11 -10 20 -14 20 -8 0 5 -9 18 -20 28
-11 10 -20 14 -20 8z"/>
<path d="M4000 4160 c-8 -15 -9 -25 -1 -33 7 -7 12 -2 17 17 8 35 -1 44 -16
16z"/>
<path d="M6250 4152 c0 -12 19 -26 26 -19 2 2 -2 10 -11 17 -9 8 -15 8 -15 2z"/>
<path d="M3900 4099 c-1 -16 23 -69 31 -69 4 0 6 -6 3 -13 -2 -7 2 -29 10 -48
17 -38 22 -25 6 16 -9 23 -8 25 10 15 10 -5 25 -19 33 -30 9 -13 20 -18 31
-14 17 7 22 24 7 24 -5 0 -11 9 -13 21 -2 13 -21 31 -48 46 -24 14 -50 33 -57
42 -7 9 -13 13 -13 10z"/>
<path d="M7408 4033 c10 -20 8 -109 -2 -163 -7 -35 -7 -35 8 -10 9 15 15 51
16 92 0 70 -6 98 -21 98 -6 0 -6 -7 -1 -17z"/>
<path d="M8084 4012 c-33 -10 -73 -44 -95 -79 -11 -18 -28 -35 -39 -38 -28 -9
-50 -65 -70 -183 -10 -59 -22 -116 -26 -127 -4 -12 10 -3 35 23 22 24 45 41
50 37 16 -10 51 46 51 82 l0 34 28 -18 c39 -27 100 -53 121 -53 10 0 24 -7 31
-15 10 -12 16 -13 27 -4 10 9 12 9 8 -2 -3 -8 -20 -24 -37 -36 l-32 -22 40 4
c21 2 57 4 79 5 l40 1 -27 24 c-16 13 -28 26 -28 29 0 3 19 6 43 8 l42 4 -28
12 c-15 6 -37 21 -49 32 -12 11 -25 20 -29 20 -4 0 -5 8 -2 19 3 10 0 22 -6
25 -5 4 -8 13 -4 21 6 18 -8 20 -26 3 -11 -11 -13 -9 -8 11 4 18 3 21 -6 12
-6 -6 -18 -11 -27 -11 -19 0 -50 50 -50 82 0 27 35 88 50 88 6 0 8 5 5 10 -7
11 -28 12 -61 2z"/>
<path d="M4150 3999 c0 -5 11 -9 25 -9 14 0 25 2 25 4 0 2 -11 6 -25 8 -14 3
-25 1 -25 -3z"/>
<path d="M4118 3975 c-3 -16 -1 -25 7 -25 7 0 12 11 11 25 -1 32 -12 32 -18 0z"/>
<path d="M3120 3933 c-30 -20 -40 -33 -40 -53 0 -9 6 -6 16 9 9 13 35 32 58
42 35 16 37 19 16 19 -14 0 -37 -8 -50 -17z"/>
<path d="M3965 3889 c-4 -6 -5 -12 -2 -15 2 -3 7 2 10 11 7 17 1 20 -8 4z"/>
<path d="M7006 3875 c4 -8 8 -15 10 -15 2 0 4 7 4 15 0 8 -4 15 -10 15 -5 0
-7 -7 -4 -15z"/>
<path d="M3230 3870 c-8 -5 -11 -13 -6 -17 5 -4 11 -2 13 5 4 10 8 10 21 0 13
-11 14 -11 11 1 -7 19 -20 23 -39 11z"/>
<path d="M8230 3856 c-7 -10 -3 -16 16 -24 33 -16 34 -15 34 7 0 22 -35 34
-50 17z"/>
<path d="M3071 3828 c-1 -20 3 -39 8 -43 5 -3 -2 -33 -15 -68 -16 -39 -23 -74
-20 -93 2 -18 -2 -50 -10 -72 -19 -57 -24 -283 -6 -290 10 -3 12 4 5 34 -4 22
-8 55 -8 74 1 103 27 201 45 169 10 -18 27 -96 48 -225 9 -56 24 -109 32 -119
8 -9 15 -22 16 -29 1 -6 9 -26 17 -45 14 -32 15 -33 22 -12 4 12 4 25 1 28 -3
3 1 12 9 20 8 8 15 23 15 33 0 11 8 24 18 29 15 9 15 12 2 21 -13 8 -13 10 3
10 9 0 17 5 17 11 0 5 -10 9 -22 7 -19 -2 -23 2 -23 25 -1 15 -9 35 -18 44
-16 16 -18 16 -32 -2 -11 -14 -14 -33 -10 -62 4 -25 2 -43 -3 -43 -14 0 -20
21 -27 92 -3 35 -8 78 -11 96 l-5 34 61 -62 c43 -44 62 -57 66 -46 3 8 0 24
-6 36 -20 37 -4 33 19 -5 11 -19 28 -38 37 -42 17 -6 34 12 34 37 0 13 -1 13
-10 0 -8 -13 -10 -12 -10 3 0 9 -7 17 -16 17 -8 0 -12 5 -9 10 3 6 0 10 -7 10
-10 0 -10 2 0 8 9 7 8 21 -8 67 -21 61 -27 108 -9 70 8 -16 8 -15 4 9 -8 37
-34 76 -51 76 -8 0 -26 19 -41 43 -15 23 -39 56 -55 72 -15 17 -32 48 -37 70
l-9 40 -1 -37z m188 -378 c11 -24 11 -24 -3 -6 -9 11 -16 24 -16 30 0 12 5 7
19 -24z m-69 -150 c0 -5 -4 -10 -10 -10 -5 0 -10 5 -10 10 0 6 5 10 10 10 6 0
10 -4 10 -10z m7 -52 c-3 -8 -6 -5 -6 6 -1 11 2 17 5 13 3 -3 4 -12 1 -19z
m15 -47 c2 -17 1 -28 -4 -25 -8 5 -12 54 -4 54 2 0 6 -13 8 -29z"/>
<path d="M3147 3802 c-19 -20 -22 -32 -9 -32 5 0 14 11 20 25 14 30 11 31 -11
7z"/>
<path d="M3222 3798 c-7 -7 -12 -16 -12 -21 0 -5 7 -1 16 8 9 9 14 18 12 20
-2 3 -10 -1 -16 -7z"/>
<path d="M8325 3790 c-3 -5 -1 -10 4 -10 6 0 11 5 11 10 0 6 -2 10 -4 10 -3 0
-8 -4 -11 -10z"/>
<path d="M4162 3770 c0 -14 2 -19 5 -12 2 6 2 18 0 25 -3 6 -5 1 -5 -13z"/>
<path d="M4515 3780 c-3 -5 -1 -10 4 -10 6 0 11 5 11 10 0 6 -2 10 -4 10 -3 0
-8 -4 -11 -10z"/>
<path d="M3965 3747 c-4 -16 -5 -46 -2 -68 3 -21 2 -37 -3 -34 -4 2 -5 -7 -2
-21 3 -19 7 -22 13 -12 6 8 9 -6 9 -37 0 -36 -3 -46 -10 -35 -8 12 -10 10 -11
-10 -1 -22 -2 -23 -7 -5 -9 25 -50 29 -71 7 -35 -34 -80 -118 -91 -172 -7 -32
-9 -33 -15 -12 -4 12 -10 22 -14 22 -15 0 -79 -88 -86 -118 -3 -18 -11 -32
-17 -32 -6 0 -7 8 -3 18 5 14 4 15 -7 4 -10 -10 -9 -20 8 -55 12 -23 27 -61
33 -84 7 -24 23 -55 37 -70 23 -26 25 -26 19 -5 -6 21 -13 64 -14 90 -1 6 -10
12 -21 12 -28 0 -23 45 7 61 29 16 25 33 -10 37 -34 4 -35 20 -1 32 38 15 81
12 88 -5 8 -22 21 -18 36 10 11 21 19 25 42 20 15 -4 28 -2 28 3 0 5 22 33 49
61 l50 52 16 -30 c8 -17 17 -31 19 -31 1 0 -1 26 -5 57 -4 32 -6 59 -3 62 2 2
4 -1 4 -7 0 -7 5 -12 10 -12 7 0 7 7 0 20 -8 14 -8 31 0 58 13 47 13 55 -2 46
-6 -4 -8 -3 -5 3 4 6 4 46 0 88 l-6 78 -15 -37 c-17 -42 -34 -48 -26 -8 2 15
1 41 -4 57 l-9 30 -8 -28z m17 -259 c-8 -8 -9 -4 -5 13 4 13 8 18 11 10 2 -7
-1 -18 -6 -23z"/>
<path d="M8548 3723 c7 -3 16 -2 19 1 4 3 -2 6 -13 5 -11 0 -14 -3 -6 -6z"/>
<path d="M3290 3700 c-27 -27 -26 -44 3 -36 12 3 29 6 37 6 11 1 10 4 -4 15
-11 8 -14 15 -8 15 7 0 12 5 12 10 0 16 -18 12 -40 -10z"/>
<path d="M4600 3611 c-10 -20 -4 -51 10 -51 16 0 31 30 25 50 -8 25 -21 26
-35 1z m30 -21 c0 -5 -2 -10 -4 -10 -3 0 -8 5 -11 10 -3 6 -1 10 4 10 6 0 11
-4 11 -10z"/>
<path d="M4315 3599 c-4 -6 -5 -12 -2 -15 2 -3 7 2 10 11 7 17 1 20 -8 4z"/>
<path d="M8184 3531 c17 -18 34 -27 44 -24 11 5 13 3 7 -7 -5 -9 -4 -11 4 -6
16 10 7 21 -29 36 -16 7 -30 16 -30 21 0 5 -5 9 -12 9 -6 0 1 -13 16 -29z"/>
<path d="M4560 3511 c0 -5 5 -11 11 -13 7 -2 5 -13 -4 -31 -8 -16 -12 -38 -9
-50 4 -15 7 -17 10 -7 3 8 13 26 23 39 24 31 24 35 -6 55 -14 9 -25 12 -25 7z"/>
<path d="M4692 3490 c0 -19 2 -27 5 -17 2 9 2 25 0 35 -3 9 -5 1 -5 -18z"/>
<path d="M8711 3494 c0 -11 3 -14 6 -6 3 7 2 16 -1 19 -3 4 -6 -2 -5 -13z"/>
<path d="M4140 3496 c0 -2 8 -10 18 -17 15 -13 16 -12 3 4 -13 16 -21 21 -21
13z"/>
<path d="M3064 3445 c2 -22 2 -34 -1 -27 -10 25 -23 11 -22 -25 1 -22 3 -29 6
-19 8 31 37 -50 36 -101 0 -24 3 -43 8 -43 4 0 10 -10 13 -22 3 -13 3 24 1 82
-2 81 -8 115 -24 150 l-21 45 4 -40z m23 -102 c-3 -10 -5 -2 -5 17 0 19 2 27
5 18 2 -10 2 -26 0 -35z"/>
<path d="M4671 3464 c0 -11 3 -14 6 -6 3 7 2 16 -1 19 -3 4 -6 -2 -5 -13z"/>
<path d="M4409 3418 c-5 -24 -3 -28 17 -28 29 0 38 14 19 30 -9 8 -15 8 -15 2
0 -6 6 -13 13 -15 7 -3 6 -6 -5 -6 -10 -1 -18 8 -20 22 -3 20 -4 20 -9 -5z"/>
<path d="M4938 3363 c2 -38 -1 -108 -6 -158 -5 -51 -6 -94 -1 -100 5 -5 9 8 9
32 0 22 3 55 6 72 6 28 10 31 46 31 66 0 78 -12 78 -80 l0 -60 50 0 50 0 -1
113 c-1 61 -4 99 -6 83 l-5 -28 -21 20 c-12 12 -25 21 -29 21 -5 1 -11 1 -15
2 -5 0 1 4 12 9 16 7 17 9 3 9 -13 1 -16 10 -14 51 1 28 -2 50 -6 50 -4 0 -8
-24 -8 -54 0 -30 -3 -56 -7 -59 -5 -2 -34 -1 -65 1 l-58 4 0 54 c0 30 -3 54
-7 54 -5 0 -7 -30 -5 -67z"/>
<path d="M5118 3423 c6 -2 18 -2 25 0 6 3 1 5 -13 5 -14 0 -19 -2 -12 -5z"/>
<path d="M5160 3420 c0 -5 5 -10 11 -10 5 0 7 5 4 10 -3 6 -8 10 -11 10 -2 0
-4 -4 -4 -10z"/>
<path d="M6503 3405 c4 -9 2 -24 -4 -31 -12 -15 -5 -44 11 -44 14 0 13 77 -2
86 -8 5 -9 2 -5 -11z"/>
<path d="M4900 3391 c0 -10 -5 -21 -12 -23 -7 -3 -4 -7 7 -12 11 -4 16 -4 13
0 -4 4 -3 15 2 25 7 12 7 20 0 24 -5 3 -10 -3 -10 -14z"/>
<path d="M5320 3389 c-7 -11 -10 -23 -7 -25 2 -2 9 7 15 21 14 30 7 33 -8 4z"/>
<path d="M6455 3403 c11 -3 24 -10 28 -17 6 -7 7 -6 4 4 -2 8 -14 16 -28 17
-19 1 -20 1 -4 -4z"/>
<path d="M8720 3399 c0 -7 -9 -32 -21 -56 -14 -29 -19 -52 -14 -72 5 -25 54
-104 95 -154 32 -40 128 -166 142 -187 9 -14 25 -35 36 -47 12 -11 23 -34 25
-50 2 -19 13 -32 33 -42 16 -8 32 -18 35 -24 4 -5 15 -5 28 2 28 15 28 57 0
66 -15 5 -20 13 -16 30 2 15 -1 26 -9 29 -8 3 -14 0 -14 -6 0 -6 -3 -8 -6 -5
-4 4 -2 12 4 20 8 10 6 16 -8 24 -11 8 -17 21 -16 36 2 20 -1 23 -16 19 -11
-2 -17 -10 -14 -18 3 -8 0 -11 -10 -7 -19 7 -18 20 4 32 16 10 15 10 -3 11
-17 0 -17 2 -5 10 11 7 6 10 -20 11 l-35 1 27 12 c26 11 26 12 8 24 -11 7 -27
12 -37 12 -15 0 -15 2 3 16 19 15 19 15 -1 11 -23 -5 -58 24 -37 31 20 6 13
20 -8 15 -15 -4 -20 0 -20 16 0 23 -15 29 -23 9 -3 -8 -6 -6 -6 5 -1 9 -5 17
-10 17 -5 0 -12 7 -15 16 -3 8 -2 12 4 9 20 -12 9 14 -15 36 -29 28 -30 36 -8
61 15 17 15 18 0 18 -12 0 -17 9 -17 30 0 19 -7 33 -20 40 -15 8 -20 8 -20 -1z"/>
<path d="M9282 3360 c0 -19 2 -27 5 -17 2 9 2 25 0 35 -3 9 -5 1 -5 -18z"/>
<path d="M4422 3368 c5 -15 28 -23 28 -10 0 5 -7 13 -16 16 -10 4 -14 1 -12
-6z"/>
<path d="M7695 3370 c3 -5 8 -10 11 -10 2 0 4 5 4 10 0 6 -5 10 -11 10 -5 0
-7 -4 -4 -10z"/>
<path d="M3352 3351 c2 -20 -4 -30 -17 -25 -9 4 -15 0 -15 -9 0 -10 -7 -13
-20 -10 -11 3 -18 9 -15 13 3 4 -2 10 -10 14 -8 3 -17 0 -21 -6 -4 -6 -3 -8 3
-5 5 3 22 -21 36 -53 15 -33 32 -62 37 -65 6 -3 10 -13 10 -21 0 -23 25 -45
37 -33 7 7 17 6 32 -2 16 -11 23 -11 33 -1 9 9 7 12 -11 12 -12 0 -20 4 -17 9
3 5 -15 30 -40 56 -25 25 -44 49 -41 52 3 2 15 -5 26 -16 23 -23 46 -27 57 -9
5 7 2 9 -9 5 -11 -4 -14 -2 -10 9 3 8 -1 14 -10 14 -20 0 -29 27 -11 34 21 8
17 33 -6 39 -10 3 -19 2 -18 -2z"/>
<path d="M4487 3339 c7 -7 15 -10 18 -7 3 3 -2 9 -12 12 -14 6 -15 5 -6 -5z"/>
<path d="M5315 3339 c-4 -6 -4 -13 -1 -16 3 -4 6 -1 6 6 0 7 5 9 12 5 7 -4 8
-3 4 4 -9 15 -13 15 -21 1z"/>
<path d="M4380 3330 c0 -5 5 -10 10 -10 6 0 10 5 10 10 0 6 -4 10 -10 10 -5 0
-10 -4 -10 -10z"/>
<path d="M7200 3330 c0 -6 4 -9 9 -6 5 4 12 1 14 -4 3 -6 4 -5 3 2 -3 15 -26
23 -26 8z"/>
<path d="M4190 3301 c19 -16 36 -28 39 -25 5 5 -23 28 -54 45 -11 6 -4 -3 15
-20z"/>
<path d="M4907 3323 c-4 -3 -7 -11 -7 -17 0 -6 5 -5 12 2 6 6 9 14 7 17 -3 3
-9 2 -12 -2z"/>
<path d="M4226 3301 c10 -10 21 -17 23 -15 6 6 -20 34 -32 34 -6 0 -2 -8 9
-19z"/>
<path d="M4480 3310 c0 -5 5 -10 10 -10 6 0 10 5 10 10 0 6 -4 10 -10 10 -5 0
-10 -4 -10 -10z"/>
<path d="M5326 3303 c-6 -14 -5 -15 5 -6 7 7 10 15 7 18 -3 3 -9 -2 -12 -12z"/>
<path d="M3420 3289 c0 -5 5 -7 10 -4 6 3 10 8 10 11 0 2 -4 4 -10 4 -5 0 -10
-5 -10 -11z"/>
<path d="M4895 3280 c-3 -5 1 -10 9 -10 9 0 16 5 16 10 0 6 -4 10 -9 10 -6 0
-13 -4 -16 -10z"/>
<path d="M3857 3273 c-4 -3 -7 -11 -7 -17 0 -6 5 -5 12 2 6 6 9 14 7 17 -3 3
-9 2 -12 -2z"/>
<path d="M4900 3241 c0 -25 6 -27 13 -6 4 8 2 17 -3 20 -6 4 -10 -3 -10 -14z"/>
<path d="M4308 3243 c7 -3 16 -2 19 1 4 3 -2 6 -13 5 -11 0 -14 -3 -6 -6z"/>
<path d="M4350 3235 c0 -8 4 -15 10 -15 5 0 7 7 4 15 -4 8 -8 15 -10 15 -2 0
-4 -7 -4 -15z"/>
<path d="M4370 3246 c0 -9 30 -14 35 -6 4 6 -3 10 -14 10 -12 0 -21 -2 -21 -4z"/>
<path d="M4641 3214 c0 -11 3 -14 6 -6 3 7 2 16 -1 19 -3 4 -6 -2 -5 -13z"/>
<path d="M2993 3195 c-3 -9 -3 -18 -1 -21 3 -3 8 4 11 16 6 23 -1 27 -10 5z"/>
<path d="M3040 3195 c0 -8 -9 -19 -20 -25 -11 -6 -20 -16 -20 -23 0 -8 4 -7
10 3 5 8 12 11 16 8 3 -4 -4 -21 -16 -38 -17 -24 -25 -29 -31 -18 -7 10 -9 10
-9 1 0 -7 -5 -13 -10 -13 -7 0 -7 6 0 20 6 12 7 20 1 20 -5 0 -12 -6 -15 -12
-5 -10 -7 -10 -12 0 -8 17 -27 15 -20 -3 3 -8 1 -15 -4 -15 -14 0 -50 -33 -50
-45 0 -6 -10 -22 -21 -34 -20 -21 -20 -23 -3 -17 10 3 25 2 32 -3 18 -11 -33
-25 -51 -14 -9 5 -9 4 0 -8 14 -18 7 -29 -30 -48 -15 -8 -24 -18 -19 -23 5 -5
7 -22 4 -38 -4 -29 -19 -49 -57 -75 -11 -7 -17 -16 -13 -20 20 -20 102 45 93
75 -4 12 4 26 25 44 18 14 36 26 41 26 5 0 8 6 7 13 -2 6 5 11 14 11 10 -1 16
1 13 5 -2 4 32 44 75 88 l80 81 -6 -39 c-4 -24 -3 -39 4 -39 16 0 22 27 22
101 0 55 -3 69 -15 69 -8 0 -15 -7 -15 -15z m-115 -124 c-3 -6 -11 -11 -17
-11 -6 0 -6 6 2 15 14 17 26 13 15 -4z m-5 -29 c0 -11 -41 -34 -48 -27 -4 4 2
13 12 21 22 15 36 18 36 6z"/>
<path d="M4900 3194 c0 -8 5 -12 10 -9 6 4 8 11 5 16 -9 14 -15 11 -15 -7z"/>
<path d="M2956 3183 c-4 -9 -2 -21 4 -27 7 -7 10 -2 10 17 0 31 -5 34 -14 10z"/>
<path d="M7880 3160 c0 -5 5 -10 10 -10 6 0 10 5 10 10 0 6 -4 10 -10 10 -5 0
-10 -4 -10 -10z"/>
<path d="M9282 3145 c0 -16 2 -22 5 -12 2 9 2 23 0 30 -3 6 -5 -1 -5 -18z"/>
<path d="M2910 3156 c0 -2 7 -7 16 -10 8 -3 12 -2 9 4 -6 10 -25 14 -25 6z"/>
<path d="M3410 3110 c0 -5 5 -10 10 -10 6 0 10 5 10 10 0 6 -4 10 -10 10 -5 0
-10 -4 -10 -10z"/>
<path d="M9304 3095 c-3 -13 -1 -37 4 -52 9 -25 10 -23 11 25 1 56 -5 67 -15
27z"/>
<path d="M3156 3094 c-8 -21 -8 -39 1 -30 8 7 15 46 9 46 -2 0 -7 -7 -10 -16z"/>
<path d="M9282 3030 c0 -14 2 -19 5 -12 2 6 2 18 0 25 -3 6 -5 1 -5 -13z"/>
<path d="M9313 2970 c0 -25 2 -35 4 -22 2 12 2 32 0 45 -2 12 -4 2 -4 -23z"/>
<path d="M7770 2980 c0 -5 5 -10 10 -10 6 0 10 5 10 10 0 6 -4 10 -10 10 -5 0
-10 -4 -10 -10z"/>
<path d="M7657 2816 c-11 -8 -14 -17 -8 -20 5 -4 15 3 21 14 13 23 11 24 -13
6z"/>
<path d="M2680 2810 c0 -5 7 -10 15 -10 8 0 15 5 15 10 0 6 -7 10 -15 10 -8 0
-15 -4 -15 -10z"/>
<path d="M9285 2770 c9 -29 -3 -60 -21 -53 -16 6 -46 -26 -38 -39 3 -5 -2 -8
-10 -8 -9 0 -16 5 -16 10 0 15 -27 12 -33 -4 -6 -14 31 -26 81 -26 16 0 34
-10 47 -26 16 -20 26 -25 43 -20 12 4 22 12 22 19 0 8 -3 8 -12 -1 -28 -28
-41 7 -14 37 15 17 11 71 -5 71 -5 0 -9 9 -9 20 0 11 5 20 10 20 6 0 10 5 10
10 0 6 -14 10 -31 10 -26 0 -29 -3 -24 -20z m35 -76 c0 -24 -4 -34 -12 -32
-24 8 -22 68 2 68 5 0 10 -16 10 -36z"/>
<path d="M9180 2710 c0 -5 5 -10 11 -10 5 0 7 5 4 10 -3 6 -8 10 -11 10 -2 0
-4 -4 -4 -10z"/>
<path d="M9323 2533 c21 -5 23 -29 2 -37 -19 -7 -21 -70 -2 -64 6 3 13 19 15
36 2 18 7 32 13 32 5 0 9 6 9 14 0 14 -22 27 -43 25 -7 -1 -4 -3 6 -6z"/>
<path d="M9362 2470 c0 -14 2 -19 5 -12 2 6 2 18 0 25 -3 6 -5 1 -5 -13z"/>
<path d="M1326 2455 c-3 -9 -5 -29 -5 -43 1 -20 3 -17 9 13 8 43 7 57 -4 30z"/>
<path d="M1351 2434 c0 -11 3 -14 6 -6 3 7 2 16 -1 19 -3 4 -6 -2 -5 -13z"/>
<path d="M9382 2350 c0 -14 2 -19 5 -12 2 6 2 18 0 25 -3 6 -5 1 -5 -13z"/>
<path d="M1311 2214 c0 -11 3 -14 6 -6 3 7 2 16 -1 19 -3 4 -6 -2 -5 -13z"/>
<path d="M7680 1250 c0 -6 7 -10 15 -10 8 0 15 2 15 4 0 2 -7 6 -15 10 -8 3
-15 1 -15 -4z"/>
<path d="M7150 860 c0 -5 7 -10 15 -10 8 0 15 5 15 10 0 6 -7 10 -15 10 -8 0
-15 -4 -15 -10z"/>
<path d="M3495 1593 c11 -3 26 -10 33 -15 8 -7 12 -7 12 0 0 12 -25 22 -48 21
-13 -1 -12 -3 3 -6z"/>
<path d="M3537 1533 c-4 -3 -7 -11 -7 -17 0 -6 5 -5 12 2 6 6 9 14 7 17 -3 3
-9 2 -12 -2z"/>
<path d="M8281 1554 c0 -11 3 -14 6 -6 3 7 2 16 -1 19 -3 4 -6 -2 -5 -13z"/>
<path d="M8161 1424 c0 -11 3 -14 6 -6 3 7 2 16 -1 19 -3 4 -6 -2 -5 -13z"/>
<path d="M8185 1420 c3 -5 8 -10 11 -10 2 0 4 5 4 10 0 6 -5 10 -11 10 -5 0
-7 -4 -4 -10z"/>
<path d="M5110 911 c0 -5 5 -13 10 -16 6 -3 10 -2 10 4 0 5 -4 13 -10 16 -5 3
-10 2 -10 -4z"/>
<path d="M6546 1443 c-4 -9 -1 -21 5 -27 9 -8 10 -7 6 5 -3 9 0 22 6 28 8 8 8
11 0 11 -6 0 -14 -8 -17 -17z"/>
<path d="M6531 1403 c0 -6 -4 -20 -7 -30 -5 -14 -4 -15 5 -7 7 7 11 20 8 30
-3 11 -5 14 -6 7z"/>
<path d="M5182 1010 c0 -14 2 -19 5 -12 2 6 2 18 0 25 -3 6 -5 1 -5 -13z"/>
<path d="M5194 975 c-4 -8 -3 -23 0 -32 4 -9 1 -20 -6 -24 -7 -4 -9 -11 -6
-14 4 -4 17 2 29 14 20 19 21 21 5 21 -14 0 -17 6 -14 25 6 28 1 33 -8 10z"/>
<path d="M5751 114 c0 -11 3 -14 6 -6 3 7 2 16 -1 19 -3 4 -6 -2 -5 -13z"/>
<path d="M6215 70 c3 -5 10 -10 16 -10 5 0 9 5 9 10 0 6 -7 10 -16 10 -8 0
-12 -4 -9 -10z"/>
<path d="M6122 52 c-7 -2 -12 -15 -12 -28 0 -21 4 -24 40 -24 35 0 40 3 40 24
0 18 -6 25 -28 28 -16 2 -34 2 -40 0z"/>
</g>
</svg>
