<?xml version="1.0" standalone="no"?>
<!DOCTYPE svg PUBLIC "-//W3C//DTD SVG 20010904//EN"
 "http://www.w3.org/TR/2001/REC-SVG-20010904/DTD/svg10.dtd">
<svg version="1.0" xmlns="http://www.w3.org/2000/svg"
 width="1280.000000pt" height="712.000000pt" viewBox="0 0 1280.000000 712.000000"
 preserveAspectRatio="xMidYMid meet">

<g transform="translate(0.000000,712.000000) scale(0.100000,-0.100000)"
fill="#000000" stroke="none">
<path d="M6734 5829 c-12 -4 -25 -12 -29 -18 -3 -6 -11 -11 -16 -11 -6 0 -8 4
-5 9 4 5 -3 7 -14 4 -11 -3 -20 -12 -20 -21 0 -8 -3 -13 -6 -9 -11 10 -38 -24
-39 -49 -1 -21 1 -22 15 -9 9 8 21 15 26 15 5 0 2 -5 -6 -10 -13 -8 -13 -10 2
-10 9 0 19 6 22 13 3 6 3 1 0 -13 -4 -18 2 -34 19 -52 18 -19 26 -43 31 -89
14 -123 17 -114 -33 -111 -35 3 -43 1 -38 -11 3 -8 0 -20 -6 -26 -8 -8 -7 -11
6 -11 9 0 17 -7 17 -15 0 -8 6 -15 13 -15 7 0 8 -3 2 -8 -19 -13 -13 -27 11
-27 13 0 24 5 24 11 0 7 7 15 16 18 14 5 15 4 4 -9 -15 -18 -2 -19 21 -2 9 7
14 18 11 26 -3 8 0 11 6 7 6 -4 10 1 9 12 0 11 -8 19 -17 18 -9 -1 -16 9 -18
28 -2 18 0 26 7 21 6 -3 11 1 11 9 0 9 5 16 11 16 5 0 7 -4 4 -10 -3 -5 1 -10
9 -10 9 0 16 5 16 10 0 6 4 10 10 10 5 0 7 -7 4 -15 -4 -8 -1 -15 5 -15 6 0
11 5 11 10 0 6 8 10 18 10 14 0 14 2 3 9 -11 7 -12 13 -3 23 6 8 13 26 16 41
2 15 7 31 11 37 3 5 -2 10 -12 11 -10 1 -4 6 14 11 23 8 34 18 38 39 4 16 11
29 16 29 6 0 7 -4 4 -10 -3 -6 1 -7 9 -4 10 4 16 1 16 -8 0 -8 12 -15 31 -16
27 -2 30 0 20 12 -9 11 -9 15 1 20 10 5 10 7 0 12 -6 3 -10 10 -7 14 9 14 -46
60 -103 86 -54 24 -103 34 -72 14 11 -7 7 -10 -17 -10 -20 0 -33 5 -33 13 0 8
-3 8 -9 -2 -8 -12 -10 -11 -12 1 -3 11 -10 13 -25 7z"/>
<path d="M4080 5819 c-64 -12 -185 -79 -195 -108 -3 -10 -16 -24 -30 -31 -19
-10 -22 -16 -13 -27 8 -10 8 -12 -4 -8 -10 4 -19 -4 -28 -24 -7 -17 -17 -31
-22 -31 -6 0 -5 7 2 15 9 10 9 15 1 15 -6 0 -11 -5 -11 -11 0 -5 -6 -7 -12 -3
-10 6 -10 5 -1 -8 11 -12 8 -20 -17 -47 -17 -17 -36 -31 -43 -32 -6 0 -1 -5
13 -11 14 -6 20 -12 13 -15 -7 -2 -10 -10 -7 -16 2 -7 -6 -17 -18 -22 -13 -6
-23 -15 -23 -22 0 -6 -3 -15 -7 -18 -4 -4 -2 -17 4 -29 18 -33 17 -59 -4 -86
-22 -28 -18 -87 8 -107 12 -9 13 -16 4 -32 -13 -26 -35 -27 -50 -3 -11 16 -11
16 -6 0 4 -14 0 -18 -18 -18 -37 0 -80 -19 -94 -40 -10 -17 -10 -20 5 -21 11
0 13 -3 5 -6 -8 -3 -11 -16 -6 -37 5 -30 1 -36 -44 -74 -44 -37 -50 -47 -54
-86 -2 -33 0 -42 9 -35 6 6 14 20 17 33 5 22 32 44 85 72 20 10 26 10 39 -3
13 -12 13 -21 5 -44 -10 -26 -10 -28 7 -19 25 14 27 13 33 -11 3 -12 10 -18
16 -14 6 3 11 4 11 2 0 -12 -57 -106 -62 -102 -3 3 -17 -13 -32 -35 -14 -22
-34 -40 -42 -40 -13 0 -11 7 10 34 31 41 20 55 -19 24 -27 -21 -92 -27 -137
-12 -22 7 -23 -9 -3 -29 8 -8 12 -17 9 -20 -3 -2 -2 -17 2 -32 4 -15 9 -23 13
-17 3 5 17 15 30 22 l24 12 -27 -34 c-33 -44 -35 -63 -3 -47 12 6 31 20 43 30
20 19 21 19 77 -18 32 -20 57 -42 57 -48 0 -6 -9 -21 -19 -32 -28 -29 -61 -94
-61 -118 0 -11 -4 -26 -9 -33 -8 -14 -21 61 -21 127 0 48 -20 28 -61 -62 -18
-40 -64 -132 -101 -206 -38 -74 -67 -140 -64 -148 6 -15 -35 -28 -59 -20 -8 4
-17 2 -20 -4 -4 -5 -3 -9 2 -8 4 1 15 0 23 -4 8 -3 22 -8 30 -11 8 -3 -3 -5
-26 -3 -22 1 -41 -2 -41 -8 -1 -5 -3 -27 -6 -47 -3 -21 -1 -40 4 -43 5 -4 9
14 9 40 0 31 4 45 12 43 14 -5 21 -215 7 -223 -5 -4 -9 -23 -9 -43 -1 -38 -22
-77 -43 -77 -17 -1 -10 -31 18 -87 l24 -48 -32 4 c-18 2 -38 4 -44 5 -7 0 -13
11 -13 24 0 18 -2 19 -10 7 -5 -8 -10 -10 -10 -4 0 5 5 15 11 21 12 12 3 53
-11 53 -5 0 -17 -11 -28 -25 -11 -13 -22 -21 -26 -18 -13 13 -5 -18 16 -62 24
-49 43 -57 54 -23 6 19 7 20 16 4 5 -10 7 -20 4 -23 -3 -4 -6 0 -6 8 0 11 -2
11 -10 -1 -12 -19 -13 -33 -1 -26 4 3 6 -5 3 -19 -4 -21 -7 -22 -23 -12 -11 7
-17 17 -15 23 3 7 -5 9 -19 6 -16 -3 -22 -9 -18 -20 4 -10 2 -13 -5 -8 -7 4
-12 2 -12 -3 0 -18 -17 -12 -46 14 -30 28 -44 25 -44 -9 0 -13 -7 -29 -16 -37
-9 -7 -14 -25 -13 -43 1 -17 -3 -44 -10 -60 -8 -21 -8 -32 -1 -42 8 -9 8 -18
1 -32 -6 -11 -10 -37 -10 -59 1 -21 -1 -50 -3 -65 -3 -16 -2 -28 3 -28 4 0 3
-14 -3 -32 -9 -24 -8 -33 0 -36 7 -2 12 -8 12 -13 0 -6 -3 -8 -7 -6 -5 3 -9
-10 -10 -29 -2 -19 1 -34 6 -34 5 0 7 -19 4 -42 -4 -27 -2 -39 4 -35 7 4 9 -9
5 -40 -3 -33 -2 -44 7 -39 14 9 14 5 1 -28 -10 -28 -3 -59 11 -50 5 3 4 -7 -1
-22 -11 -28 -4 -68 9 -59 5 2 6 -16 3 -42 -4 -40 -3 -45 11 -40 14 5 15 2 7
-19 -11 -28 -3 -74 12 -74 6 0 8 -10 4 -23 -8 -33 4 -69 20 -63 11 4 13 -1 8
-19 -7 -28 3 -78 14 -71 4 2 8 -9 9 -25 1 -16 18 -63 38 -104 19 -41 35 -82
35 -90 0 -9 -43 -78 -95 -154 -107 -157 -151 -238 -196 -366 -17 -49 -58 -147
-90 -216 -59 -126 -69 -153 -47 -131 7 7 23 12 37 12 25 -1 24 -2 -9 -19 -24
-13 -29 -20 -18 -22 14 -3 12 -12 -15 -56 -18 -29 -35 -53 -39 -53 -7 0 -23
41 -20 53 1 4 -11 10 -28 14 -22 4 -29 10 -26 22 15 52 17 83 7 77 -6 -4 -11
-19 -11 -33 0 -16 -7 -27 -20 -30 -11 -3 -17 -10 -13 -17 3 -6 3 -8 -2 -4 -4
4 -14 3 -21 -3 -8 -7 -14 -6 -20 2 -4 7 -3 9 3 6 5 -3 15 3 23 13 8 10 18 16
23 13 5 -3 6 4 2 16 -4 14 -1 23 9 27 9 3 16 15 16 26 0 10 4 17 9 14 5 -3 12
5 15 18 3 13 8 32 11 43 3 10 -1 5 -9 -12 -8 -16 -15 -23 -15 -15 -1 19 15 45
29 46 5 1 21 2 34 3 28 1 66 46 92 106 15 36 15 38 0 26 -14 -12 -16 -12 -11
2 4 8 2 18 -4 22 -6 3 -11 1 -11 -4 0 -10 -10 -24 -47 -66 -10 -12 -14 -15
-10 -8 5 6 6 17 3 22 -4 5 2 16 12 23 10 7 22 20 27 27 5 9 -5 6 -22 -7 -34
-24 -43 -21 -43 17 l-1 26 -15 -28 c-8 -15 -13 -31 -10 -35 3 -4 0 -14 -6 -22
-8 -12 -9 -11 -4 4 5 14 2 17 -10 12 -14 -5 -15 -4 -5 8 13 16 51 143 50 166
0 8 -7 -7 -14 -35 -8 -27 -18 -51 -24 -53 -5 -2 -7 -11 -4 -21 2 -9 -3 -24
-13 -32 -16 -13 -16 -12 -6 6 8 16 6 29 -7 58 -16 34 -18 35 -33 21 -18 -18
-38 -11 -38 12 0 17 12 18 28 2 13 -13 14 -13 16 59 1 43 -1 50 -13 40 -8 -7
-4 2 9 20 21 29 22 35 10 64 -8 18 -16 27 -18 21 -2 -7 -9 -12 -14 -12 -6 0
-8 3 -5 7 4 3 2 13 -5 20 -9 11 -9 16 0 22 8 4 10 15 6 26 -7 16 -8 16 -16 -6
-7 -19 -11 -21 -18 -9 -5 8 -10 11 -10 7 0 -5 -7 -1 -16 7 -22 22 -33 20 -27
-6 4 -22 4 -22 -8 -3 -7 11 -18 24 -26 28 -7 4 -13 15 -13 22 0 8 -5 15 -10
15 -7 0 -7 -6 0 -20 9 -16 8 -20 -6 -20 -13 0 -14 -3 -4 -15 7 -9 8 -15 2 -15
-11 0 -27 30 -31 59 -2 18 -33 41 -54 41 -13 0 -17 -3 -11 -8 21 -13 35 -50
23 -58 -12 -7 -31 15 -23 28 3 4 -2 8 -10 8 -21 0 -56 40 -56 63 0 16 -5 19
-30 13 -22 -4 -30 -2 -30 9 0 9 -9 15 -21 15 -11 0 -32 9 -46 19 -14 12 -31
17 -41 14 -15 -6 -15 -5 -3 10 15 19 1 23 -17 5 -9 -9 -12 -9 -12 3 0 22 -36
53 -54 46 -28 -11 -48 95 -28 144 6 15 8 30 5 33 -4 3 4 17 16 30 13 14 21 31
18 38 -7 21 29 83 57 96 26 11 33 26 19 35 -5 2 -2 2 5 1 6 -2 12 4 12 12 0 8
5 12 10 9 6 -3 10 1 10 10 0 9 6 23 13 30 31 36 39 47 49 75 5 17 15 30 20 30
6 0 5 -6 -2 -15 -10 -12 -9 -16 6 -21 11 -4 22 -9 26 -11 4 -2 17 29 28 69 12
40 31 88 43 107 14 23 21 50 20 82 -1 45 3 51 48 94 63 60 75 84 82 170 3 39
13 87 21 107 24 57 21 111 -10 147 -14 17 -32 31 -40 31 -8 0 1 14 21 31 20
18 41 41 47 53 l11 21 -23 -20 -24 -20 20 26 c10 15 22 25 26 22 4 -2 5 4 1
13 -5 13 -3 15 7 9 9 -5 11 -4 6 4 -4 6 -3 17 2 24 5 7 19 44 32 82 12 39 27
75 33 80 7 7 8 4 4 -7 -9 -25 0 -22 14 3 8 15 8 19 0 15 -17 -11 -13 1 14 44
32 51 61 132 70 194 10 70 13 76 49 76 30 0 34 -4 51 -52 19 -53 21 -59 24
-77 0 -5 44 -53 96 -106 75 -76 105 -100 140 -111 43 -13 45 -12 45 8 0 12 16
49 35 84 19 34 33 68 30 76 -3 7 -1 33 3 58 9 51 -3 103 -69 313 -23 71 -39
131 -35 134 13 13 58 -11 127 -68 41 -34 82 -71 91 -83 17 -20 17 -21 31 -2
12 16 11 24 -4 56 -10 20 -21 50 -24 66 l-7 29 22 -25 c12 -14 19 -19 15 -12
-3 6 -1 12 4 12 6 0 11 7 11 15 0 10 10 15 29 15 20 0 34 8 46 26 9 14 19 23
22 20 3 -3 1 -11 -4 -18 -5 -7 -17 -31 -26 -54 -8 -22 -31 -67 -51 -100 -35
-58 -46 -107 -26 -119 6 -3 10 -3 10 2 0 4 15 18 34 31 58 39 132 208 87 200
-9 -2 -28 -26 -43 -53 -38 -68 -35 -39 2 36 19 36 29 68 25 79 -3 11 -2 27 3
37 7 12 5 24 -5 39 -13 21 -13 22 7 17 24 -7 40 10 39 42 0 11 -3 14 -6 7 -2
-6 -9 -9 -14 -6 -6 3 -18 -1 -28 -10 -15 -14 -20 -14 -29 -3 -9 10 -1 20 31
46 23 18 48 36 56 41 7 4 11 12 7 18 -7 12 -47 -2 -131 -45 -33 -16 -78 -36
-100 -43 -22 -7 -53 -21 -69 -31 -27 -17 -30 -17 -66 2 -36 19 -38 22 -30 51
5 16 13 35 18 41 16 20 82 189 77 198 -3 4 0 9 7 11 8 3 8 9 1 23 -10 16 -14
12 -38 -36 -46 -89 -55 -101 -72 -87 -9 8 -12 20 -7 37 3 14 8 40 10 56 2 17
11 56 19 88 14 56 13 77 -4 77 -4 0 -13 -19 -20 -42 -27 -93 -54 -159 -65
-155 -7 2 -12 43 -13 113 -2 149 -2 149 -11 138 -11 -12 -32 -131 -32 -182 0
-41 -14 -62 -31 -45 -5 5 -10 50 -10 99 -1 94 -11 132 -28 104 -11 -16 -24
-142 -20 -185 6 -55 -10 -110 -38 -127 -31 -19 -108 -6 -132 22 -9 10 -28 21
-42 24 -21 5 -28 2 -32 -14 -5 -21 -27 -28 -27 -9 0 5 -5 7 -10 4 -16 -10 -71
5 -63 18 4 7 0 8 -12 3 -10 -3 -27 0 -40 8 -12 8 -38 18 -58 21 -20 4 -43 16
-53 26 -18 19 -45 25 -58 12 -4 -5 -12 -8 -18 -8 -6 0 -15 -9 -21 -20 -6 -11
-14 -27 -19 -35 -5 -8 -14 -27 -21 -43 -10 -24 -15 -26 -43 -21 -24 4 -34 2
-42 -11 -8 -15 -12 -14 -31 14 -21 29 -25 30 -74 26 -89 -8 -91 -7 -120 29
l-28 35 -50 -52 c-27 -28 -49 -56 -49 -61 0 -5 -23 -60 -51 -123 -47 -104 -54
-113 -79 -113 -31 0 -45 -13 -53 -50 -20 -90 -70 -267 -78 -276 -5 -6 -19 -55
-30 -108 -11 -54 -31 -127 -45 -162 -13 -35 -24 -73 -24 -83 0 -10 -7 -32 -16
-49 -8 -17 -19 -69 -24 -114 -5 -46 -16 -103 -24 -127 -21 -58 -21 -131 -1
-131 11 0 15 11 15 38 0 20 16 86 35 146 40 125 39 121 22 110 -7 -5 -5 -2 5
8 10 9 18 26 18 38 0 19 -2 20 -15 10 -8 -7 -15 -8 -15 -2 0 13 25 33 33 27 4
-3 5 -2 2 2 -3 3 1 13 8 22 7 9 19 41 26 71 8 30 16 59 19 65 3 5 7 19 8 30 5
46 145 375 160 375 5 0 -37 -113 -47 -125 -16 -21 -70 -186 -134 -410 -36
-126 -73 -248 -81 -269 -8 -22 -19 -67 -23 -100 -5 -34 -18 -84 -28 -112 -11
-28 -23 -66 -27 -85 -13 -72 -15 -81 -27 -117 -18 -55 -41 -111 -34 -82 9 38
16 82 16 109 1 18 3 21 10 10 7 -11 9 -10 10 6 0 11 4 46 8 78 4 31 5 57 1 57
-6 0 -45 -122 -71 -223 -9 -37 -26 -86 -38 -109 -11 -23 -19 -43 -18 -44 1 -1
23 -5 49 -8 l48 -7 0 35 c0 24 4 34 12 32 7 -3 25 -7 39 -10 15 -3 34 -17 43
-31 15 -23 15 -24 -1 -18 -12 5 -15 2 -10 -9 3 -9 0 -19 -7 -21 -8 -3 -11 -17
-8 -36 2 -17 8 -28 13 -25 5 3 7 10 4 15 -4 5 -2 9 3 9 6 0 13 -7 16 -16 6
-16 -15 -44 -32 -44 -6 0 -9 -8 -7 -17 1 -10 -1 -23 -6 -29 -13 -17 -18 -107
-6 -129 5 -10 14 -46 18 -80 4 -33 13 -82 19 -110 6 -27 13 -76 15 -108 3 -32
10 -67 15 -78 10 -18 12 -18 27 -3 9 8 40 33 68 54 33 24 55 49 59 66 4 16 18
39 32 52 13 14 24 34 24 45 0 11 6 28 14 36 22 26 44 104 38 139 -4 27 0 33
22 42 14 5 26 17 26 26 0 10 -5 14 -15 10 -13 -4 -14 -2 -5 14 6 11 15 20 20
20 6 0 29 18 51 40 47 45 57 48 90 20 19 -15 20 -19 8 -20 -23 0 -44 -26 -27
-33 10 -4 10 -6 1 -6 -7 -1 -13 -7 -13 -15 0 -8 -11 -23 -25 -34 -13 -11 -22
-22 -18 -25 14 -15 -20 -36 -48 -30 -30 6 -42 -13 -14 -23 11 -5 12 -9 2 -20
-30 -33 -37 -44 -30 -44 4 0 2 -5 -5 -12 -7 -7 -12 -23 -12 -36 0 -13 -4 -21
-9 -18 -5 3 -14 -9 -22 -27 -7 -17 -28 -47 -47 -65 -39 -36 -37 -54 2 -28 24
15 25 15 19 -1 -5 -12 -3 -14 8 -9 8 4 3 -2 -11 -13 -14 -12 -43 -30 -65 -42
-23 -11 -59 -36 -80 -54 l-40 -34 30 -1 c17 0 45 4 62 9 20 6 35 6 38 0 4 -5
0 -9 -8 -9 -7 0 -22 -8 -33 -19 -11 -10 -30 -22 -42 -25 -12 -4 -22 -12 -22
-17 0 -6 -4 -7 -10 -4 -5 3 -10 2 -10 -4 0 -5 -8 -12 -18 -15 -11 -4 -25 -18
-32 -31 -7 -14 -19 -25 -27 -25 -7 0 -13 -5 -13 -12 0 -6 -8 -20 -18 -31 -16
-19 -16 -20 0 -14 10 4 18 2 18 -3 0 -6 -10 -10 -22 -11 -22 -1 -22 -1 2 -8
15 -4 28 -3 32 3 6 8 8 8 8 0 0 -6 -9 -21 -20 -34 -11 -13 -20 -29 -20 -37 0
-7 -4 -13 -10 -13 -5 0 -10 6 -10 14 0 8 -5 18 -12 22 -8 5 -9 2 -5 -9 3 -10
2 -17 -3 -17 -6 0 -10 -9 -10 -19 0 -11 -12 -33 -26 -50 -25 -30 -28 -31 -91
-25 -76 7 -104 -7 -120 -58 -8 -27 -7 -39 3 -53 8 -10 11 -29 7 -47 -4 -20 -1
-33 8 -38 10 -7 6 -12 -14 -21 -21 -9 -30 -9 -41 0 -18 15 -33 -8 -36 -54 -4
-62 -2 -66 33 -62 23 3 34 0 34 -9 0 -7 -4 -11 -9 -8 -4 3 -8 0 -8 -7 0 -8 -4
-8 -16 1 -12 11 -15 11 -12 -1 2 -8 9 -19 17 -25 11 -9 11 -13 -2 -26 -9 -9
-13 -18 -10 -21 3 -4 2 -14 -2 -24 -5 -10 -10 -27 -12 -37 -5 -30 -13 -32 -13
-5 -1 22 -2 23 -14 7 -7 -10 -16 -15 -19 -11 -17 16 -5 -16 13 -37 18 -21 29
-42 14 -27 -8 8 -50 -44 -46 -56 1 -5 -2 -6 -8 -2 -5 3 -10 21 -10 39 l0 32
-72 2 c-96 3 -101 12 -6 12 75 0 88 6 88 40 0 16 -82 20 -443 23 l-357 2 0
-647 0 -648 1613 0 c1277 0 1616 3 1626 13 8 6 11 7 8 1 -5 -8 9 -12 42 -12
54 -2 60 10 28 49 -16 18 -16 20 0 26 28 10 59 46 45 51 -7 2 -10 13 -6 27 5
21 3 22 -39 21 -25 0 -43 -4 -40 -8 5 -10 -19 -10 -41 -2 -9 3 -13 10 -10 15
3 5 -21 8 -53 7 l-58 -1 45 -6 c43 -6 43 -7 14 -12 -36 -6 -74 5 -74 21 0 5 9
10 21 10 22 0 49 22 49 39 0 7 -25 11 -65 11 -37 0 -65 -4 -65 -10 0 -14 -27
-13 -36 2 -5 8 -2 9 9 5 9 -3 19 -2 22 3 3 5 -20 11 -52 13 -32 2 -13 3 42 1
75 -2 90 0 60 6 -22 5 -78 10 -125 11 -78 2 -81 3 -42 11 42 9 61 30 20 22
-18 -3 -17 -2 4 6 16 7 26 18 25 30 -1 11 -6 16 -15 13 -10 -5 -11 -8 -2 -13
7 -5 -7 -9 -33 -11 -25 -2 -43 -1 -41 3 2 4 -4 9 -13 11 -10 2 -5 3 10 1 15
-2 25 0 22 5 -3 6 5 12 17 14 13 2 9 4 -9 3 -30 -2 -31 0 -28 32 4 43 17 52
76 52 39 0 51 5 82 35 52 51 49 89 -8 119 l-30 16 34 6 c59 12 55 65 -8 106
-36 24 -44 25 -78 15 -21 -6 -40 -14 -43 -18 -7 -9 -60 1 -60 11 0 5 16 14 35
20 19 6 35 15 35 20 0 6 -46 15 -120 22 -8 1 -22 8 -30 17 -13 13 -13 14 3 8
9 -3 17 -2 17 3 0 6 -12 10 -27 10 -29 0 -22 15 12 23 11 2 4 4 -16 4 -43 0
-60 9 -52 28 3 9 -1 15 -11 15 -9 0 -16 7 -16 16 0 12 3 14 13 6 6 -5 23 -9
37 -8 14 2 35 -4 48 -11 13 -8 28 -13 34 -11 6 2 -3 10 -20 17 -35 15 -44 36
-11 26 15 -5 19 -4 15 4 -10 16 -36 14 -42 -4 -4 -8 -10 -15 -15 -15 -4 0 -6
6 -3 14 3 9 -3 20 -15 28 -29 18 -26 24 11 32 49 10 78 32 73 58 -4 17 -2 19
7 10 10 -10 10 -17 0 -32 -9 -15 -9 -20 -1 -20 7 0 4 -8 -6 -20 -24 -26 -5
-26 23 0 29 28 28 54 -4 79 -15 12 -21 21 -15 21 6 0 17 12 23 26 10 21 9 27
-3 35 -20 12 -5 11 25 -2 14 -7 23 -16 20 -20 -3 -5 1 -9 9 -9 8 0 17 6 20 13
2 6 51 69 108 139 188 230 205 252 255 335 l48 81 66 -57 c69 -61 221 -169
305 -215 149 -84 237 -142 253 -168 9 -15 20 -28 25 -28 4 0 15 -16 23 -35 8
-19 20 -35 27 -35 24 -1 55 -44 52 -73 -3 -22 -1 -26 10 -17 9 8 15 8 20 0 8
-13 -3 -32 -15 -25 -5 3 -11 1 -15 -5 -3 -6 4 -10 18 -10 29 0 74 -35 55 -43
-11 -4 -10 -6 0 -6 7 -1 10 -6 6 -12 -4 -8 1 -9 17 -4 l24 7 -24 -18 c-23 -16
-23 -18 -6 -31 11 -7 27 -13 37 -13 16 0 18 -6 15 -32 -3 -21 2 -40 12 -52 15
-18 15 -18 -7 -7 -14 7 -21 18 -18 26 4 11 0 12 -20 5 -14 -6 -38 -10 -54 -10
-38 0 -85 -21 -69 -31 7 -4 -1 -10 -20 -14 -21 -4 -35 -15 -42 -32 -15 -40
-11 -57 26 -98 20 -22 45 -50 56 -62 11 -13 15 -23 9 -23 -6 0 -8 -5 -5 -10 3
-6 -1 -10 -10 -10 -16 0 -17 -32 -2 -57 4 -6 1 -14 -5 -16 -10 -4 -10 -8 1
-15 11 -8 11 -10 0 -15 -12 -4 -11 -7 1 -16 8 -6 10 -11 4 -11 -7 0 -14 -11
-16 -25 -3 -14 -1 -25 4 -25 5 0 6 -5 3 -10 -4 -6 -10 -8 -15 -5 -5 3 -11 1
-15 -5 -4 -6 -11 -8 -16 -5 -5 4 -9 1 -9 -4 0 -6 -15 -12 -32 -12 l-33 -1 30
-7 c21 -4 26 -9 17 -15 -7 -4 -10 -16 -7 -27 4 -11 2 -19 -4 -19 -6 0 -11 -4
-11 -10 0 -5 7 -10 16 -10 8 0 12 -4 9 -10 -3 -5 -14 -10 -24 -10 -10 0 -24
-7 -31 -15 -10 -13 -9 -15 10 -15 13 0 21 -3 18 -6 -8 -7 -136 -34 -173 -35
-30 -2 -30 -2 5 -9 31 -7 32 -7 8 -9 -16 0 -28 -5 -28 -9 0 -5 -17 -13 -37
-19 l-38 -10 51 -2 c63 -1 91 -18 72 -44 -9 -12 -29 -18 -70 -20 -31 -1 -54
-6 -51 -11 3 -5 -31 -6 -80 -1 -46 3 -87 3 -90 -2 -3 -5 9 -7 26 -6 18 2 52 0
77 -5 41 -9 36 -10 -43 -10 -48 1 -91 -2 -94 -6 -3 -3 125 -6 286 -6 l293 0
29 30 c17 16 27 35 24 41 -4 6 2 13 14 16 33 8 25 20 -21 29 -43 8 -43 8 -10
12 17 2 32 7 32 13 0 5 8 9 18 10 9 1 -3 6 -28 13 l-45 12 43 7 c23 4 42 11
42 16 0 5 8 12 18 14 9 2 4 3 -13 1 l-30 -4 25 20 c14 11 32 20 41 20 9 0 23
7 30 17 13 15 12 15 -10 3 -21 -11 -23 -10 -18 4 3 8 1 18 -5 22 -7 4 -5 10 6
16 31 17 16 28 -41 29 l-58 2 47 6 c54 8 89 31 47 32 l-24 0 23 9 c12 5 22 12
22 14 0 3 -7 3 -15 0 -11 -5 -13 -2 -9 10 6 15 1 16 -35 12 -34 -4 -39 -3 -28
9 8 9 16 10 25 3 8 -7 12 -7 12 2 0 7 8 10 19 7 14 -3 18 -1 14 9 -3 8 1 14
11 14 14 0 20 11 17 32 0 4 6 5 14 2 10 -4 15 0 15 15 0 12 5 21 10 21 6 0 10
-7 10 -15 0 -8 4 -15 9 -15 5 0 7 9 4 20 -3 11 0 20 6 20 6 0 11 14 11 31 0
16 4 28 8 25 9 -5 8 19 -1 44 -6 17 -18 88 -17 110 2 133 1 138 -10 120 -5 -8
-10 -10 -10 -5 0 6 4 15 10 21 6 6 -4 28 -30 64 -28 39 -38 62 -34 80 3 18 2
20 -3 8 -8 -17 -9 -16 -21 2 -8 14 -9 19 -1 18 21 -5 19 34 -2 39 -10 3 -19 9
-19 14 0 5 11 4 25 -1 20 -7 25 -6 25 5 0 8 -4 15 -8 15 -4 0 -9 28 -10 63 -2
54 1 66 19 83 30 27 49 68 48 101 l-1 28 -8 -30 c-8 -30 -8 -30 -9 8 -1 38 -5
41 -51 37 -30 -2 -38 -9 -23 -18 6 -4 15 -21 18 -37 7 -29 7 -29 -9 -10 -16
19 -17 19 -11 -12 6 -30 -6 -70 -20 -66 -15 5 -46 54 -40 64 4 5 7 26 7 45 0
31 -13 46 -128 156 -70 68 -143 147 -161 176 -19 30 -60 79 -91 109 -63 62
-201 168 -231 178 -20 6 -31 33 -31 80 0 37 31 84 122 188 37 43 68 85 68 93
0 8 4 13 9 10 5 -3 32 31 60 75 41 65 51 89 52 127 l2 47 6 -40 6 -40 48 80
c36 61 47 90 48 125 2 43 2 44 8 10 l6 -34 13 27 c7 16 10 46 7 70 -5 39 -4
40 6 13 9 -21 14 -25 20 -15 13 21 11 57 -6 89 -9 17 -11 30 -7 30 5 0 16 -14
25 -31 l15 -32 7 32 c8 39 19 40 22 1 1 -17 7 -38 12 -48 8 -13 10 -3 9 40 0
50 3 62 31 97 18 22 41 43 51 46 11 4 20 9 20 13 0 4 25 36 56 72 30 36 58 76
61 90 3 14 16 46 29 72 13 26 33 72 45 103 18 49 23 54 40 45 25 -14 25 -1 -2
53 l-21 42 26 -30 c26 -31 34 -28 16 6 -7 13 -7 19 0 19 5 0 10 7 10 16 0 8
-5 12 -11 9 -7 -5 -7 -2 0 11 9 16 29 87 66 234 4 14 9 32 13 40 3 8 17 57 32
109 14 52 31 96 37 98 6 2 28 -22 50 -54 65 -98 121 -149 183 -167 67 -19 127
-21 200 -7 79 15 97 28 115 80 15 46 18 128 5 136 -4 3 -6 19 -4 36 l4 32 -25
-27 c-13 -14 -27 -26 -30 -26 -8 0 -50 40 -50 48 -1 4 -15 38 -33 75 -18 38
-32 71 -32 74 0 15 -116 240 -130 250 -8 6 -12 15 -8 18 4 4 -3 16 -15 26 -12
10 -17 18 -11 19 8 0 9 11 4 34 -4 19 -5 37 -2 40 3 4 0 6 -6 6 -6 0 -13 -4
-17 -9 -3 -6 -17 -6 -35 1 -17 5 -36 8 -43 5 -13 -4 -43 12 -96 51 -27 20 -30
21 -25 5 4 -13 1 -12 -14 6 -17 22 -79 40 -66 20 3 -5 1 -9 -5 -9 -5 0 -13 5
-16 10 -3 6 -17 10 -31 10 -14 0 -23 -3 -21 -7 3 -5 -6 -9 -20 -10 -16 0 -21
2 -13 7 20 12 -7 23 -38 15 -26 -6 -26 -6 -7 9 20 15 20 15 -3 9 -12 -3 -29 1
-38 8 -13 10 -17 10 -25 -2 -5 -8 -9 -9 -9 -3 0 10 -67 29 -97 27 -7 0 -13 5
-13 11 0 15 -143 42 -161 31 -7 -5 -10 -4 -6 2 4 6 1 16 -7 22 -18 15 -31 -16
-15 -35 8 -10 8 -14 1 -14 -22 0 -31 33 -15 57 18 27 61 31 70 7 8 -22 49 -36
111 -39 29 -2 58 -7 65 -12 7 -6 59 -20 117 -32 58 -12 124 -27 147 -33 23 -5
46 -7 52 -3 6 3 11 1 11 -4 0 -6 5 -11 10 -11 21 0 9 20 -16 26 -17 4 -23 11
-19 22 3 8 -3 21 -12 28 -17 13 -17 14 2 7 17 -6 18 -5 5 9 -8 8 -20 14 -26
11 -7 -2 -19 6 -28 19 -9 12 -16 17 -16 10 0 -9 -7 -7 -24 5 -21 16 -22 19 -8
25 10 4 24 7 32 7 19 1 100 -50 100 -62 0 -4 -4 -5 -10 -2 -6 3 -7 -1 -4 -10
5 -13 9 -13 18 -3 6 7 10 12 9 10 -1 -2 8 -13 20 -25 13 -13 17 -22 9 -25 -7
-2 -10 -8 -7 -12 3 -5 16 1 28 13 12 12 19 25 14 28 -4 3 4 31 18 63 24 54 32
83 34 114 1 7 6 10 11 7 6 -4 8 -11 5 -16 -4 -5 0 -9 7 -9 9 0 9 -3 2 -8 -21
-14 -22 -38 -3 -51 11 -6 24 -9 28 -6 13 8 38 -56 35 -90 -1 -16 -3 -45 -3
-64 -1 -24 -5 -32 -15 -28 -8 3 -20 -1 -26 -9 -10 -11 -9 -14 9 -14 11 0 28
-11 36 -24 19 -29 59 -25 50 5 -4 11 -2 19 4 19 6 0 11 -6 12 -12 0 -7 4 -3 9
10 5 12 14 22 19 22 16 0 38 83 31 117 -6 28 -4 32 17 38 13 3 21 10 18 15 -4
6 0 13 9 16 8 3 20 20 27 37 29 78 17 91 -20 22 -30 -56 -68 -98 -82 -90 -6 5
-7 11 0 18 14 17 41 99 35 108 -2 4 1 20 7 36 12 30 20 73 13 73 -2 0 -25 -42
-50 -92 l-46 -93 7 70 c4 39 9 94 11 124 l4 54 -24 -24 c-12 -13 -23 -26 -23
-29 0 -3 -1 -11 -2 -17 0 -7 -5 -13 -11 -13 -5 0 -9 3 -9 8 3 19 -2 33 -11 27
-5 -3 -10 0 -10 9 0 8 -5 16 -12 18 -14 5 -2 28 15 28 8 0 8 -3 -1 -9 -11 -7
-11 -9 1 -14 21 -8 29 3 15 20 -8 10 -7 17 8 29 10 9 14 13 8 10 -7 -3 -11 7
-12 26 -1 30 -18 52 -34 42 -4 -3 -8 2 -8 10 0 8 6 14 13 12 6 -1 9 -1 4 1 -4
3 -4 10 -1 15 5 7 2 8 -6 3 -10 -6 -12 -4 -7 9 4 10 3 15 -3 11 -6 -3 -10 1
-10 10 0 11 5 15 14 12 10 -4 13 -1 9 9 -3 8 -11 13 -18 11 -7 -3 -12 6 -12
24 0 19 5 28 12 25 7 -2 5 10 -6 31 -10 20 -16 40 -13 44 3 5 -1 6 -9 3 -8 -3
-18 0 -23 7 -5 8 -3 10 6 4 10 -6 11 -4 6 11 -5 10 -9 25 -9 32 0 7 -8 10 -17
7 -10 -3 -17 1 -18 10 -1 8 -3 22 -4 30 -1 8 -4 15 -8 15 -4 0 -12 11 -18 25
-6 14 -18 25 -26 25 -8 0 -17 9 -21 19 -3 11 -18 24 -33 29 -15 5 -44 21 -65
35 -44 30 -120 43 -171 29 -23 -7 -38 -7 -42 0 -3 5 -13 7 -21 3 -12 -4 -13
-2 -5 7 8 11 3 13 -26 13 -20 0 -53 -2 -72 -6z m-226 -231 c15 -17 15 -20 3
-15 -9 3 -19 2 -22 -3 -4 -6 -12 -10 -18 -10 -7 0 -4 5 6 11 14 8 16 14 6 25
-6 8 -7 14 -2 14 5 0 17 -10 27 -22z m365 -150 c1 -16 6 -28 11 -28 6 0 10 -5
10 -11 0 -7 -13 -9 -37 -5 -21 4 -49 7 -63 7 l-25 1 24 19 24 20 -21 6 c-15 4
-22 13 -22 30 0 14 4 21 10 18 6 -4 8 -11 5 -16 -4 -5 -2 -9 4 -9 5 0 13 5 16
11 4 6 17 14 29 18 23 9 33 -8 35 -61z m-494 -25 c-2 -10 -4 -20 -5 -23 -1 -3
-2 -9 -1 -13 1 -5 -3 -6 -9 -2 -11 7 -14 38 -3 48 12 13 21 7 18 -10z m932
-135 c-3 -8 -6 -5 -6 6 -1 11 2 17 5 13 3 -3 4 -12 1 -19z m-934 -18 c6 -23
-3 -26 -21 -8 -16 16 -15 28 2 28 7 0 16 -9 19 -20z m978 -7 c7 -19 6 -29 -2
-37 -9 -8 -10 -7 -6 7 4 9 2 17 -3 17 -5 0 -8 9 -7 20 2 27 6 25 18 -7z m-392
-20 c-11 -31 -28 -53 -39 -53 -13 0 -50 37 -50 51 0 11 2 11 10 -1 5 -8 10
-10 10 -4 0 7 13 10 30 8 21 -3 30 1 30 11 0 8 4 15 10 15 6 0 6 -10 -1 -27z
m-599 -7 c0 -3 -4 -8 -10 -11 -5 -3 -10 -1 -10 4 0 6 5 11 10 11 6 0 10 -2 10
-4z m460 -27 c0 -5 -7 -9 -15 -9 -8 0 -15 7 -15 15 0 9 6 12 15 9 8 -4 15 -10
15 -15z m540 -133 c0 -3 -4 -8 -10 -11 -5 -3 -10 -1 -10 4 0 6 5 11 10 11 6 0
10 -2 10 -4z m-525 -66 c3 -5 -1 -10 -9 -10 -9 0 -16 5 -16 10 0 6 4 10 9 10
6 0 13 -4 16 -10z m-473 -190 l3 -65 23 48 c27 56 44 62 30 10 -11 -43 -45
-103 -58 -103 -16 0 -26 81 -22 165 3 53 21 13 24 -55z m145 54 c-3 -3 -12 -4
-19 -1 -8 3 -5 6 6 6 11 1 17 -2 13 -5z m53 -30 c0 -3 -7 -12 -15 -20 -8 -9
-15 -24 -15 -35 0 -10 -4 -18 -9 -16 -5 1 -17 -7 -25 -18 -15 -20 -15 -20 -16
4 0 25 47 89 68 90 6 1 12 -2 12 -5z m-111 -118 c-9 -8 -10 -7 -5 7 3 10 7 24
7 30 1 7 3 4 6 -7 3 -10 -1 -23 -8 -30z m345 22 c-7 -11 15 -38 30 -38 6 0 3
5 -7 11 -9 6 -15 14 -12 19 6 10 45 1 45 -11 0 -13 34 -11 48 3 9 9 12 8 12
-6 0 -15 6 -17 54 -11 32 4 62 3 73 -4 15 -8 25 -7 39 4 14 10 15 14 5 15 -8
0 -11 3 -8 6 4 4 13 1 22 -6 8 -7 21 -10 30 -7 8 4 17 2 20 -3 4 -6 1 -10 -5
-10 -6 0 -8 -5 -5 -10 5 -8 12 -7 23 2 14 11 15 10 9 -6 -6 -14 -4 -17 8 -12
18 7 20 -5 3 -23 -11 -10 -9 -11 7 -6 16 6 17 5 5 -4 -21 -15 -53 -14 -44 2 6
9 4 9 -8 -1 -15 -12 -36 -12 -190 2 -16 1 -55 3 -89 4 -57 2 -60 3 -54 25 5
16 4 18 -4 8 -13 -19 -41 -23 -34 -5 3 8 9 14 14 14 5 0 9 7 9 16 0 8 -4 13
-8 10 -4 -2 -8 3 -8 13 0 10 6 18 13 18 7 0 10 -4 7 -9z m-1640 -69 c25 -11
50 -17 56 -14 5 3 14 -4 20 -15 9 -16 8 -20 -4 -20 -10 0 -13 6 -9 16 5 14 3
15 -14 5 -34 -18 -102 10 -103 42 0 10 2 10 54 -14z m2071 11 c3 -5 -1 -10 -9
-10 -9 0 -16 5 -16 10 0 6 4 10 9 10 6 0 13 -4 16 -10z m-1005 -29 c0 -11 -5
-23 -11 -27 -16 -9 -30 18 -17 33 15 19 28 16 28 -6z m1075 -102 c-3 -4 -12
-6 -20 -3 -8 4 -13 10 -10 15 3 4 12 6 20 3 8 -4 13 -10 10 -15z m-655 -9 c0
-5 -8 -10 -17 -10 -15 0 -16 2 -3 10 19 12 20 12 20 0z m590 -63 c0 -5 -4 -5
-10 -2 -13 8 0 -26 15 -42 7 -6 16 -8 22 -5 17 12 34 52 27 65 -4 6 -4 9 1 5
4 -4 14 0 21 10 12 15 13 15 14 1 0 -9 -9 -28 -20 -41 -10 -14 -16 -28 -13
-32 3 -3 1 -6 -5 -6 -6 0 -10 -6 -8 -12 1 -7 1 -10 -1 -6 -3 4 -15 3 -28 -2
-20 -8 -27 -6 -36 11 -6 11 -8 23 -5 26 3 4 1 12 -5 19 -5 6 -7 24 -3 39 l7
28 13 -24 c7 -13 13 -28 14 -32z m-2515 -17 c3 -6 -1 -7 -9 -4 -18 7 -21 14
-7 14 6 0 13 -4 16 -10z m677 -105 c4 -37 2 -40 -21 -26 -12 8 -13 14 -3 35
15 34 19 33 24 -9z m1295 0 c31 -8 74 -15 95 -15 l38 0 0 -86 c0 -92 -18 -214
-32 -214 -4 0 -8 -7 -8 -15 0 -9 -9 -15 -22 -16 -22 0 -22 -1 -3 -9 11 -5 14
-9 6 -9 -9 -1 -12 -9 -8 -27 3 -18 1 -24 -9 -20 -22 9 -25 -10 -4 -29 15 -14
17 -22 9 -37 -5 -10 -15 -16 -20 -12 -6 3 -5 -3 3 -15 10 -17 10 -23 -1 -33
-9 -8 -12 -9 -7 -1 3 6 1 15 -5 19 -8 4 -9 3 -5 -4 4 -7 0 -12 -11 -13 -11 0
-13 -3 -5 -6 6 -2 10 -8 7 -13 -3 -5 16 -8 42 -7 47 2 48 2 51 -31 l3 -34 -53
4 c-46 3 -53 1 -50 -14 2 -10 -2 -18 -8 -18 -5 0 -10 -7 -10 -15 0 -8 5 -15
11 -15 5 0 7 -4 4 -10 -8 -14 51 -13 77 1 11 6 22 8 25 6 9 -10 -36 -28 -72
-29 -43 -2 -36 -15 13 -23 53 -9 64 -14 57 -24 -3 -6 -28 -2 -61 9 l-55 19 3
-27 c2 -15 -4 -33 -12 -40 -10 -9 -10 -11 -1 -6 10 5 11 1 6 -15 -5 -18 -2
-24 14 -28 24 -6 28 -20 6 -20 -8 0 -15 4 -15 9 0 4 -4 8 -8 8 -5 0 -5 -24 -2
-52 4 -32 3 -56 -2 -59 -6 -4 -5 -8 2 -11 12 -4 17 -23 23 -93 2 -26 -2 -30
-38 -41 -55 -17 -208 -17 -402 1 -170 15 -232 27 -271 52 -13 8 -34 12 -46 9
-11 -3 -28 0 -36 5 -12 9 -12 10 3 5 11 -4 16 -2 12 5 -4 5 10 27 32 48 112
111 273 352 328 491 43 110 78 173 90 163 4 -5 5 -2 1 4 -4 8 8 33 29 60 41
53 61 68 70 53 3 -5 10 -10 16 -10 5 0 4 9 -3 20 -10 16 -9 24 10 47 12 15 45
60 74 100 29 40 56 72 60 72 4 1 33 -6 65 -14z m-2444 -31 c-10 -19 -19 -31
-21 -25 -3 9 26 61 34 61 2 0 -4 -16 -13 -36z m357 -4 c-11 -11 -25 -20 -31
-20 -6 0 -1 9 12 20 31 25 45 26 19 0z m190 -23 c0 -2 -12 -14 -27 -28 l-28
-24 24 28 c23 25 31 32 31 24z m777 -39 c-3 -8 -6 -5 -6 6 -1 11 2 17 5 13 3
-3 4 -12 1 -19z m-818 -44 c-9 -11 -9 -17 1 -29 18 -22 -4 -18 -24 4 -16 17
-16 19 5 24 13 4 18 10 13 18 -4 8 -3 10 5 5 9 -6 9 -11 0 -22z m-20 -125 c43
-34 51 -46 50 -72 l-1 -32 -14 32 c-8 20 -24 35 -39 39 -14 3 -25 10 -25 15 0
5 -7 9 -15 9 -8 0 -15 8 -15 18 -1 15 -2 15 -16 -3 -9 -11 -24 -37 -35 -57
l-19 -37 30 -18 c17 -9 30 -21 30 -26 0 -5 -15 2 -32 14 -18 12 -34 23 -36 25
-7 5 64 134 74 134 6 0 34 -18 63 -41z m710 -82 c1 -17 -3 -26 -9 -22 -5 3 -9
30 -9 58 1 45 2 48 9 22 4 -16 8 -43 9 -58z m-746 48 c4 -8 2 -17 -3 -20 -6
-4 -10 3 -10 14 0 25 6 27 13 6z m37 -67 c0 -5 7 -8 15 -8 11 0 10 -6 -7 -25
-12 -14 -29 -25 -37 -25 -13 1 -13 2 2 11 9 5 17 17 17 24 0 18 -36 20 -43 3
-3 -8 -6 -6 -6 5 -1 10 6 20 14 23 8 4 12 10 9 16 -3 5 3 4 15 -4 12 -7 21
-16 21 -20z m2082 -531 c-11 -22 -23 14 -16 45 l8 33 6 -35 c3 -19 4 -39 2
-43z m-78 41 c-5 -8 -2 -9 10 -5 10 4 15 3 11 -3 -10 -15 -35 -12 -35 5 0 8 5
15 11 15 5 0 7 -5 3 -12z m-1016 -64 c2 -1 -4 -4 -13 -8 -9 -3 -13 -2 -10 4 3
6 1 10 -4 10 -6 0 -11 5 -11 11 0 8 6 7 18 -2 9 -7 18 -14 20 -15z m0 -28 c-7
-8 -15 -12 -17 -11 -5 6 10 25 20 25 5 0 4 -6 -3 -14z m-892 -104 c-9 -8 -13
0 -20 38 l-6 35 16 -34 c8 -18 13 -36 10 -39z m964 44 c0 -3 -4 -8 -10 -11 -5
-3 -10 -1 -10 4 0 6 5 11 10 11 6 0 10 -2 10 -4z m-842 -144 c2 -7 -17 1 -42
18 -25 17 -46 33 -46 35 0 9 84 -42 88 -53z m-439 -326 c-2 -3 -23 -11 -46
-19 -43 -14 -50 -3 -9 13 22 9 63 13 55 6z m-478 -50 c-6 -8 -25 -19 -41 -26
-17 -7 -30 -16 -30 -21 0 -5 -4 -9 -10 -9 -18 0 -10 29 10 35 11 4 18 10 15
15 -5 9 15 17 49 19 15 1 16 -2 7 -13z m344 -17 l-19 -20 47 20 c37 16 55 18
89 12 24 -5 36 -10 28 -11 -70 -8 -82 -16 -56 -36 24 -17 24 -17 -39 -1 -57
14 -74 15 -95 4 -8 -5 1 5 20 22 39 35 52 41 25 10z m-85 -24 c-7 -8 -18 -15
-24 -15 -6 0 -2 7 8 15 25 19 32 19 16 0z m-66 -17 c-4 -7 -22 -31 -40 -53
-43 -54 -60 -89 -84 -176 -11 -41 -26 -78 -33 -84 -7 -5 -30 -34 -51 -63 -21
-29 -40 -51 -43 -48 -2 2 12 33 32 68 54 93 98 191 97 211 0 10 4 15 10 11 8
-5 9 -1 5 10 -4 10 -3 15 3 11 6 -3 10 0 10 7 0 7 21 37 48 66 47 52 59 63 46
40z m586 -13 c-7 -8 -17 -15 -23 -15 -6 0 -2 7 9 15 25 19 30 19 14 0z m-510
1 c0 -2 -8 -10 -17 -17 -16 -13 -17 -12 -4 4 13 16 21 21 21 13z m2232 -63
c-7 -36 -12 -27 -11 20 0 30 3 36 8 23 4 -11 6 -30 3 -43z m-1767 -12 c-8 -17
-17 -31 -19 -31 -8 0 2 40 14 54 20 25 23 12 5 -23z m1732 -13 c-3 -7 -5 -2
-5 12 0 14 2 19 5 13 2 -7 2 -19 0 -25z m-2533 -464 c3 -8 2 -12 -4 -9 -6 3
-10 10 -10 16 0 14 7 11 14 -7z m356 -457 c41 -21 94 -53 117 -71 25 -20 70
-42 115 -55 75 -22 84 -26 164 -75 26 -16 68 -31 93 -34 29 -3 52 -13 63 -26
27 -31 49 -85 44 -110 -3 -11 -8 -36 -12 -55 l-7 -33 29 18 c26 18 28 18 21 1
-4 -11 -1 -20 8 -23 23 -9 18 -24 -7 -24 -13 0 -30 -5 -38 -10 -11 -7 -4 -10
28 -10 23 0 42 -2 42 -4 0 -2 2 -11 6 -19 4 -11 -7 -15 -48 -20 -29 -3 -68
-13 -85 -24 -35 -19 -44 -53 -15 -54 13 0 11 -3 -6 -10 -22 -8 -23 -13 -20
-104 l3 -95 31 0 c37 0 43 -10 39 -70 -1 -25 2 -48 8 -51 5 -4 5 -14 -2 -27
-6 -11 -8 -28 -4 -38 5 -14 3 -16 -12 -10 -11 4 -22 2 -27 -6 -6 -10 -10 -10
-18 2 -5 8 -10 10 -10 3 0 -12 -37 -6 -58 10 -9 7 -16 7 -24 -1 -6 -6 -17 -8
-24 -5 -8 3 -14 0 -14 -6 0 -6 -7 -11 -15 -11 -9 0 -12 6 -9 15 4 8 13 15 22
15 8 0 13 3 10 6 -3 3 -23 1 -44 -4 -65 -17 -141 -24 -124 -13 12 9 11 11 -7
11 -13 0 -23 4 -23 9 0 5 -10 9 -22 9 -70 1 -98 6 -82 15 9 5 37 6 63 3 70
-10 191 -12 191 -3 0 4 -21 7 -47 7 -27 0 -43 4 -36 8 6 4 -31 6 -83 6 -86 -2
-94 0 -94 17 0 10 -5 19 -11 19 -5 0 -7 -4 -4 -10 4 -6 -19 -9 -62 -8 -55 1
-60 2 -28 7 33 4 26 6 -40 11 l-80 6 103 2 c56 1 102 6 102 11 0 5 -21 7 -47
5 -27 -3 -94 2 -150 9 -57 7 -105 10 -107 5 -2 -5 -3 -3 -2 4 1 7 9 13 17 14
44 3 50 5 44 14 -3 6 1 10 9 10 18 0 30 -16 16 -23 -6 -3 -5 -4 2 -3 7 2 12 9
11 15 -2 6 12 11 35 12 20 0 53 7 72 14 35 13 34 13 -39 14 -56 1 -77 5 -86
17 -6 9 -26 17 -42 18 -17 0 -29 4 -26 9 2 4 -1 7 -6 7 -6 0 -11 -5 -11 -12 0
-9 -3 -9 -11 -1 -8 8 -8 17 0 32 7 12 8 21 2 21 -5 0 -12 -6 -14 -12 -3 -7 -6
1 -6 19 -1 18 -11 44 -24 59 -20 23 -26 25 -44 15 -25 -13 -123 -15 -123 -3 0
5 -12 14 -27 21 l-28 13 25 13 c22 12 22 13 4 18 -13 3 -14 5 -3 6 8 0 24 -6
35 -15 10 -8 13 -13 7 -9 -7 3 -20 2 -29 -3 -11 -6 -5 -9 23 -9 21 0 49 -4 63
-7 l25 -8 -24 21 c-15 14 -21 27 -17 38 4 10 4 15 1 11 -4 -4 -19 8 -35 25
-22 25 -26 36 -18 50 8 16 7 18 -10 13 -27 -9 -37 36 -11 52 10 6 25 27 35 47
9 19 22 35 29 35 14 0 45 53 45 77 0 18 10 16 26 -4 17 -23 47 -7 54 29 3 13
24 41 48 63 24 21 58 63 76 94 31 54 85 120 96 117 3 0 39 -18 80 -39z m765
-139 c3 -3 -1 -8 -9 -11 -8 -3 -17 0 -19 8 -5 13 16 15 28 3z m-1435 -112 c0
-3 -4 -8 -10 -11 -5 -3 -10 -1 -10 4 0 6 5 11 10 11 6 0 10 -2 10 -4z m-20
-61 c0 -9 -9 -15 -21 -15 -18 0 -19 2 -9 15 7 8 16 15 21 15 5 0 9 -7 9 -15z
m1425 -25 c3 -5 1 -10 -4 -10 -6 0 -11 5 -11 10 0 6 2 10 4 10 3 0 8 -4 11
-10z m159 -8 c-15 -10 -54 -87 -55 -109 0 -16 -1 -16 -9 2 -12 27 -12 37 -1
31 11 -7 23 22 14 36 -3 6 -2 8 4 5 6 -4 15 5 21 18 7 14 17 25 24 25 9 0 10
-3 2 -8z m-67 -164 c-3 -8 -6 -5 -6 6 -1 11 2 17 5 13 3 -3 4 -12 1 -19z
m-1934 -15 c-29 -2 -78 -2 -110 0 -32 2 -8 3 52 3 61 0 87 -1 58 -3z m3528
-90 c13 -16 12 -17 -3 -4 -10 7 -18 15 -18 17 0 8 8 3 21 -13z m-3291 -38 c14
-19 14 -19 -2 -6 -10 7 -18 18 -18 24 0 6 1 8 3 6 1 -2 9 -13 17 -24z m1665
-25 c-19 -21 -37 -18 -28 5 3 8 14 15 26 15 19 0 19 -1 2 -20z m1758 -77 c-7
-2 -19 -2 -25 0 -7 3 -2 5 12 5 14 0 19 -2 13 -5z m-1766 -35 c-2 -7 0 -24 5
-37 5 -15 5 -28 -2 -36 -7 -9 -7 -21 0 -41 9 -24 8 -31 -6 -41 -31 -22 -40
-15 -36 27 2 22 7 40 11 40 3 0 6 19 5 43 0 23 5 45 10 49 15 11 18 10 13 -4z
m1712 -12 c10 -12 8 -13 -8 -9 -12 3 -18 9 -15 14 7 12 10 11 23 -5z m-2690
-11 c2 -3 -13 -4 -33 -3 -20 1 -39 4 -41 8 -5 7 66 2 74 -5z m2760 -6 c-4 -9
-5 -20 -1 -24 4 -4 1 -6 -6 -4 -8 3 -12 8 -10 11 2 4 -6 13 -16 21 -18 13 -18
14 11 13 25 -1 29 -4 22 -17z m31 -39 c-1 -12 -4 -11 -15 4 -8 10 -12 23 -8
29 7 11 23 -12 23 -33z m-2707 23 c-7 -2 -21 -2 -30 0 -10 3 -4 5 12 5 17 0
24 -2 18 -5z m2713 -72 c0 -15 -4 -16 -17 -8 -19 12 -16 27 4 27 7 0 13 -8 13
-19z m-2763 2 c-7 -2 -21 -2 -30 0 -10 3 -4 5 12 5 17 0 24 -2 18 -5z m1054
-9 c-3 -3 -12 -4 -19 -1 -8 3 -5 6 6 6 11 1 17 -2 13 -5z m-1054 -11 c-7 -2
-21 -2 -30 0 -10 3 -4 5 12 5 17 0 24 -2 18 -5z m40 -20 c-7 -2 -19 -2 -25 0
-7 3 -2 5 12 5 14 0 19 -2 13 -5z m1147 -8 c0 -8 -4 -15 -10 -15 -5 0 -7 7 -4
15 4 8 8 15 10 15 2 0 4 -7 4 -15z m161 -21 c-26 -11 -37 -12 -45 -3 -8 9 -8
10 2 5 6 -4 12 -4 12 1 0 4 15 9 33 10 l32 2 -34 -15z m-127 -14 c-11 -11 -30
-22 -42 -25 -19 -3 -21 -1 -12 16 6 10 13 19 16 19 3 0 2 -4 -1 -10 -3 -6 1
-7 9 -4 9 3 13 10 10 15 -3 5 5 9 18 9 l22 0 -20 -20z m-941 -27 c-7 -2 -19
-2 -25 0 -7 3 -2 5 12 5 14 0 19 -2 13 -5z m164 -29 c-3 -3 -12 -4 -19 -1 -8
3 -5 6 6 6 11 1 17 -2 13 -5z m233 -104 c8 -5 11 -10 5 -10 -5 0 -17 5 -25 10
-8 5 -10 10 -5 10 6 0 17 -5 25 -10z m540 -126 c0 -8 -4 -12 -10 -9 -5 3 -10
13 -10 21 0 8 5 12 10 9 6 -3 10 -13 10 -21z m1447 -168 c-10 -14 -29 -23 -60
-26 -25 -3 -43 -2 -41 2 3 4 12 8 20 8 8 0 12 5 9 10 -3 6 3 10 14 10 12 0 21
4 21 9 0 5 11 9 25 9 24 0 25 -2 12 -22z m-1570 -103 c1 -32 0 -34 -6 -13 -7
21 -4 50 3 50 2 0 3 -17 3 -37z m528 27 c-11 -5 -27 -9 -35 -9 -9 0 -8 4 5 9
11 5 27 9 35 9 9 0 8 -4 -5 -9z m-52 -27 c-7 -2 -19 -2 -25 0 -7 3 -2 5 12 5
14 0 19 -2 13 -5z m-453 -43 c0 -5 -5 -10 -11 -10 -5 0 -7 5 -4 10 3 6 8 10
11 10 2 0 4 -4 4 -10z m685 -30 c-7 -21 10 -29 18 -7 2 6 8 9 12 5 13 -12 -37
-50 -54 -42 -9 4 -27 7 -41 7 -29 -1 -66 22 -51 32 6 3 11 1 11 -4 0 -16 60
-14 61 2 0 6 5 2 11 -10 6 -13 15 -23 20 -23 12 0 10 18 -4 22 -9 3 -8 9 2 21
20 22 23 21 15 -3z m-685 -44 c0 -3 -4 -8 -10 -11 -5 -3 -10 -1 -10 4 0 6 5
11 10 11 6 0 10 -2 10 -4z"/>
<path d="M3999 3973 c6 -12 16 -25 21 -28 17 -11 11 5 -11 28 l-21 22 11 -22z"/>
<path d="M4035 3760 c-3 -5 -1 -10 4 -10 6 0 11 5 11 10 0 6 -2 10 -4 10 -3 0
-8 -4 -11 -10z"/>
<path d="M4060 3760 c0 -5 15 -10 33 -9 27 0 29 2 12 9 -28 12 -45 12 -45 0z"/>
<path d="M3993 3425 c0 -8 4 -12 9 -9 4 3 8 9 8 15 0 5 -4 9 -8 9 -5 0 -9 -7
-9 -15z"/>
<path d="M1225 1270 c-3 -6 1 -7 9 -4 18 7 21 14 7 14 -6 0 -13 -4 -16 -10z"/>
<path d="M1533 943 c9 -2 23 -2 30 0 6 3 -1 5 -18 5 -16 0 -22 -2 -12 -5z"/>
<path d="M1673 901 c-50 -4 -95 -10 -99 -14 -4 -4 0 -7 9 -7 10 0 16 -6 15
-12 -2 -9 11 -14 37 -14 l40 -2 -35 7 c-19 3 -36 12 -37 19 -2 9 22 12 95 13
53 0 106 4 117 9 23 10 2 10 -142 1z"/>
<path d="M1548 863 c7 -3 16 -2 19 1 4 3 -2 6 -13 5 -11 0 -14 -3 -6 -6z"/>
<path d="M1750 840 c0 -5 5 -10 11 -10 5 0 7 5 4 10 -3 6 -8 10 -11 10 -2 0
-4 -4 -4 -10z"/>
<path d="M1853 833 c9 -2 25 -2 35 0 9 3 1 5 -18 5 -19 0 -27 -2 -17 -5z"/>
<path d="M1968 783 c12 -2 30 -2 40 0 9 3 -1 5 -23 4 -22 0 -30 -2 -17 -4z"/>
<path d="M1925 740 c-18 -8 -17 -9 8 -9 16 -1 26 3 22 9 -3 6 -7 10 -8 9 -1 0
-11 -4 -22 -9z"/>
<path d="M2440 899 c0 -5 5 -7 10 -4 6 3 10 8 10 11 0 2 -4 4 -10 4 -5 0 -10
-5 -10 -11z"/>
<path d="M4138 293 c7 -3 16 -2 19 1 4 3 -2 6 -13 5 -11 0 -14 -3 -6 -6z"/>
<path d="M9263 5723 c-3 -7 -12 -13 -20 -13 -8 0 -12 -4 -9 -9 4 -5 -4 -7 -15
-4 -21 6 -21 4 -15 -51 3 -32 8 -62 12 -67 3 -5 -3 -9 -12 -9 -10 0 -14 -3
-10 -7 3 -4 25 -6 46 -5 24 2 50 -4 62 -13 15 -10 18 -15 8 -15 -13 0 -13 -2
0 -10 13 -9 13 -10 0 -10 -13 0 -13 -1 0 -10 10 -6 11 -10 3 -10 -21 0 -15
-16 7 -17 11 -1 20 4 20 12 0 8 7 11 20 8 11 -3 20 -1 20 5 0 6 15 10 34 9 32
-2 34 -4 29 -29 -4 -19 0 -29 15 -37 25 -13 35 -14 28 -2 -4 5 0 12 6 14 8 3
9 6 2 6 -7 1 -10 14 -8 31 3 24 0 28 -13 23 -11 -4 -14 -3 -9 5 4 7 20 12 35
12 37 0 58 23 39 43 -11 12 -15 12 -25 -2 -12 -14 -12 -14 -6 3 4 13 3 17 -5
12 -7 -4 -12 -1 -12 10 0 9 -8 23 -17 30 -15 11 -15 13 -3 14 12 0 12 2 2 8
-7 5 -10 16 -6 25 3 9 10 14 15 11 5 -3 9 0 9 5 0 6 -6 11 -14 11 -8 0 -17 6
-19 13 -3 6 -6 3 -7 -8 0 -11 -8 -29 -16 -40 -16 -19 -16 -19 -9 5 4 14 10 32
13 40 5 13 3 13 -10 2 -14 -11 -18 -10 -28 9 -10 17 -14 19 -21 8 -6 -10 -9
-11 -9 -1 0 6 -5 12 -11 12 -5 0 -7 -5 -3 -12 5 -8 2 -9 -12 -3 -33 13 -76 13
-81 -2z m7 -146 c0 -5 -4 -5 -10 -2 -5 3 -10 14 -10 23 0 15 2 15 10 2 5 -8
10 -19 10 -23z m200 -117 c0 -5 -2 -10 -4 -10 -3 0 -8 5 -11 10 -3 6 -1 10 4
10 6 0 11 -4 11 -10z"/>
<path d="M9175 5671 c-3 -5 -1 -12 5 -16 5 -3 10 1 10 9 0 18 -6 21 -15 7z"/>
<path d="M9117 5664 c-3 -4 1 -20 9 -36 11 -21 19 -27 26 -20 6 6 17 8 24 5
12 -4 12 -8 2 -22 -12 -14 -11 -14 4 -3 20 16 16 32 -12 50 -16 9 -18 9 -14
-2 3 -8 1 -17 -5 -21 -6 -3 -11 2 -11 12 0 23 -14 45 -23 37z"/>
<path d="M2225 5631 c-111 -29 -201 -99 -212 -164 -7 -48 22 -107 90 -181 57
-63 81 -67 92 -15 8 37 46 63 80 55 35 -9 31 -32 -7 -40 -36 -7 -58 -23 -58
-42 0 -8 6 -11 17 -7 9 4 14 2 11 -3 -9 -15 10 -54 26 -54 9 0 22 14 31 30 18
34 50 40 60 11 3 -11 22 -34 41 -51 19 -16 33 -34 30 -38 -2 -4 4 -8 14 -8 15
0 16 4 9 18 -11 21 9 48 35 48 12 0 16 10 16 35 0 30 -6 38 -40 60 -40 26 -52
45 -26 45 8 0 13 8 12 18 -4 20 11 32 40 32 28 0 49 -25 69 -85 9 -27 20 -54
24 -60 5 -5 12 -40 16 -78 4 -37 11 -65 16 -61 5 3 7 9 4 14 -3 4 4 19 16 31
15 18 19 19 15 7 -3 -10 -2 -18 2 -18 4 0 8 -9 9 -19 1 -14 -3 -18 -13 -14
-10 3 -14 -2 -14 -19 0 -13 -9 -34 -20 -46 -11 -12 -20 -26 -20 -32 0 -16 37
-12 44 5 3 8 1 15 -5 15 -6 0 -9 6 -6 13 2 6 11 11 20 9 22 -4 50 42 42 68 -3
11 -11 20 -16 20 -5 0 -9 5 -9 11 0 6 9 9 20 6 22 -6 35 25 45 108 5 41 2 61
-20 109 -14 32 -36 72 -49 90 -13 17 -26 39 -29 49 -8 20 -43 36 -105 44 -37
5 -44 4 -37 -8 5 -7 -13 5 -40 28 -28 22 -59 45 -71 51 -29 15 -113 22 -149
13z m322 -163 c37 -50 63 -89 51 -78 -14 13 -98 120 -98 125 0 12 10 2 47 -47z
m-66 -255 c13 -16 12 -17 -3 -4 -10 7 -18 15 -18 17 0 8 8 3 21 -13z"/>
<path d="M9097 5623 c-4 -3 -7 -11 -7 -17 0 -6 5 -5 12 2 6 6 9 14 7 17 -3 3
-9 2 -12 -2z"/>
<path d="M11128 5565 c-66 -18 -132 -59 -165 -102 -26 -34 -28 -43 -29 -143
-1 -58 -5 -117 -8 -131 -5 -15 -4 -19 2 -11 10 15 146 41 212 41 40 0 42 -2
23 -11 -13 -6 -23 -16 -23 -21 0 -6 -7 -19 -17 -29 -18 -21 -13 -30 20 -34 12
-1 24 -3 26 -3 2 -1 -2 -8 -9 -16 -7 -8 -9 -15 -5 -15 4 0 2 -7 -5 -15 -7 -8
-9 -15 -4 -15 4 0 0 -6 -11 -13 -19 -15 -12 -43 8 -30 7 4 20 9 31 10 31 5
119 80 110 94 -3 5 -1 9 4 9 6 0 13 -11 16 -25 4 -15 11 -22 20 -19 9 4 16 -6
20 -31 5 -25 15 -39 32 -47 29 -13 39 -6 26 19 -12 24 0 68 18 68 9 0 16 11
18 26 2 21 -4 31 -33 48 -46 27 -41 47 11 43 34 -2 40 0 41 18 1 11 -3 20 -8
20 -11 0 -8 38 4 57 4 6 3 14 -1 17 -5 3 -9 21 -10 41 -2 62 -51 136 -112 169
-20 11 -147 48 -153 45 -1 0 -23 -7 -49 -14z m59 -282 c-3 -10 -5 -4 -5 12 0
17 2 24 5 18 2 -7 2 -21 0 -30z m68 -4 c-6 -9 -45 -13 -45 -5 0 2 3 11 6 20 5
12 10 13 25 5 11 -5 17 -14 14 -20z m-95 -139 c-8 -5 -19 -10 -25 -10 -5 0 -3
5 5 10 8 5 20 10 25 10 6 0 3 -5 -5 -10z"/>
<path d="M6865 5459 c-22 -4 -43 -5 -47 -3 -3 2 -4 -5 -1 -16 4 -15 0 -20 -13
-20 -11 0 -15 -4 -9 -8 6 -4 12 -16 13 -27 5 -30 19 -40 37 -25 13 11 14 10 9
-4 -8 -21 5 -21 23 2 8 9 11 11 7 3 -4 -9 -3 -12 4 -7 6 4 8 14 5 22 -4 10 2
17 16 21 15 4 20 11 16 21 -3 8 0 19 6 23 22 13 -24 26 -66 18z"/>
<path d="M7315 5387 c-4 -10 -5 -31 -1 -48 3 -17 1 -39 -4 -49 -5 -10 -6 -20
-1 -22 13 -5 0 -69 -13 -65 -6 2 -12 10 -12 18 -1 8 -2 17 -3 21 0 5 -16 -7
-35 -25 -32 -30 -47 -67 -47 -112 0 -10 -5 -25 -10 -31 -12 -15 -14 -75 -5
-121 8 -37 -3 -42 -28 -14 -15 17 -32 19 -117 20 -70 1 -109 6 -130 17 -17 8
-38 14 -47 12 -9 -1 -26 3 -37 9 -20 11 -64 18 -192 29 -62 6 -73 5 -79 -10
-4 -11 -13 -15 -27 -10 -15 5 -19 3 -14 -8 4 -11 -1 -14 -19 -12 -13 1 -24 -2
-24 -7 0 -4 -7 -6 -15 -3 -8 4 -15 2 -15 -4 0 -5 -8 -9 -17 -8 -13 1 -18 -7
-19 -29 -3 -44 -3 -45 -17 -45 -18 0 -40 -43 -40 -79 0 -24 -5 -30 -26 -34
-14 -3 -41 1 -60 9 -18 8 -35 14 -37 14 -10 0 -3 -57 8 -68 9 -9 9 -12 0 -12
-6 0 -9 -7 -6 -15 4 -8 2 -15 -4 -15 -6 0 -13 6 -15 13 -3 6 -6 2 -6 -10 -1
-12 -7 -24 -13 -26 -10 -4 -10 -8 0 -15 11 -7 11 -10 -3 -15 -10 -5 -14 -3 -9
5 5 7 -1 9 -19 4 -19 -4 -29 -1 -35 10 -6 10 -16 15 -26 11 -18 -7 -22 -37 -5
-37 21 0 -2 -19 -37 -30 -19 -7 -46 -23 -59 -36 -28 -28 -34 -43 -8 -23 15 12
16 12 10 -4 -6 -15 -4 -16 16 -3 12 8 33 16 46 18 21 2 25 -1 26 -24 1 -19 -3
-28 -13 -28 -8 0 -12 -6 -9 -14 4 -10 1 -13 -9 -9 -7 3 -14 0 -14 -6 0 -6 -10
-11 -22 -11 -19 0 -20 -2 -8 -11 11 -7 12 -12 3 -15 -7 -3 -10 -11 -7 -19 3
-7 -4 -19 -16 -25 -11 -6 -18 -15 -15 -20 3 -4 -1 -11 -7 -13 -10 -4 -9 -8 2
-17 12 -9 10 -10 -10 -5 -24 6 -24 5 -6 -9 11 -9 14 -16 8 -16 -8 0 -10 -9 -6
-27 4 -21 3 -24 -5 -13 -5 8 -13 11 -17 7 -4 -3 -2 -13 4 -20 9 -10 8 -18 -2
-33 -7 -10 -16 -32 -20 -47 -4 -17 -11 -25 -18 -21 -8 5 -9 2 -5 -9 4 -12 1
-17 -11 -17 -10 0 -13 -3 -7 -8 16 -12 16 -32 0 -32 -8 0 -15 -4 -15 -10 0 -5
6 -10 13 -10 8 0 7 -4 -3 -11 -11 -8 -12 -12 -2 -16 6 -2 12 -11 12 -19 0 -8
-6 -14 -12 -14 -9 0 -8 -4 2 -10 13 -8 12 -10 -2 -10 -10 0 -18 -7 -18 -16 0
-14 2 -15 18 -3 15 12 16 12 5 -2 -7 -9 -9 -20 -5 -24 4 -5 -1 -5 -10 -2 -20
7 -35 -9 -16 -16 8 -3 6 -6 -4 -6 -10 -1 -18 4 -18 9 0 6 -12 10 -27 10 -22 0
-25 2 -13 10 8 5 11 10 5 10 -5 0 -3 5 5 10 13 8 12 10 -4 10 -12 0 -16 5 -12
15 3 8 3 15 0 15 -7 0 -35 -28 -34 -35 2 -38 -1 -58 -9 -46 -5 7 -11 9 -14 3
-9 -13 -1 -157 8 -172 5 -9 4 -11 -3 -6 -7 4 -12 2 -12 -3 0 -6 7 -11 15 -11
9 0 15 -9 15 -22 0 -19 -2 -20 -10 -8 -8 13 -10 13 -10 -1 0 -9 9 -19 21 -22
12 -3 18 -10 14 -17 -4 -6 -1 -18 7 -27 12 -15 11 -15 -10 -4 -13 7 -26 10
-30 7 -3 -3 0 -6 6 -6 7 0 12 -10 12 -22 0 -19 -2 -20 -10 -8 -7 11 -10 11
-10 2 0 -22 -23 -39 -46 -34 -21 4 -22 1 -17 -34 2 -22 -1 -59 -7 -84 -38
-151 -39 -152 -50 -300 -5 -69 -14 -156 -20 -195 -23 -152 -11 -346 35 -550
52 -227 50 -211 26 -241 -11 -15 -21 -31 -21 -36 0 -5 -9 -18 -19 -29 -24 -26
-32 -69 -36 -179 -2 -65 -12 -112 -40 -200 -20 -63 -34 -126 -32 -139 3 -16
-3 -36 -18 -55 -12 -17 -30 -53 -40 -79 -22 -59 -31 -65 -55 -35 l-19 23 4
-23 c2 -12 7 -28 11 -35 4 -6 -2 -4 -13 6 -11 9 -28 17 -39 17 -14 0 -15 -3
-6 -9 8 -5 11 -17 7 -33 -5 -18 -2 -27 9 -31 22 -9 20 -24 -4 -32 -11 -3 -20
-15 -20 -26 0 -10 -4 -19 -10 -19 -6 0 -5 -10 2 -25 8 -18 17 -24 30 -19 15 4
18 0 18 -30 0 -41 -12 -46 -34 -14 -9 12 -16 18 -16 13 0 -15 41 -89 53 -97
12 -8 45 18 86 67 11 14 15 14 22 3 13 -20 12 8 -1 32 -9 17 -6 20 26 26 21 4
61 2 91 -3 59 -11 70 0 21 21 -29 13 -30 14 -10 15 36 1 61 -16 55 -38 -3 -10
1 -22 8 -27 9 -5 11 -2 6 10 -4 10 1 24 13 36 16 16 20 34 20 95 0 42 4 75 10
75 15 0 23 46 12 67 -8 14 2 37 44 108 60 102 120 190 147 216 31 29 89 12
231 -64 71 -39 141 -72 155 -73 48 -5 85 -15 177 -46 84 -28 92 -33 103 -65 9
-23 24 -40 48 -51 33 -16 35 -19 30 -59 -5 -50 10 -60 56 -37 l31 17 -17 -26
c-23 -35 -22 -40 11 -33 64 15 83 16 78 7 -3 -5 0 -11 6 -14 7 -2 -5 -3 -27
-2 -48 1 -75 -10 -75 -32 0 -11 4 -13 13 -6 6 6 27 10 46 10 30 0 32 -2 15
-14 -10 -7 -21 -13 -26 -13 -4 0 -8 -4 -8 -9 0 -5 22 -9 49 -8 36 2 46 5 40
14 -7 8 -1 9 24 3 45 -10 59 -19 51 -33 -4 -7 5 -1 20 13 l28 25 -29 3 c-33 3
-73 22 -73 34 0 5 8 8 18 7 9 -2 27 2 39 9 21 12 25 10 43 -20 12 -20 20 -27
20 -16 0 9 3 23 6 32 4 10 1 16 -9 16 -8 0 -18 7 -21 16 -10 25 -7 64 4 64 13
0 27 36 34 86 l6 39 -10 -33 c-9 -28 -14 -31 -36 -26 -16 4 -31 1 -44 -11 -10
-9 -24 -14 -31 -9 -7 4 -10 3 -5 -4 3 -6 3 -13 -2 -16 -4 -3 -8 18 -8 46 0 28
2 46 4 40 2 -6 10 -8 18 -5 17 6 18 -1 3 -30 -9 -18 -7 -18 15 5 29 31 33 48
11 48 -8 0 -15 4 -15 10 0 5 -7 7 -16 3 -14 -5 -16 -1 -12 19 l5 26 -38 -25
c-40 -26 -73 -25 -63 2 4 10 0 15 -15 15 -12 0 -29 9 -38 19 -9 11 -20 18 -25
15 -4 -3 -11 2 -14 10 -3 9 -10 14 -14 11 -11 -7 -23 31 -15 45 3 5 -19 34
-50 64 -39 39 -55 62 -55 81 0 15 -10 40 -22 55 -13 15 -35 48 -50 73 -25 43
-37 52 -173 118 -165 80 -167 83 -168 191 -1 52 3 71 18 88 16 18 17 24 7 41
-11 17 -9 21 13 31 14 6 25 16 26 22 3 41 8 57 28 84 12 18 26 32 31 32 5 0
22 19 38 43 17 23 41 54 54 68 28 30 108 145 108 156 1 5 14 24 30 43 17 19
30 39 30 44 0 5 9 19 19 30 25 27 62 112 53 122 -4 4 -2 4 5 0 7 -4 28 26 59
86 70 138 70 138 23 208 -22 33 -37 66 -33 72 4 7 3 8 -4 4 -7 -4 -12 -1 -12
9 0 9 -4 14 -9 11 -12 -8 -36 22 -26 32 4 4 10 1 12 -5 3 -7 9 -13 14 -13 6 0
5 8 -1 20 -12 22 -1 26 20 8 12 -11 12 -10 0 5 -8 11 -13 32 -12 48 1 16 -2
29 -8 29 -5 0 -10 7 -10 16 0 14 -3 14 -15 4 -9 -7 -19 -10 -23 -6 -4 4 0 13
9 19 18 14 38 64 21 53 -6 -3 -13 -2 -17 4 -6 10 13 15 48 12 16 -2 17 0 4 12
-9 10 -30 14 -63 11 -57 -3 -144 12 -144 26 0 6 28 7 70 4 39 -4 70 -3 71 2 0
4 2 16 4 25 2 10 -2 16 -8 15 -32 -6 -6 126 28 139 10 4 12 12 4 31 -5 13 -9
31 -9 39 0 16 37 19 74 4 35 -13 34 5 -1 24 -16 8 -24 15 -19 16 5 0 3 7 -4
15 -16 19 -9 19 35 1 25 -11 35 -11 38 -3 2 7 12 12 23 12 10 0 18 6 17 13 -2
6 3 12 10 13 6 0 2 4 -10 9 -30 12 -29 21 3 51 18 16 28 20 31 12 5 -15 43
-17 43 -3 0 6 -8 10 -17 10 -16 1 -16 2 1 15 11 8 31 15 45 16 14 0 20 3 14 6
-16 6 -17 24 -1 20 6 -1 21 12 33 30 12 18 25 29 29 26 3 -4 6 -1 6 5 0 7 6
12 13 12 10 0 64 38 114 80 7 5 23 10 37 10 13 0 26 5 28 11 3 8 10 6 20 -5
21 -21 29 -20 21 1 -4 9 13 -2 36 -25 23 -22 54 -43 69 -47 15 -3 42 -19 60
-35 52 -48 37 -83 -18 -40 -14 11 -32 19 -40 19 -14 0 97 -109 112 -109 4 0
43 -25 88 -55 44 -30 80 -51 80 -48 0 4 5 2 12 -5 16 -16 136 -15 168 1 23 12
25 19 25 73 0 63 -19 114 -41 114 -7 0 -28 30 -46 68 -18 37 -36 69 -40 70 -5
2 -8 10 -8 19 0 8 -16 30 -35 49 -19 18 -35 42 -35 53 0 11 -6 26 -14 33 -7 8
-17 28 -20 45 -4 17 -16 41 -27 54 -10 12 -19 29 -19 38 0 9 -10 45 -21 81
-29 90 -33 125 -19 178 14 56 20 96 24 177 1 33 6 68 10 77 4 9 6 27 3 40 -4
21 -4 21 -6 -3 -1 -30 -27 -45 -46 -29 -9 8 -14 7 -17 -2 -3 -8 -7 -6 -11 6
-5 11 -3 15 5 10 8 -5 9 -2 5 10 -4 9 -3 15 1 12 5 -3 8 19 8 48 -1 36 -5 53
-14 53 -12 0 -17 -13 -26 -71 -11 -63 -26 -48 -27 27 -1 32 -5 57 -10 57 -4 0
-9 8 -12 18 -4 16 -4 16 -12 -1z m-60 -507 c3 -5 2 -10 -4 -10 -5 0 -13 5 -16
10 -3 6 -2 10 4 10 5 0 13 -4 16 -10z m51 -97 c4 -10 20 -47 37 -83 17 -36 31
-68 31 -72 1 -3 4 -10 9 -14 4 -4 7 -17 7 -28 0 -25 49 -168 73 -213 9 -18 17
-37 17 -44 0 -6 17 -37 39 -68 51 -75 73 -120 67 -134 -2 -7 -5 -4 -5 6 -1 10
-5 16 -10 12 -9 -5 -61 54 -61 69 0 5 -14 28 -30 53 -47 69 -58 95 -70 165
-12 65 -12 66 -54 82 -23 9 -57 29 -76 45 l-35 29 28 11 c27 11 27 11 12 41
-9 17 -23 34 -30 37 -8 3 -13 8 -10 12 2 4 -14 23 -36 42 l-40 34 53 17 c68
22 77 22 84 1z m-241 -44 c-16 -4 -66 -17 -109 -28 -44 -11 -83 -26 -88 -33
-5 -9 -8 -10 -8 -1 0 7 -19 13 -47 15 -41 3 -35 5 48 16 52 7 115 19 140 27
24 7 55 14 69 13 23 0 23 -1 -5 -9z m-382 -76 c-13 -2 -35 -2 -50 0 -16 2 -5
4 22 4 28 0 40 -2 28 -4z m-875 -758 c-3 -3 -9 2 -12 12 -6 14 -5 15 5 6 7 -7
10 -15 7 -18z m42 -34 c14 -27 13 -30 -7 -26 -10 2 -25 4 -33 5 -11 1 -12 3
-2 7 10 4 10 8 1 19 -9 11 -7 14 9 14 12 0 26 -9 32 -19z m-10 -45 c0 -3 -4
-8 -10 -11 -5 -3 -10 -1 -10 4 0 6 5 11 10 11 6 0 10 -2 10 -4z m760 -268 c0
-12 -6 -9 -26 13 -19 22 -19 22 4 8 12 -8 22 -17 22 -21z m250 -2053 c0 -8 -9
-15 -20 -15 -22 0 -27 15 -7 23 21 9 27 7 27 -8z m10 -84 c3 -2 -3 -1 -12 2
-9 3 -19 1 -21 -6 -3 -9 -9 -8 -22 3 -13 10 -16 11 -11 2 6 -10 0 -10 -22 2
-38 19 -43 28 -31 46 5 9 9 10 9 4 0 -7 7 -15 16 -18 12 -5 14 -1 8 16 -6 19
-1 18 37 -12 24 -19 46 -36 49 -39z m10 -47 c0 -2 -9 0 -20 6 -11 6 -20 13
-20 16 0 2 9 0 20 -6 11 -6 20 -13 20 -16z m-1485 -22 c15 -12 21 -23 15 -32
-7 -11 -13 -10 -34 4 -26 17 -31 27 -19 39 9 10 12 9 38 -11z m285 -14 c0 -26
-17 -41 -35 -31 -16 9 -16 11 0 26 20 20 35 22 35 5z m1162 -20 c-8 -8 -9 -4
-5 13 4 13 8 18 11 10 2 -7 -1 -18 -6 -23z m-1388 -16 c3 -5 -1 -9 -9 -9 -8 0
-12 4 -9 9 3 4 7 8 9 8 2 0 6 -4 9 -8z m16 -26 c0 -2 -9 -6 -20 -9 -11 -3 -18
-1 -14 4 5 9 34 13 34 5z m-50 -95 c0 -5 -7 -12 -16 -15 -14 -5 -15 -4 -4 9
14 17 20 19 20 6z"/>
<path d="M6165 5380 c-31 -12 -56 -45 -49 -64 3 -9 10 -16 15 -16 4 0 6 -7 3
-15 -4 -9 0 -15 9 -15 8 0 23 -11 33 -25 10 -14 28 -25 39 -25 11 0 42 -7 69
-15 26 -8 52 -12 57 -9 5 3 12 -3 16 -13 8 -21 32 -42 94 -83 37 -24 62 -32
140 -40 52 -6 114 -15 139 -20 72 -15 83 -13 70 10 -9 16 -8 20 5 20 20 0 19
27 -1 47 -14 15 -14 17 0 25 9 5 23 5 35 -2 27 -14 41 -13 41 4 0 18 -22 34
-27 19 -6 -16 -53 -3 -54 16 -2 28 3 46 14 53 7 4 8 8 2 8 -5 0 -19 -12 -31
-27 -16 -20 -23 -23 -29 -13 -5 8 -4 11 3 6 15 -9 27 13 13 27 -6 6 -20 11
-31 12 -16 1 -17 -1 -8 -13 32 -38 0 -84 -43 -61 -14 7 -24 8 -31 1 -14 -14
-71 31 -100 77 -19 31 -22 32 -29 15 -4 -10 -8 -13 -8 -6 -1 7 -14 12 -31 12
-22 0 -28 -4 -24 -15 7 -16 -11 -21 -20 -6 -4 5 -14 8 -24 7 -10 -2 -24 9 -34
26 -10 16 -29 34 -43 40 -19 9 -22 14 -13 21 9 6 8 7 -5 3 -17 -6 -56 8 -67
24 -8 11 -73 18 -95 10z m185 -157 c0 -10 -4 -14 -8 -8 -4 6 -11 13 -16 18 -5
4 -2 7 7 7 10 0 17 -8 17 -17z m415 7 c3 -5 1 -10 -4 -10 -6 0 -11 5 -11 10 0
6 2 10 4 10 3 0 8 -4 11 -10z m-25 -95 c0 -8 -6 -15 -14 -15 -7 0 -19 7 -26
15 -11 13 -8 15 14 15 16 0 26 -5 26 -15z"/>
<path d="M8873 5382 c-13 -2 -23 -7 -23 -11 0 -5 -20 -16 -45 -25 -34 -14 -46
-24 -51 -44 -3 -15 -7 -33 -10 -40 -2 -7 5 -34 16 -61 10 -27 16 -52 13 -55
-4 -3 -1 -6 5 -6 25 0 10 -20 -33 -46 -25 -14 -42 -30 -39 -36 3 -5 -2 -27
-11 -49 -10 -22 -15 -42 -12 -45 3 -3 31 -6 61 -6 31 -1 56 -5 56 -9 0 -5 7
-6 15 -3 8 4 22 1 30 -6 14 -11 14 -15 0 -31 -9 -9 -30 -23 -46 -29 -16 -7
-27 -16 -24 -20 3 -5 -4 -6 -15 -3 -11 3 -20 1 -20 -4 0 -6 -11 -8 -25 -5 -14
2 -25 9 -25 14 0 5 -4 6 -10 3 -5 -3 -20 6 -33 21 -21 24 -27 26 -53 16 -16
-6 -24 -11 -19 -11 6 -1 9 -23 8 -53 -3 -56 5 -109 38 -248 11 -47 25 -105 31
-130 5 -25 11 -55 11 -67 1 -13 4 -23 8 -23 4 0 6 -11 5 -23 -3 -20 1 -24 26
-23 15 1 28 4 28 9 0 4 5 7 11 7 5 0 7 -4 4 -10 -3 -5 0 -10 7 -11 7 0 -3 -7
-22 -14 -43 -17 -53 -18 -45 -5 3 6 -1 7 -10 3 -11 -3 -13 -8 -6 -12 6 -4 -12
-22 -41 -42 -64 -43 -179 -183 -218 -265 -18 -37 -35 -98 -45 -157 -8 -53 -18
-105 -22 -114 -9 -26 -34 -53 -44 -47 -5 3 -18 0 -30 -7 -30 -16 -17 4 32 48
32 29 39 42 38 72 0 30 -2 33 -10 16 -7 -15 -8 -12 -3 12 3 18 -1 69 -10 115
-8 46 -17 115 -20 153 -4 39 -12 106 -18 149 l-12 79 -13 -69 c-23 -125 -27
-178 -15 -170 7 4 12 22 12 39 0 57 12 110 21 95 11 -17 11 -115 0 -122 -10
-6 -8 -63 3 -73 10 -10 7 -25 -4 -18 -5 3 -10 -1 -10 -9 0 -9 5 -16 11 -16 6
0 8 -13 5 -30 -2 -19 0 -30 7 -30 8 0 8 -3 -1 -9 -10 -6 -12 -32 -9 -104 2
-53 1 -94 -3 -92 -4 3 -10 -2 -13 -10 -3 -7 -22 -17 -41 -20 -42 -8 -61 -28
-52 -52 5 -11 4 -14 -2 -8 -5 6 -15 55 -21 110 -12 92 -46 253 -55 263 -8 7
-55 -97 -70 -155 -25 -95 -65 -265 -72 -308 -7 -50 -36 -130 -69 -195 -14 -27
-25 -56 -25 -63 0 -14 101 -97 118 -97 5 0 22 -11 38 -25 17 -14 23 -25 15
-25 -9 0 -7 -6 7 -18 17 -15 19 -21 9 -31 -9 -9 -9 -14 1 -20 8 -5 13 -10 12
-12 -2 -5 16 -52 39 -104 10 -22 46 -105 81 -185 35 -80 86 -188 113 -240 119
-228 137 -265 133 -276 -2 -6 1 -17 7 -24 9 -10 9 -14 0 -17 -7 -3 -13 -17
-13 -31 0 -14 -21 -77 -46 -140 -60 -148 -84 -235 -84 -302 0 -42 -6 -64 -23
-90 -38 -55 -59 -132 -56 -202 2 -55 0 -63 -19 -71 -25 -12 -30 -52 -9 -82 8
-11 16 -30 20 -43 4 -19 3 -21 -9 -11 -7 6 -24 9 -37 5 -19 -4 -29 -21 -50
-83 -22 -67 -24 -86 -17 -133 4 -30 5 -89 2 -130 -12 -133 2 -370 22 -382 8
-6 8 -8 -1 -8 -8 0 -13 -15 -13 -40 0 -25 5 -40 13 -41 6 0 3 -4 -8 -9 -11 -5
-14 -9 -7 -9 7 -1 10 -5 7 -11 -3 -5 1 -10 9 -10 9 0 16 -4 16 -10 0 -5 -8
-10 -17 -10 -17 -1 -17 -1 0 -11 9 -6 14 -15 11 -21 -4 -6 1 -17 11 -25 14
-10 15 -13 4 -13 -8 0 -15 -9 -15 -20 0 -11 6 -20 14 -20 7 0 10 5 7 10 -3 6
-1 10 4 10 14 0 14 -17 1 -25 -17 -10 -11 -43 9 -50 13 -4 17 -12 13 -27 -3
-13 1 -26 12 -34 20 -14 13 -34 -10 -34 -21 0 -9 -39 18 -62 19 -17 147 -18
2319 -18 l2299 0 0 656 0 656 -72 -6 c-145 -11 -312 -16 -798 -22 -272 -3
-497 -8 -499 -10 -2 -2 53 -4 124 -4 153 0 164 -9 14 -11 -57 -2 -96 -4 -86
-6 9 -3 17 -9 17 -14 0 -14 -48 -11 -53 4 -3 7 -6 5 -6 -5 -1 -15 8 -18 61
-18 45 0 59 -3 51 -11 -6 -6 -33 -10 -62 -8 -28 2 -51 1 -51 -3 0 -5 -28 -8
-62 -8 -40 0 -58 -4 -49 -9 7 -5 32 -7 55 -5 30 3 36 2 21 -5 -21 -9 -21 -9
25 -24 8 -3 -4 -6 -27 -6 -23 -1 -44 4 -46 9 -3 6 -4 5 -3 -2 2 -8 25 -15 62
-18 l59 -5 -85 -10 c-47 -5 -107 -8 -135 -8 l-50 1 45 -8 c25 -4 48 -6 52 -4
4 3 10 0 13 -6 5 -8 -9 -9 -44 -4 -28 4 -51 4 -51 1 0 -3 25 -13 55 -23 31 -9
58 -21 61 -25 8 -14 -20 -11 -35 4 -10 8 -15 9 -18 1 -2 -6 -16 -9 -31 -7 -23
3 -24 2 -7 -6 14 -7 0 -9 -50 -7 -52 3 -60 2 -30 -4 37 -7 38 -7 10 -10 -28
-3 -27 -3 10 -10 33 -6 27 -7 -37 -9 -44 0 -80 -6 -84 -12 -5 -8 11 -9 54 -4
69 8 99 2 99 -21 0 -14 -11 -15 -86 -10 -56 5 -97 3 -116 -4 -44 -17 -75 -5
-76 28 -1 24 -2 23 -8 -8 -7 -34 -7 -34 -14 18 -4 29 -12 50 -17 47 -6 -4 -10
2 -10 12 0 13 -3 14 -8 5 -6 -9 -14 -6 -32 13 l-23 25 29 1 c16 1 34 1 41 0
17 -2 25 16 12 25 -8 5 -9 3 -4 -7 5 -8 4 -11 0 -6 -14 12 -17 94 -6 116 14
25 -6 238 -25 268 -8 12 -33 31 -56 41 l-43 19 26 11 c19 8 29 23 39 57 12 42
11 47 -6 60 -10 8 -24 15 -31 15 -7 0 -24 24 -38 53 -14 28 -68 102 -121 162
-52 61 -100 118 -105 127 -7 13 -3 30 12 60 17 33 20 52 16 91 -6 48 -5 50 43
98 26 26 52 59 56 71 4 13 13 27 20 33 18 14 19 35 4 73 -13 34 -29 43 -26 14
0 -9 -5 -16 -12 -14 -7 1 -24 3 -37 4 -18 2 -25 8 -25 24 0 27 27 39 48 22 13
-11 15 -10 10 4 -5 11 0 18 13 21 10 3 17 1 14 -3 -3 -5 -1 -11 4 -14 15 -10
21 23 9 52 -6 15 -11 30 -10 33 1 4 4 30 6 59 3 29 8 55 10 58 3 2 -1 17 -9
31 -17 34 -6 56 24 46 22 -7 28 4 12 21 -6 5 -4 14 5 22 15 14 15 13 26 -27 2
-8 -1 -35 -8 -60 l-11 -46 50 -57 c27 -32 55 -55 61 -51 6 3 8 3 4 -2 -4 -4 0
-14 9 -20 15 -11 15 -17 4 -41 -11 -27 -11 -28 4 -13 9 9 18 31 20 50 1 19 14
54 28 79 33 59 84 202 97 270 11 60 41 140 52 140 16 0 79 132 98 203 15 60
18 102 16 194 -3 79 -2 95 3 48 3 -42 9 -63 13 -53 4 10 17 104 29 210 12 106
23 195 24 196 7 8 44 -10 42 -19 -5 -22 248 -159 292 -159 17 0 50 9 74 21 39
19 48 31 100 133 55 109 107 254 107 301 0 13 4 26 9 29 5 4 12 30 16 59 12
84 16 85 74 21 30 -32 61 -74 69 -94 9 -19 18 -37 19 -39 1 -2 9 2 18 9 20 17
19 43 -6 92 -25 48 -20 79 19 118 27 26 33 28 132 29 110 2 174 15 167 34 -2
8 -31 12 -80 12 -75 0 -106 12 -93 34 4 6 19 11 34 11 36 0 130 26 147 40 24
20 7 39 -26 30 -48 -14 -152 -22 -145 -12 3 5 32 20 63 32 68 27 81 36 68 49
-14 14 -129 -10 -177 -36 -5 -2 -8 5 -8 16 0 11 21 41 47 65 35 34 44 49 36
57 -14 14 -63 -16 -63 -38 0 -8 -5 -11 -10 -8 -6 4 -10 3 -9 -2 3 -20 -2 -24
-17 -12 -14 11 -22 7 -61 -34 -40 -43 -73 -60 -73 -38 0 4 12 25 26 46 34 51
74 135 74 157 0 29 -28 21 -46 -14 -22 -43 -85 -130 -91 -125 -2 3 6 20 17 38
90 143 103 179 63 179 -19 -1 -40 -28 -98 -127 -20 -35 -40 -63 -45 -63 -11 0
38 130 57 152 17 19 14 53 -6 53 -7 0 -23 -18 -35 -40 -11 -22 -24 -41 -28
-43 -3 -2 -12 -25 -19 -52 -7 -27 -17 -46 -22 -43 -5 3 -8 0 -5 -7 2 -8 -12
-28 -31 -45 -74 -66 -118 -73 -150 -22 -47 76 -107 101 -82 34 13 -34 1 -42
-44 -27 -19 6 -50 11 -67 9 -18 -1 -42 2 -53 6 -54 19 -74 23 -117 24 -53 1
-118 8 -161 17 -20 4 -27 10 -23 21 5 11 1 13 -17 7 -49 -17 -106 -6 -165 32
-2 1 3 11 10 23 16 27 52 27 103 1 22 -11 56 -20 77 -20 20 0 49 -5 62 -12 22
-9 30 -8 48 8 15 13 18 14 10 3 -10 -14 -10 -18 4 -23 8 -3 25 -6 37 -6 20 0
20 0 -2 24 l-23 24 22 7 c18 6 21 12 16 36 -4 20 -2 29 8 29 26 0 56 37 56 69
0 28 -2 31 -25 25 -23 -6 -25 -3 -25 25 0 17 6 41 13 52 9 17 9 23 0 26 -7 2
-10 10 -7 18 3 8 1 22 -4 32 -8 14 -10 5 -9 -36 1 -39 -2 -56 -12 -59 -8 -3
-11 0 -7 7 9 14 -18 26 -35 15 -9 -5 -8 -9 6 -14 15 -5 13 -8 -14 -20 -36 -15
-50 -8 -31 16 11 13 11 17 0 24 -14 9 -41 3 -37 -8 1 -4 -7 -28 -18 -53 l-19
-47 -39 14 c-22 8 -52 14 -68 14 -17 0 -29 5 -29 13 0 9 -3 8 -9 -2 -6 -10
-10 -10 -16 -1 -4 7 -17 9 -31 6 -22 -6 -24 -3 -24 27 0 19 -2 36 -5 39 -11
10 -55 -17 -55 -33 0 -18 -35 -18 -81 -1 -25 10 -96 8 -107 -2 -3 -3 10 -6 28
-6 44 0 34 -8 -13 -12 -40 -2 -44 -17 -9 -33 12 -5 22 -13 22 -16 0 -4 8 -5
19 -2 10 3 22 -1 26 -8 5 -7 4 -10 -2 -6 -6 4 -37 1 -70 -7 l-58 -14 71 -1
c105 -1 169 -40 91 -55 -19 -4 -52 -15 -74 -26 -35 -16 -40 -23 -36 -45 3 -14
9 -25 13 -25 11 0 7 -34 -5 -42 -6 -5 -3 -8 7 -8 12 0 15 -5 11 -17 -4 -11 -3
-14 5 -9 7 4 12 1 12 -9 0 -9 4 -14 9 -11 5 3 12 -5 15 -19 4 -15 14 -25 24
-25 15 0 15 -2 2 -11 -12 -9 -11 -10 7 -6 16 4 20 1 16 -11 -5 -11 -2 -14 10
-9 11 4 17 1 17 -7 0 -15 -16 -16 -38 -3 -7 5 -22 5 -35 2 -18 -5 -19 -4 -7 5
13 10 12 11 -3 6 -10 -3 -24 -6 -30 -6 -7 0 -6 -5 3 -11 12 -9 11 -10 -7 -6
-13 3 -26 1 -29 -4 -3 -5 4 -9 16 -9 12 0 18 -5 15 -10 -4 -6 -9 -8 -13 -6 -6
3 -51 11 -129 21 -12 2 -36 6 -55 10 -24 5 -29 4 -18 -4 8 -6 10 -11 5 -11 -6
0 -16 5 -23 12 -7 7 -12 8 -12 2 0 -6 -25 -9 -57 -9 -58 1 -100 -7 -95 -19 6
-16 1 -25 -13 -20 -8 4 -15 2 -15 -4 0 -12 29 -24 41 -16 5 3 14 2 20 -2 8 -4
3 -11 -12 -19 -20 -11 -25 -10 -37 4 -12 14 -13 14 -8 -4 8 -36 16 -109 17
-166 l2 -56 57 1 c53 1 57 3 48 19 -8 16 -7 17 9 9 14 -8 25 -5 46 13 15 13
27 29 27 35 0 5 7 10 15 10 8 0 15 5 15 10 0 6 7 10 15 10 8 0 15 6 15 14 0 8
5 18 12 22 7 5 8 3 3 -7 -5 -8 5 0 21 16 59 59 100 85 134 85 21 0 21 -1 -6
-47 -15 -27 -40 -73 -56 -103 -57 -107 -64 -116 -78 -112 -11 2 -12 1 -3 -5
18 -13 4 -53 -18 -53 -11 0 -18 -5 -17 -12 2 -6 -17 -22 -42 -34 -24 -13 -48
-32 -52 -44 -4 -11 -12 -20 -18 -20 -5 0 -9 -3 -9 -7 1 -5 1 -16 0 -26 -1 -14
-4 -15 -20 -6 -10 7 -26 9 -36 5 -14 -5 -15 -9 -5 -21 9 -10 9 -15 1 -15 -6 0
-11 5 -11 10 0 6 -8 10 -17 11 -16 0 -16 1 1 8 11 4 15 10 10 14 -12 7 -29 -3
-37 -23 -3 -9 -6 -2 -7 15 -1 26 -3 28 -10 10 -7 -14 -8 -8 -3 20 3 22 6 45 5
50 -1 6 -3 62 -5 125 -2 64 -9 125 -15 136 -5 11 -18 55 -26 99 -9 44 -19 87
-23 95 -3 8 -7 25 -8 38 -1 13 -8 28 -15 35 -10 10 -12 8 -8 -9 3 -12 2 -28
-3 -35 -8 -12 -11 -11 -19 1 -5 8 -10 23 -10 32 0 11 -5 15 -15 12 -19 -8 -20
40 -2 75 15 30 37 39 37 16 0 -14 8 -16 45 -13 25 2 45 0 45 -4 0 -9 101 -11
124 -2 9 3 16 13 16 21 0 9 -6 13 -15 9 -8 -3 -14 0 -12 7 1 9 -19 12 -73 11
-72 0 -76 1 -78 23 -2 29 74 86 177 134 113 51 136 65 139 82 3 13 -3 14 -35
6 -21 -5 -42 -9 -46 -9 -5 0 -5 -4 -2 -10 3 -6 -1 -7 -9 -4 -22 8 -20 11 17
30 36 18 77 53 77 66 0 4 -9 8 -21 8 -13 0 -18 -4 -13 -12 4 -7 3 -8 -4 -4
-12 7 -54 -23 -47 -34 2 -3 -5 -6 -16 -6 -19 0 -19 1 -3 13 21 16 15 17 -21 3
-16 -6 -23 -14 -19 -22 5 -7 3 -8 -6 -3 -10 6 -1 19 33 49 44 38 60 66 38 66
-5 0 -24 -14 -42 -30 -18 -17 -38 -28 -46 -25 -9 3 -17 -2 -20 -13 -5 -20 -63
-55 -94 -57 -25 -2 -43 -27 -69 -97 -31 -85 -42 -79 -14 7 26 83 29 110 14
120 -6 4 -8 11 -5 16 7 10 -19 41 -28 33 -2 -3 -7 3 -11 12 -5 13 -2 15 14 11
25 -6 26 11 3 29 -14 11 -15 13 -2 9 13 -5 15 3 14 47 -3 68 -15 122 -25 111
-11 -11 -17 -132 -6 -136 4 -1 2 -8 -6 -15 -13 -10 -15 -4 -17 44 -1 47 -16
120 -37 186 -11 36 -21 17 -13 -25 8 -46 5 -175 -6 -185 -10 -11 -22 17 -28
68 -6 46 -49 185 -61 198 -18 17 -17 -18 2 -93 12 -47 22 -97 22 -111 0 -14 4
-22 10 -19 15 9 12 -4 -4 -21 -12 -12 -15 -6 -21 39 -8 60 -43 177 -57 192 -7
7 -8 -11 -4 -50 9 -98 18 -135 30 -135 7 0 7 -3 -2 -8 -7 -5 -10 -16 -6 -26 5
-14 9 -15 15 -4 6 9 9 8 9 -7 0 -11 7 -31 16 -43 8 -12 12 -22 8 -22 -3 0 0
-8 7 -17 10 -11 10 -14 2 -9 -9 5 -13 1 -13 -13 0 -11 -4 -23 -10 -26 -6 -4
-10 6 -10 22 0 37 -10 73 -20 73 -5 0 -5 -13 0 -30 5 -16 5 -32 1 -34 -4 -3
-8 -31 -9 -63 -1 -32 -4 -68 -6 -80 -3 -13 -1 -23 4 -23 4 0 10 -29 12 -65 3
-74 -11 -82 -28 -14 -7 28 -16 43 -24 41 -11 -3 -11 0 -1 12 9 11 9 16 0 22
-7 4 -9 3 -5 -4 3 -5 1 -12 -6 -14 -6 -2 -11 -21 -10 -44 2 -39 -8 -65 -24
-66 -11 -1 -27 -6 -72 -24 -18 -7 -30 -9 -27 -5 3 5 -4 7 -15 4 -11 -3 -20 -9
-20 -13 0 -5 -10 -6 -22 -3 -19 4 -20 3 -8 -6 13 -9 12 -11 -5 -11 -12 0 -25
-4 -30 -9 -6 -5 -26 -11 -45 -14 -19 -2 -34 -8 -33 -13 1 -6 -7 -10 -17 -10
-10 0 -16 4 -14 8 3 4 0 8 -5 8 -6 0 -11 -7 -11 -17 0 -13 -4 -11 -20 7 -11
13 -20 19 -20 14 0 -6 4 -14 10 -20 6 -6 2 -10 -13 -11 -12 0 -17 1 -12 3 13
5 3 128 -13 167 l-12 29 -105 -5 c-91 -3 -105 -2 -105 12 0 23 16 45 27 38 5
-3 68 -8 139 -12 l129 -5 2 37 c1 26 -1 33 -7 23 -6 -9 -10 -10 -10 -3 0 6 5
15 10 18 6 3 10 16 9 28 0 21 -1 21 -9 2 -7 -15 -9 -10 -9 23 -1 23 3 42 8 42
6 0 8 9 6 20 -2 11 0 20 6 20 5 0 9 -22 9 -48 0 -38 5 -53 22 -68 19 -16 20
-16 9 -1 -8 9 -11 21 -7 24 4 4 11 1 16 -7 6 -9 10 -10 10 -3 0 6 -4 14 -10
18 -5 3 -6 13 -3 21 3 9 8 11 12 6 3 -6 6 44 6 109 0 84 -3 119 -11 119 -10 0
-64 -149 -63 -174 1 -5 -6 -13 -15 -18 -9 -5 -16 -16 -16 -24 0 -8 -4 -12 -10
-9 -5 3 -10 0 -10 -8 0 -7 -20 -32 -44 -55 -38 -36 -51 -42 -88 -42 -31 0 -51
7 -70 24 -28 24 -38 43 -15 30 9 -6 9 -4 -1 8 -11 14 -9 19 10 32 12 9 34 16
48 16 20 0 22 2 10 10 -12 8 -8 10 15 11 17 1 36 2 44 1 8 0 24 6 35 15 20 15
20 15 -6 10 -15 -2 -25 -1 -23 3 2 4 -13 8 -35 9 -68 2 -75 4 -82 15 -5 8 -8
7 -8 -1 0 -9 -15 -13 -42 -12 -39 1 -40 2 -13 8 24 5 26 8 13 13 -10 4 -18 14
-18 23 0 8 -4 14 -9 13 -18 -6 -67 42 -91 88 -14 27 -31 53 -38 57 -11 7 -10
13 5 30 17 20 17 20 -1 14 -14 -6 -17 -3 -12 8 3 8 1 15 -4 15 -6 0 -11 -15
-11 -32 -1 -18 -3 -25 -6 -15 -5 20 -23 23 -23 5 -1 -7 -20 8 -43 33 -41 45
-69 58 -114 51z m92 -142 c13 0 45 -32 45 -44 0 -7 -3 -7 -8 -1 -4 6 -16 17
-26 25 -18 14 -19 14 -8 -7 17 -30 15 -36 -8 -30 -18 4 -20 2 -14 -16 7 -22 6
-22 -15 -3 -15 14 -19 26 -14 40 3 12 6 34 4 50 l-2 30 19 -22 c11 -12 23 -22
27 -22z m-61 -114 c-3 -7 6 -20 19 -29 25 -16 62 -102 51 -118 -3 -5 -12 -9
-20 -9 -18 0 -18 -8 0 -26 13 -12 17 -10 35 12 l21 26 10 -27 c5 -14 10 -31
10 -36 0 -5 7 -12 15 -15 22 -9 19 -25 -13 -64 -42 -51 -54 -79 -48 -105 4
-16 13 -23 28 -22 26 0 87 -11 100 -19 4 -3 8 -1 8 4 0 5 9 12 20 15 11 3 20
2 20 -2 0 -14 -41 -51 -57 -51 -9 0 -24 -7 -34 -16 -23 -21 -51 -12 -42 13 4
10 11 21 17 25 6 4 8 10 4 13 -9 9 -92 -15 -100 -29 -5 -7 -8 -4 -8 8 0 14 -6
17 -25 14 -16 -3 -32 2 -47 16 -12 12 -26 20 -30 18 -5 -1 -8 3 -8 9 0 5 -4 8
-9 5 -5 -3 -11 1 -15 9 -3 8 -12 15 -20 15 -18 0 -25 19 -19 51 6 32 65 73 93
64 11 -3 18 -10 16 -14 -3 -4 4 -7 14 -7 15 0 17 3 7 14 -9 11 -6 19 16 38 36
31 34 37 -9 32 -30 -3 -33 -2 -20 8 15 10 15 13 0 24 -9 8 -13 22 -10 34 3 11
0 26 -6 33 -8 10 -4 13 21 13 17 0 31 -4 31 -10 0 -5 5 -10 10 -10 18 0 11 50
-7 57 -29 11 -47 53 -23 53 5 0 7 -6 4 -14z m1209 -16 c3 -11 1 -18 -4 -14 -5
3 -9 12 -9 20 0 20 7 17 13 -6z m-1270 -7 c-7 -2 -19 -2 -25 0 -7 3 -2 5 12 5
14 0 19 -2 13 -5z m286 -115 c1 -20 -4 -49 -11 -63 l-11 -25 -11 22 c-6 12 -9
44 -7 72 3 38 6 46 12 31 7 -19 8 -19 8 3 1 12 -3 22 -8 22 -5 0 -7 10 -3 22
5 20 7 19 18 -12 7 -19 13 -52 13 -72z m129 55 c5 -18 -23 -16 -39 3 -11 14
-10 15 11 12 13 -1 25 -9 28 -15z m926 -41 c3 -5 -1 -9 -9 -9 -8 0 -12 4 -9 9
3 4 7 8 9 8 2 0 6 -4 9 -8z m-1131 -40 c15 -16 15 -19 2 -19 -8 0 -13 3 -10 5
3 3 0 11 -6 19 -17 20 -5 16 14 -5z m88 -83 c18 0 50 -3 70 -7 34 -7 35 -8 27
-39 -5 -18 -15 -33 -23 -33 -11 0 -12 6 -6 23 8 20 6 23 -10 22 -10 -1 -22 -4
-25 -8 -11 -11 -26 -8 -19 3 4 6 -4 9 -17 7 -15 -1 -22 3 -20 11 1 8 -2 11 -8
7 -5 -3 -21 6 -35 22 -33 38 -32 53 3 20 19 -18 39 -27 63 -28z m2099 2 c0 -6
-5 -13 -10 -16 -15 -9 -43 3 -35 15 8 13 45 13 45 1z m102 -3 c3 -7 3 -19 1
-26 -4 -10 -8 -8 -18 5 -13 18 -11 33 5 33 4 0 10 -6 12 -12z m-465 -64 c-3
-3 -12 -4 -19 -1 -8 3 -5 6 6 6 11 1 17 -2 13 -5z m-1657 -45 c0 -4 -7 -14
-15 -23 -8 -8 -15 -22 -15 -32 0 -10 -3 -15 -6 -11 -12 12 6 74 21 74 8 0 15
-4 15 -8z m58 -39 c4 0 8 -10 9 -22 2 -23 2 -23 -12 -3 -8 11 -18 25 -23 30
-5 6 -6 17 -4 25 4 10 7 8 13 -8 5 -12 12 -22 17 -22z m-568 16 c0 -15 -24
-28 -34 -19 -7 7 13 33 25 33 5 0 9 -6 9 -14z m1450 -5 c-5 -11 -15 -23 -22
-27 -7 -5 -8 -2 -3 7 21 37 44 55 25 20z m550 -21 c0 -5 -5 -10 -11 -10 -5 0
-7 5 -4 10 3 6 8 10 11 10 2 0 4 -4 4 -10z m-766 -57 c7 -42 6 -96 -3 -108
-13 -17 -20 -120 -10 -161 10 -46 0 -206 -13 -198 -5 3 -7 52 -6 109 l3 104
-35 36 c-19 19 -39 34 -45 31 -6 -2 -17 5 -23 15 -7 10 -18 19 -24 19 -7 0
-22 12 -35 28 l-22 27 3 -32 c2 -20 -1 -31 -8 -30 -6 1 -10 -7 -8 -18 2 -20 2
-20 -9 -1 -9 15 -9 21 -1 24 7 2 12 8 12 13 0 6 -4 7 -10 4 -6 -3 -7 1 -4 9 3
9 2 16 -4 16 -5 0 -12 -18 -14 -39 -2 -25 0 -37 7 -33 5 3 5 -1 -1 -9 -6 -8
-17 -32 -24 -54 -7 -22 -15 -44 -19 -50 -3 -5 -4 -19 -2 -30 2 -11 -1 -17 -5
-12 -4 4 -13 -5 -20 -20 -9 -21 -13 -23 -13 -9 -1 16 -3 16 -20 -5 l-19 -24 4
50 c3 28 9 66 14 85 14 53 10 158 -6 175 -12 12 -10 15 18 24 18 5 65 22 103
37 76 29 164 52 207 53 21 1 27 -4 32 -26z m-772 -25 c-7 -7 -12 -8 -12 -2 0
14 12 26 19 19 2 -3 -1 -11 -7 -17z m2424 -74 c-9 -9 -20 -13 -24 -9 -4 3 2
13 12 21 25 18 33 10 12 -12z m-2106 -4 c0 -5 -5 -10 -11 -10 -5 0 -7 5 -4 10
3 6 8 10 11 10 2 0 4 -4 4 -10z m-466 -31 c18 -8 29 -9 38 -2 8 7 22 7 36 2
25 -9 25 -1 3 -124 -5 -27 -7 -74 -5 -102 3 -32 0 -53 -6 -53 -5 0 -11 -26
-11 -57 -2 -61 -4 -55 -14 40 -7 61 -11 67 -19 26 -2 -13 -5 -26 -6 -29 -1 -3
-2 -12 -1 -22 1 -9 -3 -19 -8 -23 -7 -3 -8 0 -5 9 4 9 1 16 -6 16 -8 0 -11 -9
-8 -25 3 -14 1 -28 -3 -31 -5 -3 -9 -11 -9 -17 0 -7 4 -6 10 3 5 8 10 11 10 5
0 -5 -9 -23 -20 -40 -24 -36 -25 -27 -8 82 8 58 8 78 0 81 -7 2 -12 16 -12 30
0 15 -4 43 -10 61 -5 20 -6 39 -1 45 10 13 20 57 23 104 1 17 3 32 5 32 1 0
13 -5 27 -11z m1351 -59 c3 -5 1 -10 -4 -10 -6 0 -11 5 -11 10 0 6 2 10 4 10
3 0 8 -4 11 -10z m133 -5 c-3 -3 -29 -8 -59 -11 -30 -3 -58 -9 -63 -15 -12
-11 -26 -12 -26 0 0 12 59 29 109 30 24 1 42 -1 39 -4z m-773 -23 c-3 -3 -11
0 -18 7 -9 10 -8 11 6 5 10 -3 15 -9 12 -12z m612 12 c-3 -3 -12 -4 -19 -1 -8
3 -5 6 6 6 11 1 17 -2 13 -5z m218 -39 c-22 -20 -61 -50 -87 -68 -26 -17 -48
-37 -48 -43 0 -7 -16 -19 -35 -28 -19 -9 -35 -19 -35 -22 0 -3 6 -2 13 1 6 4
3 -1 -7 -9 -11 -9 -25 -16 -30 -16 -6 0 -4 -4 4 -10 8 -5 11 -13 6 -17 -4 -4
-14 1 -22 11 -9 13 -11 23 -4 30 5 5 10 15 10 21 0 5 -5 3 -10 -5 -5 -8 -10
-10 -10 -5 1 16 26 45 33 38 4 -3 7 -1 7 5 0 7 5 12 11 12 5 0 7 -5 3 -12 -4
-7 -3 -8 4 -4 7 4 12 14 12 22 0 8 6 13 13 12 6 -2 11 3 10 10 -2 6 4 12 13
12 9 0 30 10 46 22 33 23 130 78 138 77 3 0 -13 -15 -35 -34z m398 -15 c7 0 6
4 -3 10 -13 8 -13 10 2 10 16 0 30 -47 40 -130 4 -36 44 -40 60 -6 6 14 16 26
22 26 6 0 5 -5 -2 -12 -15 -15 -16 -32 -2 -23 6 4 10 3 9 -2 -5 -26 2 -73 10
-68 5 3 12 -3 14 -12 2 -10 4 -6 3 8 -2 18 2 25 10 22 8 -3 15 6 19 24 15 70
24 88 18 33 -3 -30 -5 -73 -3 -95 6 -71 3 -268 -5 -317 -4 -26 -13 -55 -20
-65 -13 -17 -14 -17 -21 1 -4 10 -2 80 4 156 5 75 7 152 3 171 l-7 34 -8 -44
c-8 -52 -35 -113 -46 -106 -4 3 -13 -10 -20 -28 -16 -40 -40 -68 -51 -61 -5 3
-9 0 -9 -6 0 -6 -7 -18 -16 -27 -8 -9 -13 -22 -10 -29 3 -8 -3 -18 -13 -24
-11 -5 -18 -20 -18 -35 0 -15 -12 -38 -26 -53 -13 -15 -22 -33 -19 -41 2 -8 0
-11 -6 -7 -11 7 -20 -9 -36 -66 -5 -16 -13 -25 -19 -21 -6 4 -8 -4 -4 -23 7
-36 -7 -56 -62 -87 l-42 -24 31 -13 c25 -11 31 -18 27 -37 -2 -12 -1 -23 4
-23 4 0 12 -24 18 -52 6 -29 14 -64 16 -78 20 -94 24 -124 20 -128 -3 -3 -5 2
-5 11 0 10 -4 17 -9 17 -5 0 -16 6 -23 13 -61 59 -152 78 -254 52 -64 -17
-239 -23 -300 -11 -14 3 -36 -7 -60 -27 -22 -17 -33 -24 -25 -14 19 24 97 86
87 68 -6 -10 -5 -12 3 -7 6 4 9 11 6 16 -7 11 20 32 30 22 5 -4 5 -1 0 6 -9
17 103 135 118 125 6 -3 7 -1 4 4 -4 6 3 24 15 39 31 42 44 53 25 22 -23 -38
-21 -50 2 -14 11 16 17 35 14 42 -3 8 2 17 11 20 9 3 16 14 16 23 0 19 48 81
62 81 5 0 6 -5 2 -12 -4 -6 4 -3 19 8 14 10 31 30 37 44 9 20 5 18 -19 -10
-17 -19 -30 -30 -31 -24 0 13 69 80 78 76 3 -2 8 2 10 10 2 9 0 8 -7 -2 -6 -8
-11 -11 -11 -7 0 9 38 67 50 77 22 18 96 129 137 207 27 51 53 90 58 85 4 -4
5 -2 1 5 -3 6 0 27 8 45 8 18 19 71 26 118 16 121 31 176 42 156 5 -9 14 -16
21 -16z m-548 1 c-16 -10 -32 -16 -35 -14 -8 7 32 33 49 33 9 0 3 -8 -14 -19z
m-62 -26 c-3 -9 -8 -14 -10 -11 -3 3 -2 9 2 15 9 16 15 13 8 -4z m-1393 1 c0
-11 -19 -15 -25 -6 -3 5 1 10 9 10 9 0 16 -2 16 -4z m2535 -29 c6 0 15 2 20 4
6 1 41 -1 78 -5 64 -7 68 -9 53 -25 -9 -10 -16 -28 -16 -41 0 -32 -52 -129
-91 -170 -32 -33 -37 -35 -79 -29 -29 4 -35 7 -17 7 16 1 26 6 22 11 -3 5 5
13 16 16 29 9 11 20 -51 30 l-44 7 24 20 c25 20 78 21 123 3 10 -4 17 -3 17 3
0 15 -62 25 -115 19 l-45 -4 25 19 c15 11 41 19 65 20 23 0 37 4 34 10 -4 6
-19 8 -35 6 -16 -3 -29 0 -29 5 0 5 -7 6 -15 3 -8 -3 -23 -9 -32 -13 -13 -5
-15 -3 -9 12 4 11 2 22 -6 26 -10 6 -9 11 6 22 16 11 17 17 7 36 -12 22 -12
22 36 15 26 -4 53 -7 58 -7z m-675 -24 c-5 -16 -21 -73 -36 -128 -26 -97 -61
-182 -70 -172 -3 2 0 15 5 28 5 13 26 78 47 144 36 116 50 155 59 155 2 0 0
-12 -5 -27z m-1991 13 c-2 -2 -17 -6 -34 -10 -22 -5 -26 -4 -15 4 14 9 59 15
49 6z m1626 -96 c-3 -5 -11 -10 -16 -10 -6 0 -7 5 -4 10 3 6 11 10 16 10 6 0
7 -4 4 -10z m-785 -35 c13 -11 50 -44 81 -74 31 -30 77 -66 102 -80 25 -14 91
-55 147 -89 62 -40 115 -66 139 -69 28 -4 38 -9 34 -19 -3 -8 -11 -14 -19 -14
-17 0 -19 -27 -1 -33 7 -3 5 -6 -5 -6 -10 -1 -18 4 -18 11 0 6 -9 1 -19 -11
-11 -12 -23 -23 -28 -24 -4 -1 -21 -18 -38 -36 -16 -19 -23 -31 -15 -26 9 5 8
0 -4 -13 -11 -12 -24 -32 -31 -45 -6 -12 -17 -21 -23 -19 -7 1 -12 -3 -12 -9
0 -6 -7 -17 -15 -26 -8 -8 -13 -19 -9 -24 3 -5 2 -9 -3 -8 -25 4 -34 -2 -28
-22 5 -15 3 -20 -6 -17 -10 3 -39 -31 -39 -46 0 -1 9 -2 20 -2 12 0 19 5 16
13 -3 6 4 15 15 18 10 4 19 12 19 18 0 8 4 7 9 -2 13 -20 2 -41 -16 -34 -9 4
-14 2 -11 -3 2 -5 -6 -20 -19 -33 -13 -13 -23 -19 -23 -12 0 7 -5 9 -10 6 -6
-4 -8 -11 -5 -16 4 -5 -1 -9 -11 -9 -14 0 -15 -2 -3 -17 10 -11 10 -14 2 -9
-7 4 -13 3 -13 -1 0 -5 6 -15 13 -22 7 -9 7 -11 1 -8 -13 8 -27 -20 -18 -34 3
-5 0 -9 -6 -9 -6 0 -8 -4 -5 -10 3 -5 1 -10 -4 -10 -6 0 -11 -7 -11 -15 0 -23
-26 -18 -56 10 -29 27 -49 24 -41 -6 3 -11 1 -19 -4 -19 -5 0 -9 -7 -9 -15 0
-8 3 -15 8 -15 4 0 7 -78 7 -172 0 -160 15 -288 34 -288 4 0 8 -12 9 -27 5
-62 24 -153 52 -243 16 -52 38 -138 50 -190 28 -128 57 -182 103 -195 61 -17
75 -37 71 -106 -3 -61 -17 -92 -79 -174 -47 -62 -89 -149 -82 -169 4 -9 20
-24 37 -34 28 -16 46 -40 36 -49 -3 -3 -21 0 -40 7 -44 14 -53 9 -78 -46 -21
-50 -15 -71 26 -94 18 -9 24 -19 21 -31 -4 -12 2 -23 20 -35 35 -23 31 -34 -9
-27 -59 9 -81 -2 -99 -49 -32 -86 -48 -248 -33 -333 4 -22 7 -51 5 -65 -7 -72
-1 -346 10 -402 0 -5 9 -8 20 -8 24 0 35 -47 13 -59 -8 -5 -15 -22 -16 -40 -1
-29 -3 -31 -41 -32 l-40 -1 44 -9 c45 -9 66 -19 39 -19 -10 0 -14 -8 -13 -24
2 -16 -1 -23 -9 -20 -7 3 -23 1 -37 -4 -21 -9 -19 -10 26 -17 l50 -8 -35 -12
c-35 -12 -35 -12 -11 -24 23 -13 22 -13 -25 -36 -37 -18 -43 -24 -28 -28 16
-4 16 -5 -3 -6 -13 0 -23 4 -23 9 0 6 -9 10 -21 10 -11 0 -17 -4 -14 -10 4 -6
-43 -11 -132 -12 l-138 -2 175 -6 c136 -4 152 -6 73 -8 -106 -2 -117 -7 -92
-42 8 -12 9 -11 4 6 -5 19 -1 21 37 21 24 0 46 -4 50 -10 4 -8 10 -8 20 0 13
11 85 16 74 6 -3 -3 -19 -6 -36 -5 -17 0 -28 -3 -25 -8 6 -10 -23 -22 -36 -14
-5 3 -9 1 -9 -5 0 -5 6 -11 13 -14 6 -2 3 -2 -8 1 -11 2 -34 5 -51 6 -18 0
-40 8 -50 17 -14 12 -32 16 -69 12 -36 -3 -46 -1 -35 6 12 9 11 11 -7 11 -16
0 -21 -4 -17 -15 4 -8 17 -15 30 -15 27 0 32 -21 9 -43 -15 -16 -10 -27 13
-27 9 0 13 3 9 6 -3 3 -1 12 6 19 12 13 50 8 42 -6 -3 -4 -13 -6 -23 -3 -14 5
-15 4 -2 -5 8 -6 25 -11 38 -11 12 0 22 -4 22 -9 0 -11 -62 -9 -122 4 -26 5
-38 4 -38 -4 0 -6 14 -11 30 -11 17 0 30 -5 30 -11 0 -6 -9 -8 -22 -3 -13 4
-42 6 -65 5 -44 -1 -63 13 -44 32 15 15 14 24 -3 30 -9 4 -13 1 -10 -6 3 -8
-11 -12 -46 -12 -27 -1 -50 0 -50 2 0 1 18 7 41 13 l41 11 -23 25 c-14 15 -18
24 -9 24 7 0 10 3 7 6 -4 4 -12 2 -20 -4 -10 -8 -16 -6 -24 8 -16 24 -1 29 80
32 l62 1 -55 7 c-43 5 -50 9 -32 15 12 4 22 15 22 25 0 10 2 24 3 32 2 7 2 10
0 6 -3 -5 -8 -8 -12 -8 -17 0 3 52 30 77 16 15 25 32 20 38 -11 15 9 288 22
302 4 3 7 18 7 33 0 24 -6 29 -44 40 -35 10 -44 16 -41 31 2 11 0 17 -4 15
-22 -14 -64 -12 -95 4 l-36 18 60 4 c45 3 65 10 80 26 12 12 24 22 29 22 11 0
51 39 51 51 0 6 -12 1 -26 -10 -34 -27 -50 -26 -58 2 -4 17 3 29 33 54 37 32
39 35 30 70 -6 21 -10 68 -9 105 1 54 -5 80 -29 132 -31 69 -54 83 -81 51 -10
-12 -16 -13 -24 -5 -8 8 -8 13 0 18 6 4 13 31 16 60 5 49 4 53 -19 58 -20 5
-23 11 -18 28 4 11 9 30 12 41 4 20 -124 285 -185 382 -24 37 -32 42 -64 43
-28 0 -36 3 -32 14 3 8 12 12 20 9 8 -3 14 0 14 6 0 6 -7 11 -15 11 -8 0 -15
9 -15 20 0 11 -4 20 -10 20 -5 0 -10 13 -10 29 0 21 -5 28 -16 27 -9 0 -18 7
-19 16 -2 12 2 15 13 10 14 -5 15 -4 2 10 -11 12 -19 13 -28 5 -9 -7 -16 -6
-25 3 -10 10 -9 12 3 8 12 -4 16 5 18 46 2 28 7 53 13 54 5 2 7 7 4 12 -3 5 2
15 10 24 8 8 11 17 6 20 -9 6 -6 34 7 66 3 8 7 31 8 52 1 21 28 88 62 157 36
72 83 191 116 294 30 94 64 190 76 212 11 21 20 47 20 57 0 9 8 21 18 27 15 9
15 13 4 32 -18 29 -4 42 68 63 66 19 67 20 108 73 43 55 60 97 66 167 5 51 4
57 -9 46 -20 -17 -22 -14 -29 45 -6 48 -5 49 8 21 13 -28 14 -26 31 73 14 78
26 114 49 149 39 60 76 133 76 151 0 8 3 11 7 7 11 -10 42 74 43 119 2 35 3
37 10 15 7 -21 8 -18 11 20 1 25 2 50 2 55 0 18 40 12 67 -10z m-415 -93 c-8
-8 -25 10 -19 20 4 6 9 5 15 -3 4 -7 6 -15 4 -17z m-178 -14 c-3 -7 -5 -2 -5
12 0 14 2 19 5 13 2 -7 2 -19 0 -25z m163 -4 c0 -2 -7 -4 -15 -4 -8 0 -15 4
-15 10 0 5 7 7 15 4 8 -4 15 -8 15 -10z m-233 -36 c-3 -7 -5 -2 -5 12 0 14 2
19 5 13 2 -7 2 -19 0 -25z m-717 2 c0 -5 -4 -10 -10 -10 -5 0 -10 5 -10 10 0
6 5 10 10 10 6 0 10 -4 10 -10z m717 -57 c-3 -10 -5 -4 -5 12 0 17 2 24 5 18
2 -7 2 -21 0 -30z m148 6 c-6 -29 -15 -37 -15 -12 0 17 8 33 16 33 2 0 1 -10
-1 -21z m1042 -11 c-3 -8 -6 -5 -6 6 -1 11 2 17 5 13 3 -3 4 -12 1 -19z m-880
-10 c-3 -8 -6 -5 -6 6 -1 11 2 17 5 13 3 -3 4 -12 1 -19z m808 -38 c3 -5 2
-10 -4 -10 -5 0 -13 5 -16 10 -3 6 -2 10 4 10 5 0 13 -4 16 -10z m-679 -22
l-6 -23 11 23 c7 12 16 22 21 22 5 0 1 -11 -8 -25 -9 -14 -20 -22 -25 -19 -13
7 -11 44 2 44 6 0 8 -10 5 -22z m824 13 c0 -12 -20 -25 -27 -18 -7 7 6 27 18
27 5 0 9 -4 9 -9z m-855 -20 c-3 -5 -1 -12 5 -16 14 -9 12 -25 -2 -22 -8 1
-12 -7 -11 -18 1 -19 -12 -35 -30 -35 -11 0 1 58 17 82 6 10 14 18 19 18 4 0
6 -4 2 -9z m828 -8 c3 -5 -1 -14 -9 -21 -12 -11 -14 -9 -14 8 0 20 14 27 23
13z m-1073 -44 c0 -5 -4 -9 -10 -9 -5 0 -10 7 -10 16 0 8 5 12 10 9 6 -3 10
-10 10 -16z m1035 11 c3 -5 1 -10 -4 -10 -6 0 -11 5 -11 10 0 6 2 10 4 10 3 0
8 -4 11 -10z m105 7 c0 -2 -10 -12 -22 -23 l-23 -19 19 23 c18 21 26 27 26 19z
m-1203 -59 c-3 -8 -6 -5 -6 6 -1 11 2 17 5 13 3 -3 4 -12 1 -19z m277 -23 c-4
-8 -8 -15 -10 -15 -2 0 -4 7 -4 15 0 8 4 15 10 15 5 0 7 -7 4 -15z m-98 -51
c1 -10 2 -21 4 -24 9 -17 5 -50 -6 -50 -9 0 -14 11 -14 28 0 15 -3 38 -7 51
-4 18 -2 22 8 19 8 -3 14 -13 15 -24z m-166 -8 c0 -3 -4 -8 -10 -11 -5 -3 -10
-1 -10 4 0 6 5 11 10 11 6 0 10 -2 10 -4z m955 -46 c-3 -5 -12 -10 -18 -10 -7
0 -6 4 3 10 19 12 23 12 15 0z m-49 -25 c-8 -8 -17 -15 -20 -15 -3 0 -3 7 0
15 4 8 13 15 21 15 12 0 12 -2 -1 -15z m-739 -21 c-3 -3 -12 -4 -19 -1 -8 3
-5 6 6 6 11 1 17 -2 13 -5z m806 -520 c-14 -14 -28 -23 -30 -20 -6 6 37 45 49
46 4 0 -4 -12 -19 -26z m988 -7 c-10 -9 -11 -8 -5 6 3 10 9 15 12 12 3 -3 0
-11 -7 -18z m-411 -467 c0 -5 -2 -10 -4 -10 -3 0 -8 5 -11 10 -3 6 -1 10 4 10
6 0 11 -4 11 -10z m-1936 -1109 c45 -108 73 -152 108 -169 15 -7 36 -28 48
-48 18 -29 20 -37 9 -50 -11 -13 -7 -21 28 -53 32 -30 42 -47 47 -85 6 -35 11
-46 21 -42 20 7 10 -43 -22 -118 -21 -48 -23 -60 -12 -68 12 -8 12 -10 0 -15
-10 -4 -8 -9 10 -19 22 -12 22 -13 4 -15 -11 -1 -29 -1 -40 0 -20 2 -20 1 -1
-14 11 -8 25 -15 30 -16 6 -1 0 -4 -14 -8 -23 -7 -25 -12 -24 -63 1 -38 7 -62
18 -73 10 -11 14 -25 11 -37 -4 -10 0 -30 10 -44 16 -24 12 -94 -5 -94 -4 0
-8 -15 -8 -32 0 -61 -2 -66 -27 -72 -14 -4 -23 -11 -20 -15 3 -5 -2 -17 -11
-25 -8 -9 -13 -16 -10 -16 4 0 0 -16 -8 -35 -8 -19 -12 -35 -8 -35 4 0 0 -5
-8 -10 -13 -9 -13 -10 0 -11 8 -1 2 -5 -15 -9 l-30 -8 30 -2 c30 -2 30 -2 5
-10 -14 -4 -47 -9 -75 -10 l-50 -3 40 -7 c22 -4 30 -8 18 -9 -13 0 -23 -5 -23
-11 0 -5 -17 -10 -37 -11 -32 -1 -34 -2 -13 -8 17 -5 21 -9 12 -15 -7 -4 -10
-11 -7 -16 3 -4 -3 -11 -12 -14 -15 -6 -15 -9 -3 -16 18 -11 -62 -3 -112 12
-32 10 -36 13 -25 26 9 13 9 14 0 8 -7 -4 -13 -2 -13 3 0 11 49 16 105 12 17
-2 27 1 22 5 -4 4 -34 7 -68 6 -52 -2 -64 2 -85 23 -14 14 -28 25 -33 25 -18
0 -6 30 13 31 15 0 16 2 6 6 -31 11 -42 26 -28 34 9 6 9 9 1 9 -6 0 -14 14
-18 30 -10 44 13 88 52 101 18 6 33 16 33 22 0 7 12 25 26 42 22 26 25 37 23
90 -2 33 0 65 4 72 4 6 3 23 -3 38 -5 14 -9 29 -9 33 4 25 -7 45 -56 98 -30
32 -64 78 -75 101 -17 37 -19 49 -9 95 10 49 47 141 70 178 23 38 31 71 33
147 2 79 3 84 34 114 18 18 47 63 65 100 18 37 35 65 38 63 3 -2 23 -44 43
-93z m1620 24 c13 -9 26 -29 29 -45 4 -16 17 -34 29 -41 13 -7 35 -26 51 -42
16 -18 33 -27 42 -23 8 3 22 9 29 12 11 4 19 -8 30 -48 29 -105 29 -123 1
-156 -28 -34 -33 -77 -10 -86 12 -4 13 -11 7 -23 -17 -34 -3 -43 66 -44 47 0
61 -3 47 -9 l-20 -9 20 0 c17 -1 17 -3 5 -11 -8 -5 -10 -10 -5 -10 6 -1 0 -5
-13 -11 -15 -5 -30 -5 -42 1 -23 12 -33 13 -26 1 3 -4 -3 -18 -14 -31 -10 -12
-22 -42 -26 -66 -3 -24 -11 -44 -16 -44 -5 0 -6 -5 -3 -11 4 -6 -3 -13 -16
-16 -22 -6 -22 -7 -3 -14 11 -5 -14 -9 -66 -10 -78 -3 -80 -3 -22 -6 46 -3 62
-8 62 -18 0 -8 5 -15 11 -15 6 0 9 7 5 15 -3 8 -1 15 4 15 13 0 13 -27 1 -34
-5 -4 -47 -10 -93 -16 -45 -5 -101 -11 -123 -14 -38 -6 -39 -5 -15 8 14 8 29
12 34 9 5 -4 6 0 1 7 -8 13 -14 51 -19 122 -1 20 -8 43 -14 51 -7 8 -10 16 -7
19 3 3 -9 5 -26 6 -48 1 -48 12 0 12 l42 0 -18 25 c-10 13 -24 25 -30 25 -8 0
-13 14 -13 35 0 37 -47 142 -74 164 -22 18 -21 14 14 -62 17 -37 30 -72 30
-79 0 -17 -49 57 -53 79 -1 10 -10 29 -20 43 -20 29 -22 44 -4 34 9 -5 9 -4 0
6 -10 11 -10 17 0 28 6 8 16 29 22 46 8 25 16 31 38 31 31 1 47 18 47 51 0 14
14 27 45 42 44 21 45 22 45 72 0 27 2 50 5 50 3 0 16 -7 29 -15z m241 -368
c-15 -36 -35 -57 -35 -37 0 18 43 96 47 84 2 -6 -3 -27 -12 -47z m955 33 c0
-5 -7 -10 -15 -10 -8 0 -15 5 -15 10 0 6 7 10 15 10 8 0 15 -4 15 -10z m-1421
-75 c0 -5 -6 1 -14 15 -8 14 -14 30 -14 35 0 6 6 -1 14 -15 8 -14 14 -29 14
-35z m-919 -19 c0 -31 -12 -47 -26 -35 -10 8 -11 15 -1 30 14 22 27 25 27 5z
m-10 -66 c0 -5 -4 -10 -10 -10 -5 0 -10 5 -10 10 0 6 5 10 10 10 6 0 10 -4 10
-10z m2180 -33 c11 -5 9 -6 -4 -4 -11 1 -21 9 -23 17 -3 10 -2 11 4 4 4 -6 15
-14 23 -17z m-2105 1 c4 4 3 -3 -3 -14 -6 -12 -8 -25 -4 -29 4 -5 1 -5 -6 -1
-7 4 -10 12 -6 17 3 5 0 18 -8 27 -11 15 -11 15 3 5 9 -7 19 -9 24 -5z m-72
-64 c-3 -8 -6 -14 -7 -12 -1 2 -7 11 -14 20 -11 14 -10 16 7 11 12 -3 17 -11
14 -19z m1887 -48 c0 -2 -13 -6 -29 -8 -17 -2 -28 -1 -25 4 5 8 54 12 54 4z
m-1880 -16 c0 -5 -6 -10 -14 -10 -9 0 -12 -7 -9 -19 5 -21 -28 -38 -49 -25 -9
6 -5 10 12 14 14 3 25 11 25 18 0 7 7 17 15 22 19 12 20 12 20 0z m-216 -15
c-4 -8 -8 -15 -10 -15 -2 0 -4 7 -4 15 0 8 4 15 10 15 5 0 7 -7 4 -15z m2089
-2 c-7 -2 -21 -2 -30 0 -10 3 -4 5 12 5 17 0 24 -2 18 -5z m-1863 -7 c0 -3 -4
-8 -10 -11 -5 -3 -10 -1 -10 4 0 6 5 11 10 11 6 0 10 -2 10 -4z m1100 -151
c-24 -8 -46 -12 -49 -10 -2 3 2 7 10 9 8 2 21 7 29 9 8 3 24 5 35 6 11 0 0 -7
-25 -14z m85 -45 c45 -7 40 -7 -40 -8 -49 0 -99 -4 -110 -8 l-20 -7 20 16 c22
18 70 20 150 7z m12 -54 c3 -3 -10 -6 -30 -6 -20 0 -37 -4 -37 -10 0 -5 -15
-10 -32 -9 -31 1 -32 1 -8 9 l25 8 -25 1 c-14 1 -31 5 -38 10 -7 4 20 7 63 6
41 -1 78 -5 82 -9z m-617 -286 c0 -5 -5 -10 -11 -10 -5 0 -7 5 -4 10 3 6 8 10
11 10 2 0 4 -4 4 -10z m-65 -228 c-3 -3 -11 0 -18 7 -9 10 -8 11 6 5 10 -3 15
-9 12 -12z m-245 -2 c0 -5 -2 -10 -4 -10 -3 0 -8 5 -11 10 -3 6 -1 10 4 10 6
0 11 -4 11 -10z m-255 -10 c-3 -5 -10 -10 -16 -10 -5 0 -9 5 -9 10 0 6 7 10
16 10 8 0 12 -4 9 -10z m-645 -9 c0 -5 10 -6 23 -3 21 5 21 5 4 -13 -15 -14
-16 -20 -6 -26 8 -4 10 -11 7 -15 -4 -3 -14 0 -22 9 -8 8 -12 17 -9 21 4 3 2
6 -4 6 -5 0 -10 7 -10 15 0 8 4 15 9 15 4 0 8 -4 8 -9z m77 -7 c-3 -3 -12 -4
-19 -1 -8 3 -5 6 6 6 11 1 17 -2 13 -5z m-2 -24 c-3 -5 -12 -7 -20 -3 -21 7
-19 13 6 13 11 0 18 -4 14 -10z m582 -32 c-3 -8 -6 -5 -6 6 -1 11 2 17 5 13 3
-3 4 -12 1 -19z m316 15 c-7 -2 -19 -2 -25 0 -7 3 -2 5 12 5 14 0 19 -2 13 -5z
m-899 -29 c3 -8 1 -14 -4 -14 -6 0 -10 5 -10 11 0 5 -4 7 -10 4 -5 -3 -10 1
-10 9 0 18 26 11 34 -10z m-77 10 c-3 -3 -12 -4 -19 -1 -8 3 -5 6 6 6 11 1 17
-2 13 -5z"/>
<path d="M8937 4783 c-10 -9 -9 -23 2 -23 5 0 11 7 15 15 5 15 -5 20 -17 8z"/>
<path d="M9102 4960 c0 -19 2 -27 5 -17 2 9 2 25 0 35 -3 9 -5 1 -5 -18z"/>
<path d="M9042 4355 c0 -16 2 -22 5 -12 2 9 2 23 0 30 -3 6 -5 -1 -5 -18z"/>
<path d="M10841 4047 c-13 -21 -12 -21 5 -5 10 10 16 20 13 22 -3 3 -11 -5
-18 -17z"/>
<path d="M10776 3925 c-9 -26 -7 -32 5 -12 6 10 9 21 6 23 -2 3 -7 -2 -11 -11z"/>
<path d="M10754 3588 c-3 -4 6 -8 20 -8 14 0 26 4 26 8 0 4 -9 8 -21 8 -11 0
-23 -4 -25 -8z"/>
<path d="M10636 3461 c-4 -5 3 -7 14 -4 23 6 26 13 6 13 -8 0 -17 -4 -20 -9z"/>
<path d="M10334 3359 c-16 -18 -16 -19 -1 -13 9 3 17 10 17 15 0 6 9 5 20 -1
11 -6 20 -8 20 -6 0 3 -8 10 -19 15 -14 8 -23 6 -37 -10z"/>
<path d="M10058 3823 c7 -3 16 -2 19 1 4 3 -2 6 -13 5 -11 0 -14 -3 -6 -6z"/>
<path d="M10025 3800 c3 -5 10 -10 16 -10 5 0 9 5 9 10 0 6 -7 10 -16 10 -8 0
-12 -4 -9 -10z"/>
<path d="M9987 3782 c-10 -10 -14 -22 -10 -26 4 -4 0 -4 -10 0 -11 4 -17 1
-17 -9 0 -8 -7 -17 -15 -21 -9 -3 -12 -12 -8 -22 4 -12 3 -15 -5 -10 -7 4 -23
-4 -37 -18 -14 -15 -31 -26 -37 -26 -6 0 -9 -3 -5 -6 8 -9 -63 -75 -74 -68 -5
3 -6 -2 -3 -11 6 -14 11 -12 38 12 16 15 38 36 47 46 9 9 21 17 28 17 6 0 11
5 11 10 0 6 6 10 13 10 7 0 35 21 61 46 41 39 46 47 34 61 -9 12 -10 15 0 9 7
-4 12 -1 12 8 0 20 -3 20 -23 -2z"/>
<path d="M9731 3556 c-14 -17 -1 -28 19 -16 11 7 12 12 4 20 -8 8 -14 7 -23
-4z"/>
<path d="M9628 393 c7 -3 16 -2 19 1 4 3 -2 6 -13 5 -11 0 -14 -3 -6 -6z"/>
<path d="M9323 223 c9 -2 23 -2 30 0 6 3 -1 5 -18 5 -16 0 -22 -2 -12 -5z"/>
<path d="M9478 213 c7 -3 16 -2 19 1 4 3 -2 6 -13 5 -11 0 -14 -3 -6 -6z"/>
<path d="M9218 183 c12 -2 32 -2 45 0 12 2 2 4 -23 4 -25 0 -35 -2 -22 -4z"/>
<path d="M9328 183 c6 -2 18 -2 25 0 6 3 1 5 -13 5 -14 0 -19 -2 -12 -5z"/>
<path d="M9263 162 c-7 -4 -9 -12 -5 -18 10 -15 74 -50 105 -57 42 -11 24 18
-24 37 -21 9 -39 21 -39 27 0 6 7 8 16 5 8 -3 12 -2 9 4 -7 12 -45 13 -62 2z"/>
<path d="M9398 113 c7 -3 16 -2 19 1 4 3 -2 6 -13 5 -11 0 -14 -3 -6 -6z"/>
<path d="M9305 60 c-3 -5 3 -10 14 -10 11 0 23 5 26 10 3 6 -3 10 -14 10 -11
0 -23 -4 -26 -10z"/>
<path d="M8920 889 c0 -5 5 -7 10 -4 6 3 10 8 10 11 0 2 -4 4 -10 4 -5 0 -10
-5 -10 -11z"/>
<path d="M8930 681 c0 -5 5 -13 10 -16 6 -3 10 -2 10 4 0 5 -4 13 -10 16 -5 3
-10 2 -10 -4z"/>
<path d="M8717 209 c7 -7 15 -10 18 -7 3 3 -2 9 -12 12 -14 6 -15 5 -6 -5z"/>
<path d="M8633 143 c9 -2 25 -2 35 0 9 3 1 5 -18 5 -19 0 -27 -2 -17 -5z"/>
<path d="M10410 816 c0 -2 16 -6 35 -8 19 -2 35 0 35 4 0 4 -16 8 -35 8 -19 0
-35 -2 -35 -4z"/>
<path d="M9229 5321 c-30 -34 -32 -42 -10 -57 12 -9 19 -19 16 -24 -5 -8 41
-6 85 4 21 5 20 4 -5 -8 -16 -8 -34 -12 -40 -8 -5 3 -7 1 -2 -3 9 -10 57 -14
51 -4 -2 4 5 9 16 12 15 4 18 11 14 33 -3 16 -9 30 -14 32 -5 2 -7 9 -4 16 2
6 -3 12 -13 13 -10 1 -31 4 -48 7 -21 4 -35 0 -46 -13z"/>
<path d="M9595 5330 c-3 -5 -1 -18 4 -27 9 -16 10 -14 11 10 0 28 -5 34 -15
17z"/>
<path d="M9465 5313 c-11 -3 -31 -16 -44 -31 -23 -24 -24 -25 -4 -20 17 5 20
2 15 -16 -3 -11 -2 -18 3 -14 4 4 14 0 23 -8 12 -13 16 -13 23 -2 5 7 9 10 9
5 0 -13 50 25 50 38 0 7 -12 18 -27 23 -22 8 -24 11 -8 11 17 1 17 3 5 11 -8
5 -17 9 -20 9 -3 -1 -14 -3 -25 -6z"/>
<path d="M7236 5285 c-3 -8 -1 -15 4 -15 6 0 10 7 10 15 0 8 -2 15 -4 15 -2 0
-6 -7 -10 -15z"/>
<path d="M7770 5218 c-14 -11 -25 -25 -25 -31 0 -6 -6 -12 -14 -15 -8 -3 -11
0 -7 7 11 18 -9 13 -27 -7 -10 -10 -14 -22 -10 -27 5 -4 0 -5 -9 -2 -10 3 -20
1 -24 -5 -5 -7 -2 -8 6 -3 8 5 11 3 8 -6 -3 -8 -11 -13 -18 -11 -8 2 -10 -3
-7 -13 4 -10 0 -15 -11 -16 -13 0 -14 -2 -3 -6 9 -4 24 6 38 23 22 28 23 28
23 6 0 -12 -7 -25 -16 -29 -13 -5 -13 -7 -2 -14 18 -12 31 -11 23 1 -3 5 7 16
23 24 16 8 34 22 41 30 7 9 17 13 22 10 5 -3 9 0 9 5 0 6 6 11 13 11 16 0 57
42 57 58 0 8 -14 5 -41 -8 l-40 -21 11 21 c17 32 8 41 -20 18z"/>
<path d="M7689 5211 c-13 -11 -21 -22 -17 -26 9 -9 26 2 38 26 13 24 8 24 -21
0z"/>
<path d="M7101 5178 c-1 -10 -6 -18 -11 -18 -6 0 -1 -18 10 -40 20 -39 30 -47
43 -34 8 8 -3 34 -15 34 -5 0 -6 -5 -2 -12 4 -6 3 -8 -4 -5 -5 4 -8 15 -6 25
3 9 1 28 -5 42 -7 18 -10 20 -10 8z"/>
<path d="M7640 5168 c0 -6 -3 -8 -7 -5 -8 9 -33 -25 -26 -36 3 -5 16 2 29 14
25 24 31 39 14 39 -5 0 -10 -5 -10 -12z"/>
<path d="M9296 5154 c-5 -14 -4 -15 9 -4 17 14 19 20 6 20 -5 0 -12 -7 -15
-16z"/>
<path d="M2291 5145 c0 -12 4 -26 10 -32 8 -8 8 -13 0 -17 -6 -4 -11 -16 -11
-26 0 -10 -14 -27 -31 -37 l-30 -18 25 -5 c25 -5 25 -6 11 -33 -12 -24 -12
-29 0 -33 11 -4 9 -10 -6 -25 -19 -19 -19 -19 -44 3 -18 16 -36 22 -60 19 -29
-2 -37 2 -57 33 -30 46 -58 58 -98 45 -26 -10 -29 -13 -18 -27 7 -8 29 -22 48
-30 19 -8 61 -33 95 -57 62 -44 124 -70 185 -80 19 -3 52 -9 74 -14 44 -11 62
-7 70 17 3 9 9 23 12 30 3 7 -2 12 -14 12 -21 0 -46 23 -35 33 3 4 -2 7 -11 7
-11 0 -16 5 -13 14 4 9 0 12 -12 9 -10 -2 -23 3 -30 11 -8 9 -10 16 -5 16 5 0
2 5 -6 10 -13 9 -13 10 0 10 13 0 13 1 0 11 -12 9 -11 10 5 6 11 -3 28 -8 38
-12 12 -5 17 -3 15 6 -2 8 -12 17 -23 20 -11 3 -19 11 -17 17 1 7 -4 11 -10
10 -7 -2 -12 5 -10 14 1 9 -2 19 -8 23 -16 10 -12 25 5 19 8 -4 15 -2 15 4 0
15 -28 35 -39 28 -5 -4 -12 4 -14 16 -4 21 -4 21 -6 3z m-105 -262 c-10 -10
-19 5 -10 18 6 11 8 11 12 0 2 -7 1 -15 -2 -18z"/>
<path d="M10937 5149 c7 -7 15 -10 18 -7 3 3 -2 9 -12 12 -14 6 -15 5 -6 -5z"/>
<path d="M2270 5115 c0 -8 4 -15 10 -15 5 0 7 7 4 15 -4 8 -8 15 -10 15 -2 0
-4 -7 -4 -15z"/>
<path d="M2383 5111 c4 -29 27 -52 27 -27 0 9 -7 24 -15 32 -13 14 -15 13 -12
-5z"/>
<path d="M6340 5126 c0 -2 7 -7 16 -10 8 -3 12 -2 9 4 -6 10 -25 14 -25 6z"/>
<path d="M9330 5110 c41 -22 50 -24 50 -9 0 5 -4 8 -9 5 -4 -3 -17 1 -27 9
-10 8 -26 14 -34 14 -8 0 1 -8 20 -19z"/>
<path d="M7578 5098 c2 -10 8 -15 13 -12 14 8 11 31 -5 31 -8 0 -11 -8 -8 -19z"/>
<path d="M10336 5097 c-10 -7 -16 -19 -14 -27 2 -10 -4 -14 -16 -12 -10 2 -15
-1 -12 -6 3 -6 0 -13 -6 -15 -9 -4 -8 -6 3 -6 19 -1 84 65 71 73 -5 3 -17 0
-26 -7z"/>
<path d="M10927 5103 c-13 -12 -7 -30 19 -59 27 -30 23 -13 -4 18 -12 14 -12
20 -2 33 12 14 0 22 -13 8z"/>
<path d="M7554 5088 c-12 -19 -15 -46 -5 -52 5 -3 11 8 15 26 7 35 2 46 -10
26z"/>
<path d="M8600 5086 c0 -19 19 -31 31 -19 5 5 0 14 -11 21 -17 10 -20 10 -20
-2z"/>
<path d="M8546 5054 c-8 -31 14 -57 40 -47 9 3 14 0 12 -7 -2 -7 3 -15 10 -17
11 -4 12 -1 3 15 -14 26 -31 37 -31 21 0 -8 -4 -8 -15 1 -17 14 -21 35 -5 25
12 -8 13 5 1 23 -6 10 -10 6 -15 -14z"/>
<path d="M7770 5060 c0 -5 5 -10 11 -10 5 0 7 5 4 10 -3 6 -8 10 -11 10 -2 0
-4 -4 -4 -10z"/>
<path d="M7520 5048 c0 -10 -6 -18 -12 -18 -7 0 -5 -5 5 -11 27 -16 35 -7 20
21 -9 18 -13 20 -13 8z"/>
<path d="M7715 5041 c-3 -5 -2 -12 3 -15 5 -3 9 1 9 9 0 17 -3 19 -12 6z"/>
<path d="M6916 5025 c4 -8 11 -15 16 -15 6 0 5 6 -2 15 -7 8 -14 15 -16 15 -2
0 -1 -7 2 -15z"/>
<path d="M9380 5020 c0 -5 5 -10 10 -10 6 0 10 5 10 10 0 6 -4 10 -10 10 -5 0
-10 -4 -10 -10z"/>
<path d="M7596 5001 c-3 -5 1 -12 10 -15 22 -8 25 -4 9 11 -8 7 -16 9 -19 4z"/>
<path d="M5975 4986 c-19 -14 -19 -16 -2 -33 15 -15 19 -16 32 -2 13 12 13 18
2 32 -11 16 -14 16 -32 3z"/>
<path d="M7494 4989 c-3 -6 -2 -15 3 -20 5 -5 14 0 21 11 10 17 10 20 -2 20
-8 0 -18 -5 -22 -11z"/>
<path d="M4930 4943 c-36 -43 -54 -80 -64 -136 -4 -21 -9 -44 -12 -51 -3 -7 4
-12 16 -12 11 0 20 4 20 7 0 4 7 14 15 23 13 13 13 17 2 28 -13 12 -11 47 3
58 3 3 17 26 29 53 13 26 27 47 32 47 5 0 9 5 9 10 0 19 -18 10 -50 -27z"/>
<path d="M5064 4957 c-56 -40 -114 -94 -114 -105 0 -17 27 -15 42 3 30 36 52
54 60 49 4 -3 8 -1 8 3 0 5 7 18 16 29 8 10 12 12 8 4 -6 -12 -4 -13 6 -3 15
14 23 43 12 43 -4 -1 -21 -11 -38 -23z"/>
<path d="M11350 4960 c0 -5 5 -10 10 -10 6 0 10 5 10 10 0 6 -4 10 -10 10 -5
0 -10 -4 -10 -10z"/>
<path d="M7476 4943 c-4 -9 -3 -20 1 -24 4 -4 9 3 9 17 2 28 -1 31 -10 7z"/>
<path d="M5149 4931 c-21 -16 -93 -51 -106 -51 -2 0 -1 5 2 10 3 6 4 10 2 10
-7 0 -47 -83 -43 -88 3 -2 14 6 26 18 14 14 28 19 41 15 13 -5 28 2 49 23 16
16 31 28 33 25 2 -2 12 8 21 21 20 32 6 41 -25 17z"/>
<path d="M6007 4939 c-9 -5 -22 -7 -29 -3 -7 4 -8 3 -4 -4 4 -7 2 -12 -4 -12
-6 0 -24 -10 -41 -22 -24 -18 -27 -24 -14 -28 14 -5 14 -8 -2 -25 -34 -37 -65
-99 -68 -138 -3 -35 -2 -37 9 -21 8 10 11 25 8 34 -5 13 -3 13 11 1 15 -12 17
-11 17 7 0 12 9 23 20 27 11 3 20 11 20 16 0 6 5 7 12 3 8 -5 9 0 6 14 -4 12
-2 20 3 16 5 -3 9 0 9 6 0 6 5 8 10 5 6 -3 10 1 10 9 0 9 4 16 10 16 5 0 7 8
3 18 -5 14 -3 14 11 -3 11 -13 16 -14 13 -5 -5 17 17 42 29 32 4 -4 4 -1 0 6
-6 10 -11 10 -21 2 -10 -8 -15 -8 -21 2 -4 7 -4 10 1 6 4 -4 14 -3 22 3 10 9
17 8 30 -2 11 -9 10 -3 -6 19 -12 17 -23 32 -24 32 -1 0 -10 -5 -20 -11z"/>
<path d="M9564 4911 c0 -11 4 -17 8 -15 4 3 8 12 8 20 0 8 -4 14 -8 14 -4 0
-8 -9 -8 -19z"/>
<path d="M4636 4895 c-9 -26 -7 -32 5 -12 6 10 9 21 6 23 -2 3 -7 -2 -11 -11z"/>
<path d="M4690 4850 c0 -5 5 -10 10 -10 6 0 10 5 10 10 0 6 -4 10 -10 10 -5 0
-10 -4 -10 -10z"/>
<path d="M5093 4829 c-67 -31 -81 -45 -64 -62 8 -8 16 -4 31 13 16 18 23 20
34 11 11 -10 17 -7 30 10 8 12 12 27 9 32 -3 6 -1 7 6 3 6 -4 8 -13 5 -19 -5
-9 -4 -9 5 -1 7 7 11 18 9 26 -2 12 -16 9 -65 -13z"/>
<path d="M10598 4843 c7 -3 16 -2 19 1 4 3 -2 6 -13 5 -11 0 -14 -3 -6 -6z"/>
<path d="M10698 4813 c-10 -2 -18 -8 -18 -13 0 -5 15 -5 33 0 17 5 41 11 52
13 11 3 4 5 -15 5 -19 0 -43 -2 -52 -5z"/>
<path d="M9486 4795 c-3 -8 -1 -15 4 -15 6 0 10 -15 11 -32 l1 -33 9 30 c5 19
5 31 -1 33 -6 2 -10 7 -10 12 0 9 26 7 36 -3 13 -12 24 -7 18 8 -4 8 -18 15
-34 15 -16 0 -30 -7 -34 -15z"/>
<path d="M4692 4775 c0 -16 2 -22 5 -12 2 9 2 23 0 30 -3 6 -5 -1 -5 -18z"/>
<path d="M8486 4764 c-13 -74 -18 -330 -6 -318 22 22 42 156 37 240 -6 99 -20
136 -31 78z"/>
<path d="M4911 4764 c-12 -15 -21 -31 -21 -35 0 -17 -2 -24 -11 -41 -7 -13 -5
-15 14 -12 12 2 16 2 10 -2 -10 -4 -10 -9 1 -20 27 -26 53 -15 47 20 -1 5 5 6
13 3 26 -10 50 17 42 48 -8 32 -36 76 -36 57 0 -6 -7 -12 -16 -12 -8 0 -12 5
-9 10 14 22 -15 8 -34 -16z"/>
<path d="M5991 4774 c0 -11 3 -14 6 -6 3 7 2 16 -1 19 -3 4 -6 -2 -5 -13z"/>
<path d="M10614 4775 c-10 -8 -14 -15 -8 -15 6 0 17 7 24 15 16 19 9 19 -16 0z"/>
<path d="M5970 4740 c-8 -5 -11 -12 -7 -17 5 -4 12 -1 16 6 7 11 10 11 14 0 3
-9 6 -10 6 -2 1 17 -13 23 -29 13z"/>
<path d="M6110 4720 c0 -5 5 -10 11 -10 5 0 7 5 4 10 -3 6 -8 10 -11 10 -2 0
-4 -4 -4 -10z"/>
<path d="M8380 4705 c-18 -48 -41 -204 -37 -250 3 -33 0 -45 -10 -45 -9 0 -13
16 -13 55 0 30 -4 55 -10 55 -10 0 -11 -9 -14 -73 0 -16 -10 -35 -21 -43 -17
-13 -18 -16 -5 -24 8 -5 24 -7 35 -4 20 6 20 6 1 -9 -19 -14 -19 -14 0 -26 16
-10 15 -11 -11 -6 -16 3 -25 3 -19 0 6 -3 9 -18 6 -33 -2 -15 1 -43 7 -62 9
-31 10 -28 4 23 -3 36 -2 57 5 57 13 0 28 -53 32 -120 1 -19 4 -27 7 -17 2 9
9 14 15 10 7 -4 9 0 5 10 -3 10 -2 17 3 17 6 0 9 3 8 8 -1 4 4 20 11 36 6 16
10 35 7 43 -3 7 3 17 13 23 20 10 21 4 8 -30 -3 -8 -18 -51 -33 -95 -15 -44
-32 -81 -36 -83 -4 -2 -8 -11 -9 -20 0 -14 -2 -13 -9 3 -7 16 -9 13 -9 -17 -1
-41 12 -49 29 -18 6 11 8 20 6 20 -3 0 10 28 28 63 19 34 37 73 41 87 4 14 16
37 27 52 14 20 17 36 12 65 -5 36 -8 39 -34 35 -27 -4 -28 -4 -32 65 -3 37 -1
112 4 167 9 103 6 127 -12 81z m-13 -237 c-3 -8 -6 -5 -6 6 -1 11 2 17 5 13 3
-3 4 -12 1 -19z"/>
<path d="M5960 4690 c0 -11 2 -20 4 -20 2 0 6 9 9 20 3 11 1 20 -4 20 -5 0 -9
-9 -9 -20z"/>
<path d="M6040 4700 c-18 -12 -2 -12 25 0 13 6 15 9 5 9 -8 0 -22 -4 -30 -9z"/>
<path d="M4675 4690 c3 -5 8 -10 11 -10 2 0 4 5 4 10 0 6 -5 10 -11 10 -5 0
-7 -4 -4 -10z"/>
<path d="M8272 4661 c-6 -17 -9 -31 -6 -31 7 0 25 52 20 57 -2 2 -8 -10 -14
-26z"/>
<path d="M8231 4569 c-12 -29 -20 -54 -17 -56 2 -2 13 19 25 48 12 28 20 53
18 55 -2 3 -14 -19 -26 -47z"/>
<path d="M4855 4571 c-3 -5 -1 -12 5 -16 5 -3 10 1 10 9 0 18 -6 21 -15 7z"/>
<path d="M4950 4560 c-21 -13 -9 -20 50 -27 53 -6 53 -6 34 13 -10 11 -22 16
-25 11 -4 -5 -14 -5 -26 1 -11 6 -25 7 -33 2z"/>
<path d="M5940 4536 c0 -2 8 -10 18 -17 15 -13 16 -12 3 4 -13 16 -21 21 -21
13z"/>
<path d="M10350 4530 c-6 -4 7 -7 30 -8 22 -1 40 0 40 2 0 7 -60 12 -70 6z"/>
<path d="M3327 4418 c-8 -30 -1 -35 23 -13 25 23 26 35 1 35 -11 0 -21 -9 -24
-22z"/>
<path d="M5965 4400 c-3 -5 -1 -10 4 -10 6 0 11 5 11 10 0 6 -2 10 -4 10 -3 0
-8 -4 -11 -10z"/>
<path d="M5916 4357 c3 -10 9 -15 12 -12 3 3 0 11 -7 18 -10 9 -11 8 -5 -6z"/>
<path d="M8516 4343 c-6 -14 -5 -15 5 -6 7 7 10 15 7 18 -3 3 -9 -2 -12 -12z"/>
<path d="M8186 4325 c-3 -9 -6 -29 -5 -43 1 -22 3 -19 10 12 10 40 6 60 -5 31z"/>
<path d="M8507 4297 c-3 -8 -1 -20 4 -28 5 -9 9 -9 9 -2 0 6 3 18 6 27 3 9 2
16 -4 16 -5 0 -12 -6 -15 -13z"/>
<path d="M5916 4234 c-5 -14 -4 -15 9 -4 17 14 19 20 6 20 -5 0 -12 -7 -15
-16z"/>
<path d="M8182 4202 c-3 -67 7 -117 20 -104 6 6 9 36 6 71 -5 77 -23 100 -26
33z"/>
<path d="M8302 4180 c0 -14 2 -19 5 -12 2 6 2 18 0 25 -3 6 -5 1 -5 -13z"/>
<path d="M10307 4183 c-12 -12 -7 -22 8 -17 8 4 15 1 15 -5 0 -6 7 -11 16 -11
8 0 13 4 10 9 -4 5 -3 11 1 14 5 2 2 2 -6 0 -7 -2 -19 1 -26 7 -6 5 -15 7 -18
3z"/>
<path d="M5800 4026 c0 -14 4 -27 8 -30 5 -3 6 8 4 25 -5 35 -12 38 -12 5z"/>
<path d="M8218 4013 c-4 -94 -3 -110 9 -133 12 -23 18 -20 14 4 -1 6 -3 27 -3
48 0 21 -3 38 -7 38 -4 0 -5 18 -3 40 2 22 1 40 -2 40 -3 0 -7 -17 -8 -37z"/>
<path d="M3128 4011 c-8 -11 -29 -24 -48 -29 -19 -6 -30 -11 -23 -11 7 -1 10
-7 7 -15 -4 -10 5 -15 30 -18 29 -3 37 0 42 15 3 10 3 21 1 24 -3 3 -2 16 3
29 11 29 6 31 -12 5z"/>
<path d="M3048 3888 c-7 -16 7 -45 14 -32 3 5 2 18 -2 28 -5 16 -8 17 -12 4z"/>
<path d="M3079 3858 c-2 -42 0 -55 13 -87 6 -15 12 -21 15 -13 7 18 23 15 24
-5 1 -34 28 41 29 80 0 38 -2 40 -52 51 -26 6 -28 4 -29 -26z"/>
<path d="M6620 3700 c0 -5 5 -10 11 -10 5 0 7 5 4 10 -3 6 -8 10 -11 10 -2 0
-4 -4 -4 -10z"/>
<path d="M5634 3645 c-5 -19 -1 -32 11 -43 10 -10 15 -12 11 -5 -3 6 -2 13 4
15 5 1 11 14 12 28 4 35 -29 40 -38 5z"/>
<path d="M6655 3486 c10 -14 19 -26 22 -26 7 0 -17 39 -28 46 -6 3 -3 -5 6
-20z"/>
<path d="M1221 3293 c0 -6 -4 -20 -7 -30 -5 -14 -4 -15 5 -7 7 7 11 20 8 30
-3 11 -5 14 -6 7z"/>
<path d="M1231 2754 c0 -11 3 -14 6 -6 3 7 2 16 -1 19 -3 4 -6 -2 -5 -13z"/>
<path d="M10688 2763 c7 -3 16 -2 19 1 4 3 -2 6 -13 5 -11 0 -14 -3 -6 -6z"/>
<path d="M1180 2706 c0 -9 5 -16 10 -16 6 0 10 4 10 9 0 6 -4 13 -10 16 -5 3
-10 -1 -10 -9z"/>
<path d="M1160 1930 c-7 -17 -10 -33 -8 -36 3 -3 11 9 17 27 14 42 7 49 -9 9z"/>
<path d="M1126 1864 c-4 -9 -4 -19 -1 -22 2 -3 7 3 11 12 4 9 4 19 1 22 -2 3
-7 -3 -11 -12z"/>
<path d="M1081 1810 c-31 -26 -17 -26 16 0 14 11 22 20 17 20 -5 -1 -20 -10
-33 -20z"/>
<path d="M6843 1729 c10 -6 25 -28 33 -49 15 -36 17 -38 40 -28 13 6 24 15 24
21 0 5 7 6 16 3 13 -5 12 0 -5 26 -18 30 -25 33 -73 35 -41 2 -49 0 -35 -8z"/>
<path d="M6991 1609 c2 -31 3 -36 6 -16 4 27 5 28 18 10 12 -15 14 -16 15 -2
0 9 -9 24 -20 34 -20 18 -20 17 -19 -26z"/>
<path d="M7073 1497 c1 -7 -3 -11 -9 -10 -7 1 -14 -7 -17 -17 -3 -11 -1 -20 4
-20 5 0 9 4 9 8 0 5 12 14 26 21 27 12 26 23 -1 27 -8 1 -13 -3 -12 -9z"/>
<path d="M7030 1418 c-5 -13 -16 -56 -26 -96 -13 -59 -14 -76 -4 -85 10 -9 12
-9 8 2 -2 8 4 23 14 33 10 10 18 31 18 47 0 16 4 41 10 55 5 14 6 26 1 26 -5
0 -7 9 -4 20 7 27 -5 25 -17 -2z"/>
<path d="M7085 1430 c-3 -5 -1 -10 4 -10 6 0 11 5 11 10 0 6 -2 10 -4 10 -3 0
-8 -4 -11 -10z"/>
<path d="M4278 1307 c-29 -24 -38 -57 -15 -57 19 0 70 57 63 69 -10 15 -17 13
-48 -12z m42 -1 c0 -3 -4 -8 -10 -11 -5 -3 -10 -1 -10 4 0 6 5 11 10 11 6 0
10 -2 10 -4z"/>
<path d="M6710 1222 c0 -9 137 -23 149 -15 11 7 -9 12 -76 18 -49 5 -73 4 -73
-3z"/>
<path d="M6917 1179 c7 -7 15 -10 18 -7 3 3 -2 9 -12 12 -14 6 -15 5 -6 -5z"/>
<path d="M4228 1153 c7 -3 16 -2 19 1 4 3 -2 6 -13 5 -11 0 -14 -3 -6 -6z"/>
<path d="M2827 1123 c-12 -15 -13 -20 -2 -30 14 -12 20 -8 39 24 5 9 2 11 -10
6 -12 -4 -15 -3 -10 5 11 18 1 14 -17 -5z"/>
<path d="M5464 1105 c4 -39 -10 -46 -24 -12 -9 22 -9 22 -8 -3 1 -14 -2 -41
-6 -61 -7 -31 -5 -37 16 -46 18 -9 19 -12 6 -12 -10 -1 -18 -5 -18 -11 0 -5
-4 -10 -9 -10 -5 0 -9 6 -8 13 1 36 -4 57 -15 57 -6 0 -26 18 -45 40 -19 22
-37 39 -41 39 -20 -3 -32 2 -27 11 3 6 1 10 -5 10 -6 0 -15 -12 -20 -26 -15
-38 -12 -51 6 -26 13 18 19 21 30 11 18 -15 18 -39 -1 -39 -8 0 -19 -8 -24
-18 -7 -14 -5 -21 11 -31 11 -7 17 -8 13 -2 -3 7 2 11 15 11 14 0 19 4 14 13
-5 8 -3 8 9 -2 9 -7 15 -17 12 -21 -3 -5 1 -11 7 -13 9 -4 8 -6 -2 -7 -10 0
-6 -6 10 -15 l25 -14 -36 -1 c-44 0 -78 -22 -63 -41 6 -8 10 -21 9 -29 0 -8 6
-21 13 -29 12 -13 12 -16 -4 -22 -15 -6 -13 -8 10 -8 18 -1 26 -5 23 -13 -7
-19 -14 -44 -10 -35 8 13 23 8 23 -8 0 -10 10 -15 32 -15 30 0 31 1 12 14 -18
14 -18 15 3 13 14 -1 26 -11 32 -27 5 -15 17 -35 27 -45 13 -13 15 -20 6 -23
-19 -6 -14 -22 7 -22 26 0 36 -17 21 -35 -6 -8 -9 -18 -6 -24 4 -5 -8 -22 -26
-37 -30 -25 -31 -25 -4 -9 28 17 29 17 24 -3 -3 -12 -1 -24 6 -27 8 -4 8 -6
-1 -11 -7 -3 -9 -13 -6 -21 5 -13 2 -15 -11 -10 -23 9 -37 0 -29 -19 3 -9 13
-13 27 -9 20 6 20 5 3 -8 -16 -13 -14 -15 24 -21 31 -5 40 -10 37 -24 -3 -12
-12 -16 -35 -15 -19 2 -33 -3 -36 -12 -4 -9 -1 -12 9 -8 8 3 14 -1 14 -10 0
-8 8 -17 18 -19 10 -3 18 -14 19 -26 1 -15 -3 -19 -14 -15 -13 5 -13 3 -2 -15
7 -11 17 -18 22 -15 5 3 6 -4 2 -17 -5 -15 -2 -25 6 -31 12 -7 11 -9 -1 -9
-13 0 -13 -1 0 -10 13 -8 12 -10 -4 -10 -16 0 -17 -3 -8 -12 7 -7 12 -27 12
-45 0 -18 4 -33 8 -33 9 0 11 -9 14 -60 l1 -31 436 2 c413 1 490 6 476 29 -3
5 0 10 7 11 7 0 4 4 -7 9 -17 7 -16 9 10 10 25 0 27 2 13 11 -20 11 -24 39 -7
39 6 0 1 9 -12 19 l-24 20 23 -6 c13 -3 22 -1 22 6 0 7 -4 9 -10 6 -5 -3 -10
1 -10 10 0 9 5 13 10 10 6 -3 10 -2 10 3 0 20 -14 20 -31 -1 -20 -24 -25 -17
-9 14 8 14 7 19 -2 19 -8 0 -21 9 -31 20 -12 14 -13 20 -4 20 7 0 17 -4 23
-10 13 -13 54 -1 54 17 0 8 5 11 10 8 6 -3 10 -2 10 3 0 6 -15 10 -34 10 -19
0 -39 3 -44 6 -6 3 -22 2 -37 -4 -19 -7 -24 -7 -19 2 5 8 2 9 -10 5 -10 -4
-22 -7 -27 -7 -6 0 -8 -3 -6 -7 3 -5 -9 -9 -26 -10 l-32 -1 28 12 c15 7 25 15
21 19 -4 3 -15 2 -25 -4 -11 -6 -19 -6 -19 0 0 12 29 23 41 15 5 -3 9 1 10 8
0 7 4 4 9 -7 5 -11 9 -15 9 -8 1 6 14 14 31 18 16 4 33 11 37 17 4 8 0 9 -11
5 -11 -4 -15 -3 -10 4 4 8 -11 9 -52 5 -51 -6 -142 -15 -181 -18 -19 -2 8 -37
37 -47 23 -9 22 -9 -12 -10 -26 -1 -38 -6 -38 -15 0 -10 -16 -17 -47 -21 -75
-10 -81 -13 -33 -15 25 -1 39 -4 32 -7 -6 -2 -10 -8 -7 -13 8 -12 -44 -28
-116 -35 -57 -5 -68 -10 -79 -31 -14 -25 -42 -33 -39 -11 4 28 -3 36 -33 42
-30 6 -33 10 -33 42 0 33 -5 39 -44 60 -1 1 4 12 13 25 21 30 20 35 -9 42 -14
4 -25 11 -25 16 0 6 -7 10 -16 10 -14 0 -14 3 -4 15 7 8 9 15 4 15 -5 0 -3 4
4 9 11 6 10 12 -5 26 -19 19 -21 35 -24 148 -1 48 -5 67 -14 67 -8 0 -16 -8
-19 -17 -3 -10 -4 -6 -2 10 2 15 0 30 -5 33 -10 6 -1 33 18 56 8 9 12 22 8 27
-3 6 -1 11 5 11 7 0 10 7 7 15 -6 14 8 29 28 30 6 1 9 6 8 13 -2 7 3 12 10 12
40 1 61 101 25 123 -10 7 -18 17 -18 24 0 7 -11 13 -25 13 -14 0 -25 5 -25 10
0 6 -7 10 -15 10 -8 0 -15 5 -15 10 0 14 -106 13 -133 -2 -20 -10 -21 -10 -8
5 11 14 11 17 0 17 -12 0 -12 2 -1 9 11 7 11 9 -2 14 -8 3 -17 1 -20 -6 -2 -7
-5 -5 -5 5 -1 9 -7 19 -13 21 -10 4 -10 8 1 15 8 6 11 17 8 26 -11 29 -25 17
-23 -19z m199 -557 c-5 -34 -10 -45 -17 -37 -7 7 6 69 14 69 5 0 6 -15 3 -32z
m602 -248 c-3 -5 -14 -10 -23 -10 -15 0 -15 2 -2 10 20 13 33 13 25 0z m165
-111 c0 -14 -17 -10 -23 5 -4 10 -1 13 9 9 7 -3 14 -9 14 -14z m-6 -38 c-2 -3
-12 3 -22 13 -16 17 -16 18 5 5 12 -7 20 -15 17 -18z m-27 -17 c-3 -3 -12 -4
-19 -1 -8 3 -5 6 6 6 11 1 17 -2 13 -5z m-472 -14 c-3 -5 -12 -10 -18 -10 -7
0 -6 4 3 10 19 12 23 12 15 0z"/>
<path d="M5500 1128 c0 -10 20 -13 72 -12 99 1 103 18 6 22 -59 2 -78 0 -78
-10z"/>
<path d="M6747 1082 c-9 -2 -15 -8 -12 -13 4 -5 1 -9 -6 -9 -7 0 -9 -3 -6 -7
13 -13 -15 -31 -41 -27 -27 4 -26 4 6 -17 17 -11 35 -32 38 -45 7 -28 32 -37
71 -28 33 8 47 25 30 36 -8 5 -4 8 10 8 12 0 25 5 28 10 4 6 10 8 15 5 4 -2
21 0 38 6 43 15 31 35 -18 31 -41 -4 -96 20 -85 37 5 10 -40 18 -68 13z"/>
<path d="M11178 1083 c7 -3 16 -2 19 1 4 3 -2 6 -13 5 -11 0 -14 -3 -6 -6z"/>
<path d="M11128 1073 c7 -3 16 -2 19 1 4 3 -2 6 -13 5 -11 0 -14 -3 -6 -6z"/>
<path d="M5380 1066 c0 -2 7 -7 16 -10 8 -3 12 -2 9 4 -6 10 -25 14 -25 6z"/>
<path d="M11177 1053 c18 -2 50 -2 70 0 21 2 7 4 -32 4 -38 0 -55 -2 -38 -4z"/>
<path d="M4060 969 c0 -5 5 -7 10 -4 6 3 10 8 10 11 0 2 -4 4 -10 4 -5 0 -10
-5 -10 -11z"/>
<path d="M11120 963 c0 -5 15 -8 34 -8 19 0 38 3 42 8 4 4 -11 7 -34 7 -23 0
-42 -3 -42 -7z"/>
<path d="M6858 883 c7 -3 16 -2 19 1 4 3 -2 6 -13 5 -11 0 -14 -3 -6 -6z"/>
<path d="M2825 846 c34 -29 47 -32 39 -12 -3 8 -20 19 -37 25 l-32 11 30 -24z"/>
<path d="M6738 833 c7 -3 16 -2 19 1 4 3 -2 6 -13 5 -11 0 -14 -3 -6 -6z"/>
<path d="M5343 709 c1 -16 8 -29 15 -29 10 0 10 5 1 23 -9 18 -9 20 2 10 17
-17 30 -16 23 1 -3 8 -14 16 -24 19 -16 4 -19 0 -17 -24z"/>
<path d="M6718 733 c7 -3 16 -2 19 1 4 3 -2 6 -13 5 -11 0 -14 -3 -6 -6z"/>
<path d="M5425 700 c3 -5 8 -10 11 -10 2 0 4 5 4 10 0 6 -5 10 -11 10 -5 0 -7
-4 -4 -10z"/>
<path d="M5348 663 c7 -3 16 -2 19 1 4 3 -2 6 -13 5 -11 0 -14 -3 -6 -6z"/>
<path d="M6670 490 c8 -5 26 -10 39 -10 32 0 24 6 -19 14 -25 4 -31 3 -20 -4z"/>
<path d="M2900 429 c0 -5 5 -7 10 -4 6 3 10 8 10 11 0 2 -4 4 -10 4 -5 0 -10
-5 -10 -11z"/>
<path d="M2948 413 c7 -3 16 -2 19 1 4 3 -2 6 -13 5 -11 0 -14 -3 -6 -6z"/>
<path d="M5480 399 c0 -5 5 -7 10 -4 6 3 10 8 10 11 0 2 -4 4 -10 4 -5 0 -10
-5 -10 -11z"/>
<path d="M6453 366 c4 -9 -1 -17 -11 -19 -12 -3 -9 -5 7 -6 16 -1 22 3 18 13
-3 8 -1 17 6 20 7 2 4 5 -7 5 -12 1 -16 -4 -13 -13z"/>
<path d="M6531 364 c0 -11 3 -14 6 -6 3 7 2 16 -1 19 -3 4 -6 -2 -5 -13z"/>
<path d="M6399 357 c5 -5 17 -5 28 2 16 9 15 10 -9 9 -16 -2 -24 -6 -19 -11z"/>
<path d="M3005 340 c28 -12 37 -12 30 0 -3 6 -16 10 -28 9 -21 0 -21 -1 -2 -9z"/>
<path d="M6516 318 c3 -5 10 -6 15 -3 13 9 11 12 -6 12 -8 0 -12 -4 -9 -9z"/>
<path d="M6578 323 c7 -3 16 -2 19 1 4 3 -2 6 -13 5 -11 0 -14 -3 -6 -6z"/>
<path d="M6425 313 c-31 -7 -40 -21 -11 -16 15 3 29 9 32 14 3 5 4 8 2 8 -2
-1 -12 -3 -23 -6z"/>
<path d="M6470 305 c0 -9 9 -15 23 -14 17 1 18 2 4 6 -9 2 -15 9 -12 14 4 5 1
9 -4 9 -6 0 -11 -7 -11 -15z"/>
<path d="M6108 253 c6 -2 18 -2 25 0 6 3 1 5 -13 5 -14 0 -19 -2 -12 -5z"/>
<path d="M6501 204 c0 -11 3 -14 6 -6 3 7 2 16 -1 19 -3 4 -6 -2 -5 -13z"/>
<path d="M3545 166 c-11 -8 -26 -12 -35 -9 -10 3 -11 2 -3 -4 10 -7 38 -7 100
-1 9 1 10 5 2 15 -15 17 -40 17 -64 -1z"/>
<path d="M4235 160 c-3 -5 -2 -10 4 -10 5 0 13 5 16 10 3 6 2 10 -4 10 -5 0
-13 -4 -16 -10z"/>
<path d="M3410 156 c0 -2 7 -7 16 -10 8 -3 12 -2 9 4 -6 10 -25 14 -25 6z"/>
<path d="M4178 153 c7 -3 16 -2 19 1 4 3 -2 6 -13 5 -11 0 -14 -3 -6 -6z"/>
<path d="M5878 153 c7 -3 16 -2 19 1 4 3 -2 6 -13 5 -11 0 -14 -3 -6 -6z"/>
<path d="M3380 141 c0 -5 7 -14 15 -21 16 -14 18 -10 9 14 -6 17 -24 22 -24 7z"/>
<path d="M3475 140 c-3 -5 -1 -10 4 -10 6 0 11 5 11 10 0 6 -2 10 -4 10 -3 0
-8 -4 -11 -10z"/>
<path d="M3492 115 c-9 -20 -9 -23 3 -18 8 3 15 14 15 24 0 25 -5 24 -18 -6z"/>
<path d="M3560 110 c0 -5 5 -10 11 -10 5 0 7 5 4 10 -3 6 -8 10 -11 10 -2 0
-4 -4 -4 -10z"/>
<path d="M4185 100 c41 -11 67 -12 61 -2 -2 4 -24 9 -48 9 -39 1 -40 0 -13 -7z"/>
<path d="M4280 89 c0 -5 5 -7 10 -4 6 3 10 8 10 11 0 2 -4 4 -10 4 -5 0 -10
-5 -10 -11z"/>
<path d="M4257 63 c-4 -3 -7 -13 -7 -22 1 -13 3 -13 11 2 11 19 8 33 -4 20z"/>
<path d="M3383 23 c9 -2 25 -2 35 0 9 3 1 5 -18 5 -19 0 -27 -2 -17 -5z"/>
<path d="M3388 3 c6 -2 18 -2 25 0 6 3 1 5 -13 5 -14 0 -19 -2 -12 -5z"/>
</g>
</svg>
