<?xml version="1.0" standalone="no"?>
<!DOCTYPE svg PUBLIC "-//W3C//DTD SVG 20010904//EN"
 "http://www.w3.org/TR/2001/REC-SVG-20010904/DTD/svg10.dtd">
<svg version="1.0" xmlns="http://www.w3.org/2000/svg"
 width="1280.000000pt" height="720.000000pt" viewBox="0 0 1280.000000 720.000000"
 preserveAspectRatio="xMidYMid meet">

<g transform="translate(0.000000,720.000000) scale(0.100000,-0.100000)"
fill="#000000" stroke="none">
<path d="M52 7193 c32 -2 84 -2 115 0 32 2 6 3 -57 3 -63 0 -89 -1 -58 -3z"/>
<path d="M4150 5149 c0 -8 13 -30 28 -49 44 -53 51 -72 57 -146 3 -47 14 -87
35 -131 24 -48 28 -67 21 -82 -8 -13 -6 -34 5 -72 8 -30 24 -92 35 -139 50
-222 71 -285 131 -399 33 -64 66 -123 72 -131 6 -8 21 -33 33 -55 11 -22 30
-56 40 -75 42 -78 91 -197 98 -239 6 -39 5 -42 -11 -38 -11 3 -46 9 -79 12
-33 4 -96 18 -140 32 -44 14 -117 28 -163 33 l-83 7 -48 53 -47 54 24 60 c14
33 34 73 45 88 19 26 20 33 9 74 -32 119 -104 184 -205 184 -31 0 -67 -4 -81
-10 -33 -12 -79 -57 -98 -95 -24 -47 -39 -146 -29 -180 17 -57 41 -104 57
-113 12 -7 17 -32 21 -109 5 -93 4 -104 -17 -138 -32 -52 -54 -57 -183 -44
-127 12 -163 26 -327 124 -58 34 -123 72 -145 83 l-40 20 2 66 c1 39 8 82 18
102 12 27 14 38 5 49 -9 10 -7 21 5 45 14 27 14 39 4 86 -10 43 -22 64 -63
105 -68 69 -84 79 -129 79 -63 0 -99 -24 -132 -85 -15 -30 -32 -55 -36 -55
-24 0 -39 -134 -39 -334 1 -31 43 -96 62 -96 6 0 2 10 -9 23 -35 38 -45 65
-33 87 12 22 24 27 17 8 -5 -17 19 -87 38 -108 13 -15 15 -19 15 -41 0 -5 5
-7 10 -4 6 3 10 -3 10 -14 0 -19 -5 -20 -76 -17 -41 2 -80 8 -87 15 -6 6 -30
11 -53 11 -53 0 -92 14 -101 36 -3 10 -2 34 4 55 6 25 7 56 0 91 -11 59 -51
144 -67 140 -5 -1 -10 7 -10 18 0 11 -4 20 -9 20 -16 0 -20 -27 -10 -71 6 -23
7 -67 3 -96 -6 -51 -16 -65 -29 -43 -3 6 -13 10 -22 10 -19 0 -10 -46 15 -74
11 -11 17 -35 17 -64 0 -42 3 -47 35 -63 61 -31 163 -70 225 -86 33 -9 62 -17
64 -19 3 -3 -11 -21 -31 -42 -19 -20 -48 -60 -63 -89 -30 -56 -205 -257 -233
-268 -20 -8 -178 -50 -282 -75 -48 -12 -136 -20 -245 -25 -93 -3 -171 -8 -174
-11 -9 -8 9 -17 56 -25 26 -5 51 -13 55 -17 5 -5 -3 -35 -16 -68 -47 -116 -42
-203 9 -141 27 35 35 34 35 -3 0 -16 5 -30 10 -30 6 0 10 12 10 26 0 69 94
180 128 152 11 -10 17 -8 30 9 14 17 29 21 92 22 41 1 89 4 105 6 151 22 234
39 254 52 28 18 258 245 295 292 15 18 29 31 32 28 3 -3 1 -27 -4 -52 -6 -28
-6 -59 -1 -77 9 -35 76 -138 89 -138 4 0 9 -42 10 -92 0 -51 1 -129 2 -173 2
-104 -7 -254 -16 -262 -3 -3 -6 -14 -6 -24 0 -10 -6 -22 -14 -26 -17 -10 -49
-74 -75 -150 -11 -33 -41 -114 -67 -179 -25 -66 -59 -164 -74 -220 -16 -55
-38 -125 -48 -155 -11 -30 -25 -92 -31 -139 -7 -47 -20 -134 -31 -195 -11 -60
-29 -166 -40 -235 -12 -69 -39 -197 -61 -284 -21 -88 -39 -166 -39 -174 0 -8
-11 -23 -25 -34 -14 -11 -25 -28 -25 -39 0 -11 -4 -18 -9 -15 -5 4 -11 1 -13
-5 -4 -11 -158 -14 -313 -5 -49 3 -119 6 -155 7 -47 1 -58 3 -40 9 14 4 -32 7
-110 7 -74 -1 -146 3 -159 7 -13 5 -21 4 -18 -1 3 -4 -18 -7 -46 -6 -29 1
-134 4 -235 6 -120 3 -187 8 -195 16 -16 16 -32 14 -17 -4 11 -13 0 -14 -86
-9 -55 4 -116 7 -136 6 -21 0 -35 4 -32 9 9 16 -27 10 -44 -7 -13 -13 -28 -15
-75 -10 -33 3 -101 7 -151 7 -57 1 -80 4 -61 8 28 7 27 7 -17 14 -26 3 -89 4
-140 1 -63 -4 -124 -1 -190 10 -54 9 -116 16 -138 16 l-40 0 0 -355 0 -355
6400 0 6400 0 0 370 0 370 -27 6 c-19 5 -30 2 -40 -11 -7 -11 -13 -14 -13 -8
0 7 -69 10 -217 10 -120 0 -198 -4 -173 -7 25 -4 -132 -5 -349 -2 -259 3 -391
1 -387 -6 7 -12 -123 -26 -221 -23 -81 3 -124 -6 -102 -20 21 -13 5 -20 -30
-13 -23 5 -29 9 -19 15 9 6 5 9 -12 9 -14 0 -54 4 -90 9 -40 6 -69 6 -74 0 -6
-6 -4 -9 7 -9 9 0 17 -4 17 -10 0 -5 -22 -10 -49 -10 -68 0 -145 -12 -131 -20
6 -4 -28 -10 -76 -14 -48 -4 -90 -3 -93 1 -3 5 -27 9 -53 8 -25 0 -41 -3 -35
-7 7 -4 -16 -5 -50 -2 -46 5 -67 3 -79 -7 -13 -11 -18 -11 -21 -1 -3 6 -14 12
-26 12 -18 0 -19 -2 -7 -10 11 -7 3 -10 -30 -10 -33 0 -41 3 -30 10 11 7 7 10
-18 10 -20 0 -31 -5 -30 -12 2 -8 -19 -15 -62 -19 -67 -7 -84 -4 -61 10 26 16
-16 20 -45 4 -22 -12 -59 -16 -149 -16 -66 0 -123 -4 -126 -9 -4 -6 -19 -6
-40 0 -28 7 -34 13 -34 35 1 28 -10 36 -18 15 -4 -9 -6 -8 -6 2 -1 9 -14 30
-31 48 -37 41 -60 110 -41 122 9 5 12 19 8 41 -26 163 -144 443 -279 664 -33
53 -65 122 -79 169 -21 71 -29 83 -66 110 -42 29 -86 101 -96 156 -5 28 -31
98 -131 359 -36 95 -66 179 -66 186 0 8 -9 17 -21 20 -16 5 -18 10 -8 21 7 8
12 48 12 97 0 45 4 87 9 94 5 7 7 21 3 32 -8 26 16 71 52 97 15 12 41 47 56
78 28 56 70 93 127 111 39 11 61 35 86 92 13 28 27 54 32 57 13 8 98 -37 200
-108 52 -35 148 -92 214 -126 136 -70 181 -78 225 -42 16 12 57 42 93 66 36
23 100 75 143 114 65 59 85 72 123 78 36 5 47 12 55 32 10 25 10 25 97 19 48
-4 103 -11 122 -17 45 -13 61 4 18 19 -18 7 -48 19 -67 27 l-34 15 27 28 c27
29 33 60 16 92 -16 28 -27 23 -22 -10 4 -31 -14 -75 -28 -66 -5 3 -11 19 -15
35 -4 17 -12 30 -18 31 -36 4 -64 -5 -80 -23 -13 -15 -30 -22 -57 -22 -29 -1
-43 -7 -59 -28 -12 -14 -21 -32 -21 -40 0 -7 -11 -20 -23 -29 -132 -94 -285
-179 -324 -179 -39 0 -84 24 -158 85 -38 31 -95 75 -126 96 -31 21 -88 69
-126 106 -37 37 -87 81 -111 96 -23 16 -51 45 -61 66 -19 36 -19 37 3 74 49
81 84 96 133 57 14 -11 34 -20 44 -20 18 0 59 48 59 69 0 7 7 14 15 17 8 4 15
13 15 20 0 8 11 19 25 24 30 11 29 7 10 60 -8 23 -12 47 -8 53 12 20 20 171
11 205 -10 36 -83 113 -155 163 -55 38 -116 40 -169 4 -20 -14 -49 -25 -63
-25 l-26 -1 28 -22 c34 -29 34 -44 -3 -87 -28 -33 -80 -149 -80 -179 0 -8 10
-33 21 -57 35 -70 9 -98 -65 -70 -80 31 -82 34 -54 97 14 30 31 71 37 91 7 21
17 40 22 43 5 4 9 15 9 26 0 11 4 18 9 15 11 -7 26 88 16 103 -12 21 -112 80
-192 115 -45 20 -84 36 -87 36 -16 0 -3 -18 22 -30 39 -18 12 -23 -37 -7 -49
17 -64 4 -21 -18 42 -22 37 -25 -12 -8 -74 25 -65 -1 19 -55 170 -111 207
-146 174 -166 -5 -3 -25 -30 -44 -58 -62 -93 -96 -122 -192 -164 -82 -36 -96
-39 -175 -38 -60 1 -102 7 -145 23 -33 12 -97 25 -142 28 -72 5 -83 9 -94 29
-14 27 -48 31 -112 13 -22 -6 -41 -8 -44 -5 -3 3 -10 43 -14 88 -24 233 -23
218 -4 232 17 12 18 18 7 54 -7 22 -19 42 -27 45 -8 4 -23 23 -34 44 -29 57
-62 88 -117 108 -27 10 -57 27 -67 37 -23 24 -58 23 -109 -3 -46 -23 -71 -49
-89 -91 -6 -16 -18 -28 -25 -28 -17 0 -44 -40 -41 -60 2 -8 10 -26 19 -40 9
-14 20 -38 24 -55 3 -16 15 -44 25 -61 11 -18 17 -38 14 -47 -4 -9 4 -23 19
-35 16 -12 26 -30 26 -45 0 -47 17 -77 45 -77 18 0 25 5 25 19 0 10 6 31 14
45 11 22 15 24 25 12 6 -7 12 -31 14 -52 2 -35 -1 -40 -35 -59 -29 -15 -42
-18 -55 -9 -28 17 -105 3 -118 -21 -5 -12 -28 -37 -50 -57 -22 -20 -60 -68
-85 -107 -40 -64 -70 -89 -70 -61 0 18 -132 143 -216 205 -43 33 -115 93 -159
135 -44 42 -101 89 -128 106 -31 19 -53 42 -64 65 -13 29 -25 39 -62 51 -28 9
-45 20 -43 28 6 26 -19 115 -39 136 -14 15 -24 45 -31 100 -7 55 -19 95 -40
131 -24 44 -31 70 -38 155 -12 143 -39 220 -102 299 -16 20 -46 44 -66 52
-134 56 -184 60 -246 22 -50 -30 -123 -101 -141 -135 -43 -84 -112 -331 -130
-470 -6 -45 -14 -61 -42 -88 -19 -18 -55 -38 -79 -44 -24 -7 -39 -15 -34 -18
11 -7 -15 -38 -71 -83 -32 -26 -32 -27 -6 -17 41 14 35 -7 -19 -67 l-45 -52
-42 32 c-40 31 -53 41 -122 102 -63 55 -198 13 -250 -78 -11 -19 -29 -47 -39
-62 -18 -25 -71 -202 -83 -275 -6 -44 -67 -110 -101 -110 -34 0 -62 18 -62 40
0 11 -3 20 -7 20 -12 0 -194 183 -228 228 -16 22 -43 64 -60 92 -16 29 -44 72
-62 96 -18 24 -39 71 -48 106 -9 35 -22 79 -30 98 -17 40 -49 146 -71 235 -8
33 -26 84 -41 114 -14 30 -33 94 -43 142 -12 58 -30 107 -51 143 -47 77 -74
86 -44 14 13 -32 -13 -19 -35 18 -12 19 -28 33 -35 30 -7 -2 -18 1 -24 7 -8 8
-11 7 -11 -4z m3490 -839 c-20 -13 -33 -13 -25 0 3 6 14 10 23 10 15 0 15 -2
2 -10z m150 -316 c0 -8 -5 -12 -10 -9 -6 4 -8 11 -5 16 9 14 15 11 15 -7z
m-2060 -89 c0 -11 -185 -184 -190 -178 -5 4 176 183 186 183 2 0 4 -2 4 -5z
m1228 -74 c77 -44 272 -203 272 -221 0 -14 -103 -102 -135 -115 -16 -7 -36
-12 -45 -10 -8 1 -43 6 -78 10 -71 8 -68 5 -107 120 -18 51 -24 80 -17 83 22
7 24 66 3 119 -31 80 -11 83 107 14z m-1053 -81 c8 -16 15 -47 15 -69 0 -22 6
-46 13 -53 26 -28 88 -191 102 -270 6 -31 4 -37 -15 -43 -36 -11 -91 4 -165
48 -93 55 -226 158 -223 172 9 36 222 245 249 245 5 0 15 -13 24 -30z m-560
-63 c4 5 5 0 2 -9 -4 -12 -2 -15 9 -11 7 3 14 1 14 -5 0 -11 43 -30 79 -34
l24 -3 -25 -29 -25 -30 -46 18 c-54 20 -101 81 -85 110 9 16 11 16 27 2 10 -9
21 -13 26 -9z m-2382 -51 c3 -8 0 -17 -8 -19 -17 -7 -25 1 -18 19 7 18 19 18
26 0z m5856 -42 c6 -5 -46 -110 -84 -170 -19 -30 -35 -56 -35 -58 0 -19 -91
-134 -135 -172 -30 -26 -57 -56 -61 -66 -7 -24 -73 -88 -90 -88 -8 0 -17 12
-20 26 -10 39 3 223 20 296 8 35 20 89 26 120 6 32 15 60 20 63 5 3 44 12 87
20 43 8 107 21 143 29 56 12 116 12 129 0z m-524 -64 c3 -5 1 -10 -4 -10 -6 0
-11 5 -11 10 0 6 2 10 4 10 3 0 8 -4 11 -10z m-3645 -78 c63 -7 65 -8 68 -37
2 -21 -7 -46 -30 -79 -43 -66 -161 -184 -190 -191 -31 -8 -62 -79 -47 -107 6
-11 8 -22 5 -25 -8 -9 -45 40 -46 60 0 9 -6 17 -14 17 -14 0 -39 54 -29 64 3
3 0 12 -7 21 -8 9 -13 51 -14 112 -1 105 15 157 54 171 21 8 147 5 250 -6z
m3638 -197 c-2 -154 -7 -218 -15 -227 -7 -6 -13 -23 -13 -36 0 -13 -7 -51 -16
-85 -14 -56 -14 -61 2 -76 15 -15 16 -14 11 7 -3 12 -1 22 3 22 20 0 17 -19
-12 -80 -20 -44 -32 -91 -38 -145 -5 -44 -14 -111 -20 -150 -13 -79 -10 -113
27 -305 24 -125 25 -153 23 -375 -1 -132 -5 -260 -9 -285 l-7 -45 -39 75 c-24
47 -41 96 -46 132 -9 72 -55 165 -91 184 -16 8 -28 22 -28 32 0 9 -7 31 -16
47 -9 17 -22 46 -29 65 -7 19 -42 89 -79 155 -36 66 -66 130 -66 142 0 12 -6
26 -14 30 -16 9 -46 77 -46 104 0 10 -7 22 -16 27 -10 6 -14 19 -12 37 2 23
10 31 36 37 44 12 48 28 28 100 l-17 61 31 32 c17 18 30 42 30 56 0 17 21 51
58 95 31 38 79 99 106 134 27 36 82 99 121 140 85 88 92 99 100 171 7 64 33
139 47 139 6 0 9 -75 6 -215z m-2593 44 c39 -21 95 -47 125 -59 30 -12 59 -28
63 -36 19 -34 137 -37 158 -3 4 8 11 4 19 -11 11 -20 10 -25 -4 -36 -9 -6 -25
-34 -36 -60 -10 -27 -30 -76 -44 -109 -18 -43 -26 -78 -26 -123 0 -68 -11
-144 -70 -477 -51 -294 -59 -345 -75 -515 -8 -80 -26 -188 -40 -240 -30 -114
-99 -465 -126 -644 -21 -141 -40 -229 -62 -292 -9 -23 -11 -47 -7 -55 6 -10
-2 -26 -25 -51 -19 -20 -36 -34 -39 -30 -3 3 -6 -2 -6 -12 0 -9 -4 -14 -10
-11 -5 3 -10 -2 -10 -12 0 -16 -9 -18 -66 -19 l-66 -1 4 48 c2 35 -1 49 -10
49 -9 0 -8 7 5 26 13 21 16 46 15 130 -2 57 -7 115 -12 128 -7 19 -5 28 10 41
41 38 94 210 130 424 12 69 25 132 30 142 6 9 10 39 11 66 1 26 12 84 25 128
12 44 27 117 34 162 6 46 13 95 15 110 12 91 27 180 32 193 4 12 7 11 13 -5
11 -28 3 -93 -17 -138 -14 -33 -15 -40 -2 -47 10 -7 24 1 51 27 48 47 71 40
62 -17 -4 -22 -4 -40 0 -40 3 0 17 22 31 50 34 66 34 142 0 215 -19 42 -24 68
-22 119 2 57 0 66 -19 74 -28 13 -50 86 -81 266 -14 84 -35 173 -49 203 -47
108 -74 252 -74 400 l0 135 48 -28 c26 -15 79 -44 117 -65z m-2211 46 c87 -22
135 -45 142 -68 17 -53 -41 -307 -70 -307 -8 0 -16 -9 -19 -19 -5 -21 -65 -63
-81 -58 -31 10 -74 467 -45 467 6 0 39 -7 73 -15z m4036 -4 c0 -7 -8 -36 -17
-64 -15 -41 -27 -56 -70 -83 -28 -18 -60 -45 -71 -59 -16 -20 -137 -89 -217
-124 -5 -2 27 35 73 84 46 48 108 118 137 155 30 37 66 77 79 88 29 22 86 25
86 3z m-320 -49 c0 -5 -23 -34 -52 -66 -28 -32 -64 -76 -79 -99 -16 -23 -36
-53 -46 -67 -9 -14 -36 -54 -59 -90 -75 -116 -103 -139 -104 -86 -1 12 -8 39
-16 61 -9 22 -22 71 -30 108 -7 37 -25 87 -39 111 -34 58 -33 78 3 70 15 -4
35 -11 44 -15 31 -16 62 -9 133 28 47 25 90 39 130 43 92 10 115 11 115 2z
m-3396 -196 c21 -121 32 -148 86 -206 63 -67 96 -119 166 -258 35 -70 70 -131
77 -137 7 -5 14 -30 14 -55 1 -25 4 -62 8 -82 6 -30 2 -46 -19 -84 -14 -26
-26 -52 -26 -58 1 -22 -185 -385 -200 -391 -17 -6 -90 -112 -90 -131 0 -7 -10
-20 -21 -28 -12 -8 -29 -26 -38 -39 -40 -60 -115 -146 -122 -141 -5 3 -9 14
-9 25 0 11 -10 50 -21 86 -19 57 -20 73 -11 114 7 28 9 81 5 129 -5 72 -4 86
16 121 35 62 45 158 27 259 -8 47 -20 129 -26 183 -11 92 -37 187 -79 280 -34
75 -34 75 15 122 26 24 56 45 68 47 16 2 21 9 19 32 -1 18 17 68 47 130 27 56
56 125 66 155 21 65 26 57 48 -73z m926 52 c0 -86 22 -184 70 -311 37 -100 50
-167 32 -167 -4 0 -27 25 -51 55 -24 31 -66 72 -93 92 -26 21 -48 45 -48 55 0
10 -11 23 -24 29 -24 11 -56 66 -56 98 0 34 33 86 94 149 33 34 64 62 68 62 4
0 8 -28 8 -62z m667 -91 c31 -125 38 -177 24 -177 -12 0 -35 39 -27 47 3 3 -5
20 -18 37 -18 23 -24 45 -25 86 -1 61 7 115 17 105 3 -3 16 -47 29 -98z m3254
-726 c13 -19 29 -41 34 -50 6 -9 13 -18 16 -21 24 -20 158 -356 227 -570 62
-190 172 -502 198 -558 44 -96 115 -292 136 -377 27 -108 31 -113 72 -112 19
0 33 4 31 7 -6 10 64 32 76 24 8 -4 9 -3 5 4 -4 7 -5 12 -3 12 3 0 21 7 41 15
31 13 36 13 36 1 0 -9 -8 -13 -22 -10 l-23 5 23 -10 c26 -12 40 -40 25 -50 -6
-3 -12 -15 -14 -25 -2 -11 -16 -23 -31 -27 -67 -18 -535 -33 -735 -23 -114 5
-133 8 -134 23 -1 9 -4 6 -9 -9 -7 -22 -8 -21 -9 12 -1 20 -5 40 -11 43 -5 3
-10 15 -10 25 0 10 -4 20 -9 22 -5 2 -12 30 -15 63 -3 33 -12 94 -19 135 -8
41 -13 93 -12 115 1 22 5 128 9 235 5 123 15 230 27 290 14 72 20 156 24 349
3 139 7 257 10 261 3 5 -4 34 -16 64 -11 31 -18 65 -14 76 3 10 6 43 7 72 0
29 2 56 5 61 6 10 55 -31 84 -72z m-1339 27 c13 -18 53 -80 87 -138 35 -58 84
-132 108 -165 130 -177 157 -230 226 -450 19 -60 49 -148 67 -195 29 -78 74
-222 167 -530 19 -63 37 -137 40 -163 3 -26 10 -50 14 -53 5 -3 9 -16 9 -28 0
-28 15 -41 54 -45 18 -2 26 1 22 8 -5 7 5 11 26 11 22 0 28 3 20 9 -11 7 -10
10 3 15 34 12 70 6 83 -15 11 -18 11 -23 -5 -34 -30 -23 -92 -34 -213 -39
-136 -6 -351 4 -344 15 2 4 -4 14 -13 21 -10 7 -27 31 -38 53 -11 22 -23 42
-26 45 -3 3 -18 36 -33 74 -15 38 -40 88 -55 110 -21 30 -37 79 -60 176 -52
231 -110 433 -188 660 -47 138 -52 179 -38 320 2 19 6 80 10 135 7 104 32 235
45 235 4 0 19 -15 32 -32z m-4006 -289 c12 -116 15 -211 11 -322 -3 -87 -2
-169 3 -182 5 -14 12 -59 15 -102 4 -43 13 -127 21 -187 21 -162 21 -159 -41
-232 -30 -36 -55 -70 -55 -77 0 -6 -16 -44 -36 -84 -35 -69 -36 -74 -20 -91
21 -24 20 -37 -5 -92 -16 -35 -22 -42 -30 -30 -8 11 -9 10 -4 -7 4 -14 2 -23
-5 -23 -6 0 -8 -4 -5 -10 3 -5 1 -10 -4 -10 -6 0 -11 6 -12 13 -1 6 -4 1 -8
-13 -5 -19 -16 -26 -46 -32 -56 -10 -184 2 -200 19 -8 7 -23 17 -35 21 -21 8
-21 8 4 34 27 27 31 44 66 368 18 167 29 246 44 342 9 54 16 125 16 158 0 36
8 81 20 112 11 29 30 89 41 133 43 170 69 233 116 278 50 48 83 96 83 123 0
16 39 68 46 61 2 -2 11 -77 20 -168z m3243 19 c17 -55 62 -422 96 -780 17
-182 20 -146 -40 -473 -23 -122 -23 -121 35 -135 27 -6 53 -17 58 -23 5 -7 9
-46 8 -87 l-1 -75 -40 2 c-225 9 -270 8 -282 -7 -14 -17 -16 -1 -14 110 1 57
44 347 56 382 2 7 16 94 29 193 32 228 64 444 76 515 10 60 6 325 -5 378 -5
20 -4 32 3 32 6 0 15 -15 21 -32z m-2214 -275 c-8 -75 -9 -140 -7 -592 1 -414
-10 -571 -42 -571 -7 0 -11 -20 -11 -53 0 -72 -8 -76 -130 -66 -55 5 -165 6
-245 3 -104 -4 -141 -3 -130 5 8 6 13 11 10 12 -3 0 -13 3 -22 5 -10 3 -32 7
-49 11 -38 7 -52 38 -37 85 33 102 46 132 98 223 31 55 83 149 116 210 32 60
74 136 92 170 18 33 50 92 70 130 20 39 69 128 110 199 41 72 83 146 94 165
38 69 73 121 81 121 4 0 5 -26 2 -57z m803 -98 c-5 -44 -7 -118 -4 -165 2 -47
5 -163 5 -257 l0 -173 -36 -97 c-77 -210 -93 -258 -92 -283 4 -138 -12 -226
-25 -143 -5 33 1 106 19 203 8 45 8 164 1 230 -7 55 -4 73 15 120 18 45 23 81
27 198 2 78 8 142 13 142 11 0 29 67 29 110 0 46 41 213 50 203 4 -4 3 -44 -2
-88z m-368 26 c0 -6 -4 -13 -10 -16 -5 -3 -10 1 -10 9 0 9 5 16 10 16 6 0 10
-4 10 -9z m1328 -127 c9 -41 8 -50 -15 -82 -35 -52 -36 -52 -29 3 8 56 25 125
31 125 2 0 8 -21 13 -46z m-1374 -199 c3 -55 9 -125 12 -155 6 -54 66 -266 85
-301 12 -24 3 -64 -67 -290 -8 -26 -14 -58 -14 -72 0 -14 -4 -28 -9 -31 -4 -3
-6 -16 -4 -30 l5 -24 -83 5 c-59 3 -86 9 -94 20 -11 15 -11 87 0 193 4 30 10
114 15 185 7 106 19 171 65 355 57 225 63 246 65 265 0 6 4 3 9 -5 5 -8 11
-60 15 -115z m6859 -722 c-13 -2 -33 -2 -45 0 -13 2 -3 4 22 4 25 0 35 -2 23
-4z m-8890 -58 c-3 -9 -8 -14 -10 -11 -3 3 -2 9 2 15 9 16 15 13 8 -4z m82
-15 c3 -5 1 -10 -4 -10 -6 0 -11 5 -11 10 0 6 2 10 4 10 3 0 8 -4 11 -10z m92
-16 c-3 -3 -12 -4 -19 -1 -8 3 -5 6 6 6 11 1 17 -2 13 -5z m2173 -69 c0 -22
-22 -40 -34 -28 -10 10 -7 38 6 51 15 15 28 6 28 -23z m1707 -37 c-3 -7 -5 -2
-5 12 0 14 2 19 5 13 2 -7 2 -19 0 -25z m93 2 c0 -5 -5 -10 -11 -10 -5 0 -7 5
-4 10 3 6 8 10 11 10 2 0 4 -4 4 -10z"/>
<path d="M8088 573 c7 -3 16 -2 19 1 4 3 -2 6 -13 5 -11 0 -14 -3 -6 -6z"/>
<path d="M3853 543 c15 -2 37 -2 50 0 12 2 0 4 -28 4 -27 0 -38 -2 -22 -4z"/>
<path d="M11058 733 c7 -3 16 -2 19 1 4 3 -2 6 -13 5 -11 0 -14 -3 -6 -6z"/>
<path d="M10975 690 c-16 -7 -12 -9 18 -9 23 -1 36 3 32 9 -7 12 -23 12 -50 0z"/>
<path d="M670 670 c36 -4 72 -3 80 1 8 5 -20 8 -65 7 l-80 -1 65 -7z"/>
<path d="M1003 673 c9 -2 23 -2 30 0 6 3 -1 5 -18 5 -16 0 -22 -2 -12 -5z"/>
<path d="M10298 633 c7 -3 16 -2 19 1 4 3 -2 6 -13 5 -11 0 -14 -3 -6 -6z"/>
</g>
</svg>
